M48
;Layer_Color=9474304
;FILE_FORMAT=2:4
INCH,TZ
;TYPE=PLATED
T01F00S00C0.0280
T02F00S00C0.0295
T03F00S00C0.0315
T04F00S00C0.0327
T05F00S00C0.0354
T06F00S00C0.0406
T07F00S00C0.0413
T08F00S00C0.0417
T09F00S00C0.0433
T10F00S00C0.0472
T11F00S00C0.0484
T12F00S00C0.0488
T13F00S00C0.0508
T14F00S00C0.0551
T15F00S00C0.1378
%
T01
X38300Y21850
X21600Y19700
X20150Y18700
T02
X24000Y43800
X24984
X28900Y45416
Y46400
X22250Y47258
Y48242
X24000Y51000
X24984
T03
X38466Y23700
X40434
X40419Y25200
X44750
X29234Y28900
X27266
X26415Y28125
X22085
X18484Y28925
X16516
X15700Y28400
X18715Y25100
X19166Y18400
X21134
X14385Y25100
X11369Y28400
X12600Y36259
X14015
Y40590
X12600
X12226Y42285
Y46615
X14616Y46850
X16584
X22900Y40590
X24315
Y36259
X22900
T04
X15700Y42750
X16700
X17700
X18700
X19700
X20700
X21700
Y45750
X20700
X19700
X18700
X17700
X16700
X15700
T05
X45800Y25200
X46800
X13350Y25100
X12350
T06
X16650Y49200
X17650
Y50200
X16650
X19100
X20100
Y49200
X19100
X15075
Y50200
X14075
Y49200
T07
X33200Y19324
Y22276
X26550Y22250
Y19297
T08
X22211Y29725
X26289
X15555
X11476
X10926Y42461
X13526
Y46539
X10926
X26850Y43811
Y47889
Y49161
Y53239
T09
X15450Y36348
Y40521
X25750
Y36348
T10
X35463Y32350
X39400
X40597
X44534
Y40750
X40597
X39400
X35463
X39900Y45413
Y49350
T11
X13050Y35125
X14050
X15050
X23250
X24250
X25250
T12
X24550Y46300
Y47300
Y48300
T13
X13050Y31596
X15050
X23250
X25250
T14
X31332Y27800
X33300
X31684Y50500
X29716
T15
X37050Y25200
X44450Y22300
X46812
Y17950
X44450
X14712
X12350
Y22300
X14712
X19150Y37900
X32600Y46750
X46200Y51750
X11900Y51350
M30
