G04*
G04 #@! TF.GenerationSoftware,Altium Limited,Altium Designer,23.8.1 (32)*
G04*
G04 Layer_Color=255*
%FSLAX25Y25*%
%MOIN*%
G70*
G04*
G04 #@! TF.SameCoordinates,3D9757B1-BBEF-420C-9893-903EB812625C*
G04*
G04*
G04 #@! TF.FilePolarity,Positive*
G04*
G01*
G75*
%ADD46C,0.17717*%
%ADD47C,0.08268*%
%ADD48R,0.08268X0.08268*%
%ADD49R,0.07264X0.07264*%
%ADD50C,0.07264*%
%ADD51R,0.04331X0.04331*%
%ADD52C,0.04331*%
%ADD53C,0.09843*%
%ADD54R,0.05512X0.05512*%
%ADD55C,0.05512*%
%ADD56C,0.04724*%
%ADD57R,0.06260X0.06260*%
%ADD58C,0.06260*%
%ADD59R,0.07323X0.07323*%
%ADD60C,0.07323*%
%ADD61C,0.04528*%
%ADD62C,0.07638*%
%ADD63R,0.07638X0.07638*%
%ADD64C,0.06083*%
%ADD65R,0.05512X0.05512*%
%ADD66R,0.06260X0.06260*%
%ADD67R,0.04921X0.04921*%
%ADD68C,0.04921*%
%ADD69R,0.06496X0.06496*%
%ADD70C,0.06496*%
%ADD71R,0.04331X0.04331*%
D46*
X191500Y379000D02*
D03*
X468122Y179500D02*
D03*
X444500D02*
D03*
Y223000D02*
D03*
X468122D02*
D03*
X370500Y252000D02*
D03*
X147122Y223000D02*
D03*
X462000Y517500D02*
D03*
X326000Y467500D02*
D03*
X119000Y513500D02*
D03*
X147122Y179500D02*
D03*
X123500D02*
D03*
Y223000D02*
D03*
D47*
X313315Y278000D02*
D03*
X316843Y505000D02*
D03*
D48*
X333000Y278000D02*
D03*
X297158Y505000D02*
D03*
D49*
X252500Y351248D02*
D03*
X150500D02*
D03*
D50*
X242500D02*
D03*
X232500D02*
D03*
X140500D02*
D03*
X130500D02*
D03*
D51*
X249843Y438000D02*
D03*
Y510000D02*
D03*
D52*
X240000Y438000D02*
D03*
Y510000D02*
D03*
X222500Y482421D02*
D03*
X289000Y454157D02*
D03*
D53*
X445343Y323500D02*
D03*
X405972D02*
D03*
Y407500D02*
D03*
X445343D02*
D03*
X394000Y323500D02*
D03*
X354630D02*
D03*
X399000Y493500D02*
D03*
Y454130D02*
D03*
X354630Y407500D02*
D03*
X394000D02*
D03*
D54*
X468000Y252000D02*
D03*
X123500Y251000D02*
D03*
D55*
X458000Y252000D02*
D03*
X332000Y222764D02*
D03*
X265500Y222500D02*
D03*
X133500Y251000D02*
D03*
D56*
X447500Y252000D02*
D03*
X404193D02*
D03*
X157000Y284000D02*
D03*
X113693D02*
D03*
X126000Y405901D02*
D03*
Y362594D02*
D03*
X140152Y405901D02*
D03*
Y362594D02*
D03*
X229000Y405901D02*
D03*
Y362594D02*
D03*
X243152Y405901D02*
D03*
Y362594D02*
D03*
X264154Y281248D02*
D03*
X220847D02*
D03*
X122258Y422847D02*
D03*
Y466153D02*
D03*
X143846Y251000D02*
D03*
X187153D02*
D03*
D57*
X268500Y491606D02*
D03*
X109258Y424606D02*
D03*
X135258D02*
D03*
X268500Y478894D02*
D03*
D58*
Y532394D02*
D03*
X114760Y297248D02*
D03*
X222106D02*
D03*
X109258Y465394D02*
D03*
X135258D02*
D03*
X268500Y438106D02*
D03*
D59*
X245500Y483000D02*
D03*
D60*
Y473000D02*
D03*
Y463000D02*
D03*
D61*
X191657Y184000D02*
D03*
X211343D02*
D03*
X384658Y237000D02*
D03*
X404343D02*
D03*
X184843Y289248D02*
D03*
X165157D02*
D03*
X292342Y289000D02*
D03*
X272657D02*
D03*
X146158Y468500D02*
D03*
X165842D02*
D03*
D62*
X252500Y315964D02*
D03*
X150500D02*
D03*
D63*
X232500D02*
D03*
X130500D02*
D03*
D64*
X201000Y502000D02*
D03*
Y492000D02*
D03*
X191000D02*
D03*
Y502000D02*
D03*
X176496D02*
D03*
Y492000D02*
D03*
X166496D02*
D03*
Y502000D02*
D03*
X150748D02*
D03*
Y492000D02*
D03*
X140748D02*
D03*
Y502000D02*
D03*
D65*
X332000Y193236D02*
D03*
X265500Y192972D02*
D03*
D66*
X155547Y297248D02*
D03*
X262894D02*
D03*
D67*
X157000Y427500D02*
D03*
D68*
X167000D02*
D03*
X177000D02*
D03*
X187000D02*
D03*
X197000D02*
D03*
X207000D02*
D03*
X217000D02*
D03*
Y457500D02*
D03*
X207000D02*
D03*
X197000D02*
D03*
X187000D02*
D03*
X177000D02*
D03*
X167000D02*
D03*
X157000D02*
D03*
D69*
X154500Y405212D02*
D03*
X257500D02*
D03*
D70*
X154500Y363480D02*
D03*
X257500D02*
D03*
D71*
X222500Y472579D02*
D03*
X289000Y464000D02*
D03*
M02*
