G04*
G04 #@! TF.GenerationSoftware,Altium Limited,Altium Designer,23.8.1 (32)*
G04*
G04 Layer_Color=16711935*
%FSLAX25Y25*%
%MOIN*%
G70*
G04*
G04 #@! TF.SameCoordinates,3D9757B1-BBEF-420C-9893-903EB812625C*
G04*
G04*
G04 #@! TF.FilePolarity,Negative*
G04*
G01*
G75*
%ADD16C,0.18517*%
%ADD17C,0.09068*%
%ADD18R,0.09068X0.09068*%
%ADD19R,0.08064X0.08064*%
%ADD20C,0.08064*%
%ADD21R,0.05131X0.05131*%
%ADD22C,0.05131*%
%ADD23C,0.10642*%
%ADD24R,0.06312X0.06312*%
%ADD25C,0.06312*%
%ADD26C,0.05524*%
%ADD27R,0.07060X0.07060*%
%ADD28C,0.07060*%
%ADD29R,0.08123X0.08123*%
%ADD30C,0.08123*%
%ADD31C,0.05328*%
%ADD32C,0.08438*%
%ADD33R,0.08438X0.08438*%
%ADD34C,0.06883*%
%ADD35R,0.06312X0.06312*%
%ADD36R,0.07060X0.07060*%
%ADD37R,0.05721X0.05721*%
%ADD38C,0.05721*%
%ADD39R,0.07296X0.07296*%
%ADD40C,0.07296*%
%ADD41R,0.05131X0.05131*%
%ADD42C,0.05800*%
D16*
X191500Y379000D02*
D03*
X468122Y179500D02*
D03*
X444500D02*
D03*
Y223000D02*
D03*
X468122D02*
D03*
X370500Y252000D02*
D03*
X147122Y223000D02*
D03*
X462000Y517500D02*
D03*
X326000Y467500D02*
D03*
X119000Y513500D02*
D03*
X147122Y179500D02*
D03*
X123500D02*
D03*
Y223000D02*
D03*
D17*
X313315Y278000D02*
D03*
X316843Y505000D02*
D03*
D18*
X333000Y278000D02*
D03*
X297158Y505000D02*
D03*
D19*
X252500Y351248D02*
D03*
X150500D02*
D03*
D20*
X242500D02*
D03*
X232500D02*
D03*
X140500D02*
D03*
X130500D02*
D03*
D21*
X249843Y438000D02*
D03*
Y510000D02*
D03*
D22*
X240000Y438000D02*
D03*
Y510000D02*
D03*
X222500Y482421D02*
D03*
X289000Y454157D02*
D03*
D23*
X445343Y323500D02*
D03*
X405972D02*
D03*
Y407500D02*
D03*
X445343D02*
D03*
X394000Y323500D02*
D03*
X354630D02*
D03*
X399000Y493500D02*
D03*
Y454130D02*
D03*
X354630Y407500D02*
D03*
X394000D02*
D03*
D24*
X468000Y252000D02*
D03*
X123500Y251000D02*
D03*
D25*
X458000Y252000D02*
D03*
X332000Y222764D02*
D03*
X265500Y222500D02*
D03*
X133500Y251000D02*
D03*
D26*
X447500Y252000D02*
D03*
X404193D02*
D03*
X157000Y284000D02*
D03*
X113693D02*
D03*
X126000Y405901D02*
D03*
Y362594D02*
D03*
X140152Y405901D02*
D03*
Y362594D02*
D03*
X229000Y405901D02*
D03*
Y362594D02*
D03*
X243152Y405901D02*
D03*
Y362594D02*
D03*
X264154Y281248D02*
D03*
X220847D02*
D03*
X122258Y422847D02*
D03*
Y466153D02*
D03*
X143846Y251000D02*
D03*
X187153D02*
D03*
D27*
X268500Y491606D02*
D03*
X109258Y424606D02*
D03*
X135258D02*
D03*
X268500Y478894D02*
D03*
D28*
Y532394D02*
D03*
X114760Y297248D02*
D03*
X222106D02*
D03*
X109258Y465394D02*
D03*
X135258D02*
D03*
X268500Y438106D02*
D03*
D29*
X245500Y483000D02*
D03*
D30*
Y473000D02*
D03*
Y463000D02*
D03*
D31*
X191657Y184000D02*
D03*
X211343D02*
D03*
X384658Y237000D02*
D03*
X404343D02*
D03*
X184843Y289248D02*
D03*
X165157D02*
D03*
X292342Y289000D02*
D03*
X272657D02*
D03*
X146158Y468500D02*
D03*
X165842D02*
D03*
D32*
X252500Y315964D02*
D03*
X150500D02*
D03*
D33*
X232500D02*
D03*
X130500D02*
D03*
D34*
X201000Y502000D02*
D03*
Y492000D02*
D03*
X191000D02*
D03*
Y502000D02*
D03*
X176496D02*
D03*
Y492000D02*
D03*
X166496D02*
D03*
Y502000D02*
D03*
X150748D02*
D03*
Y492000D02*
D03*
X140748D02*
D03*
Y502000D02*
D03*
D35*
X332000Y193236D02*
D03*
X265500Y192972D02*
D03*
D36*
X155547Y297248D02*
D03*
X262894D02*
D03*
D37*
X157000Y427500D02*
D03*
D38*
X167000D02*
D03*
X177000D02*
D03*
X187000D02*
D03*
X197000D02*
D03*
X207000D02*
D03*
X217000D02*
D03*
Y457500D02*
D03*
X207000D02*
D03*
X197000D02*
D03*
X187000D02*
D03*
X177000D02*
D03*
X167000D02*
D03*
X157000D02*
D03*
D39*
X154500Y405212D02*
D03*
X257500D02*
D03*
D40*
X154500Y363480D02*
D03*
X257500D02*
D03*
D41*
X222500Y472579D02*
D03*
X289000Y464000D02*
D03*
D42*
X383000Y218500D02*
D03*
X216000Y197000D02*
D03*
X201500Y187000D02*
D03*
M02*
