G04*
G04 #@! TF.GenerationSoftware,Altium Limited,Altium Designer,23.8.1 (32)*
G04*
G04 Layer_Color=65535*
%FSLAX25Y25*%
%MOIN*%
G70*
G04*
G04 #@! TF.SameCoordinates,3D9757B1-BBEF-420C-9893-903EB812625C*
G04*
G04*
G04 #@! TF.FilePolarity,Positive*
G04*
G01*
G75*
%ADD10C,0.00709*%
%ADD11C,0.00787*%
%ADD12C,0.00500*%
%ADD13C,0.01000*%
D10*
X330890Y538370D02*
X330183Y538077D01*
X329890Y537370D01*
X448000D02*
X447707Y538077D01*
X447000Y538370D01*
X329890Y500000D02*
X330183Y499293D01*
X330890Y499000D01*
X447000D02*
X447707Y499293D01*
X448000Y500000D01*
X320000Y420000D02*
X319707Y420707D01*
X319000Y421000D01*
Y302890D02*
X319707Y303183D01*
X320000Y303890D01*
X281630Y421000D02*
X280923Y420707D01*
X280630Y420000D01*
Y303890D02*
X280923Y303183D01*
X281630Y302890D01*
X445213Y361870D02*
X444920Y362577D01*
X444213Y362870D01*
Y284130D02*
X444920Y284423D01*
X445213Y285130D01*
X406843Y362870D02*
X406135Y362577D01*
X405842Y361870D01*
Y285130D02*
X406135Y284423D01*
X406843Y284130D01*
X406102Y369130D02*
X406395Y368423D01*
X407102Y368130D01*
Y446870D02*
X406395Y446577D01*
X406102Y445870D01*
X444473Y368130D02*
X445180Y368423D01*
X445472Y369130D01*
Y445870D02*
X445180Y446577D01*
X444473Y446870D01*
X393870Y361870D02*
X393577Y362577D01*
X392870Y362870D01*
Y284130D02*
X393577Y284423D01*
X393870Y285130D01*
X355500Y362870D02*
X354793Y362577D01*
X354500Y361870D01*
Y285130D02*
X354793Y284423D01*
X355500Y284130D01*
X360630Y493370D02*
X359923Y493077D01*
X359630Y492370D01*
X438370D02*
X438077Y493077D01*
X437370Y493370D01*
X359630Y455000D02*
X359923Y454293D01*
X360630Y454000D01*
X437370D02*
X438077Y454293D01*
X438370Y455000D01*
X354760Y369130D02*
X355053Y368423D01*
X355760Y368130D01*
Y446870D02*
X355053Y446577D01*
X354760Y445870D01*
X393130Y368130D02*
X393837Y368423D01*
X394130Y369130D01*
Y445870D02*
X393837Y446577D01*
X393130Y446870D01*
X448000Y500000D02*
Y537370D01*
X329890Y500000D02*
Y537370D01*
X330890Y538370D02*
X447000D01*
X330890Y499000D02*
X447000D01*
X281630Y302890D02*
X319000D01*
X281630Y421000D02*
X319000D01*
X320000Y303890D02*
Y420000D01*
X280630Y303890D02*
Y420000D01*
X445213Y285130D02*
Y361870D01*
X405842Y285130D02*
Y361870D01*
X406843Y284130D02*
X444213D01*
X406843Y362870D02*
X444213D01*
X406102Y369130D02*
Y445870D01*
X445472Y369130D02*
Y445870D01*
X407102Y446870D02*
X444473D01*
X407102Y368130D02*
X444473D01*
X393870Y285130D02*
Y361870D01*
X354500Y285130D02*
Y361870D01*
X355500Y284130D02*
X392870D01*
X355500Y362870D02*
X392870D01*
X360630Y493370D02*
X437370D01*
X360630Y454000D02*
X437370D01*
X438370Y455000D02*
Y492370D01*
X359630Y455000D02*
Y492370D01*
X354760Y369130D02*
Y445870D01*
X394130Y369130D02*
Y445870D01*
X355760Y446870D02*
X393130D01*
X355760Y368130D02*
X393130D01*
D11*
X345598Y278000D02*
X344811D01*
X345598D01*
X266348Y351248D02*
X265561D01*
X266348D01*
X260669Y438000D02*
X259882D01*
X260669D01*
X456780Y247844D02*
X457412Y247027D01*
X458151Y246304D01*
X458982Y245691D01*
X459889Y245197D01*
X460856Y244833D01*
X461864Y244606D01*
X462894Y244520D01*
X463925Y244577D01*
X464939Y244775D01*
X465916Y245111D01*
X466837Y245579D01*
X467685Y246169D01*
X468444Y246870D01*
X469099Y247669D01*
Y256331D02*
X468444Y257130D01*
X467685Y257831D01*
X466837Y258421D01*
X465916Y258889D01*
X464939Y259225D01*
X463925Y259423D01*
X462894Y259480D01*
X461864Y259394D01*
X460856Y259167D01*
X459889Y258803D01*
X458982Y258309D01*
X458151Y257696D01*
X457412Y256973D01*
X456780Y256156D01*
X268894Y484539D02*
X268106D01*
X268894D01*
X235894Y483000D02*
X235106D01*
X235894D01*
X260669Y510000D02*
X259882D01*
X260669D01*
X392531Y196244D02*
X391744D01*
X392531D01*
X219282Y315964D02*
X218494D01*
X219282D01*
X332394Y173551D02*
X331606D01*
X332394D01*
X265894Y173287D02*
X265106D01*
X265894D01*
X164348Y351248D02*
X163561D01*
X164348D01*
X163008Y297248D02*
X162221D01*
X163008D01*
X117281Y315964D02*
X116494D01*
X117281D01*
X157079Y421240D02*
X156291D01*
X157079D01*
X270354Y297248D02*
X269567D01*
X270354D01*
X109652Y417539D02*
X108864D01*
X109652D01*
X135652D02*
X134864D01*
X135652D01*
X222894Y462146D02*
X222106D01*
X222894D01*
X268894Y485961D02*
X268106D01*
X268894D01*
X289394Y474433D02*
X288606D01*
X289394D01*
X285347Y505000D02*
X284559D01*
X285347D01*
X134720Y255156D02*
X134088Y255973D01*
X133349Y256696D01*
X132518Y257309D01*
X131611Y257803D01*
X130644Y258167D01*
X129636Y258394D01*
X128606Y258480D01*
X127575Y258423D01*
X126561Y258225D01*
X125584Y257889D01*
X124663Y257421D01*
X123815Y256831D01*
X123056Y256130D01*
X122401Y255331D01*
Y246669D02*
X123056Y245870D01*
X123815Y245169D01*
X124663Y244579D01*
X125584Y244111D01*
X126561Y243775D01*
X127575Y243577D01*
X128606Y243520D01*
X129636Y243606D01*
X130644Y243833D01*
X131611Y244197D01*
X132518Y244691D01*
X133349Y245304D01*
X134088Y246027D01*
X134720Y246844D01*
X209256Y224000D02*
X208469D01*
X209256D01*
X472331Y252000D02*
X474299D01*
X473315Y251016D02*
Y252984D01*
X117201Y251000D02*
X119169D01*
X118185Y250016D02*
Y251984D01*
D12*
X257323Y438000D02*
X257283Y438998D01*
X257162Y439989D01*
X256962Y440968D01*
X256685Y441927D01*
X256330Y442861D01*
X255902Y443763D01*
X255403Y444628D01*
X254836Y445450D01*
X254204Y446224D01*
X253512Y446944D01*
X252765Y447606D01*
X251966Y448206D01*
X251122Y448740D01*
X250238Y449204D01*
X249319Y449596D01*
X248372Y449912D01*
X247402Y450151D01*
X246416Y450311D01*
X245421Y450391D01*
X244422D01*
X243426Y450311D01*
X242441Y450151D01*
X241471Y449912D01*
X240524Y449596D01*
X239605Y449204D01*
X238720Y448740D01*
X237876Y448206D01*
X237078Y447606D01*
X236330Y446944D01*
X235638Y446224D01*
X235007Y445450D01*
X234440Y444628D01*
X233940Y443763D01*
X233512Y442861D01*
X233158Y441927D01*
X232880Y440968D01*
X232680Y439989D01*
X232560Y438998D01*
X232520Y438000D01*
X232560Y437002D01*
X232680Y436011D01*
X232880Y435032D01*
X233158Y434073D01*
X233512Y433139D01*
X233940Y432237D01*
X234440Y431372D01*
X235007Y430550D01*
X235639Y429776D01*
X236330Y429056D01*
X237078Y428394D01*
X237876Y427794D01*
X238720Y427260D01*
X239605Y426796D01*
X240524Y426404D01*
X241471Y426088D01*
X242441Y425849D01*
X243426Y425689D01*
X244422Y425608D01*
X245421D01*
X246416Y425689D01*
X247402Y425849D01*
X248372Y426088D01*
X249319Y426404D01*
X250238Y426796D01*
X251122Y427260D01*
X251966Y427794D01*
X252765Y428394D01*
X253512Y429056D01*
X254204Y429776D01*
X254836Y430550D01*
X255403Y431372D01*
X255902Y432237D01*
X256330Y433139D01*
X256685Y434073D01*
X256962Y435032D01*
X257162Y436011D01*
X257283Y437002D01*
X257323Y438000D01*
Y510000D02*
X257283Y510998D01*
X257162Y511989D01*
X256962Y512968D01*
X256685Y513927D01*
X256330Y514861D01*
X255902Y515763D01*
X255403Y516628D01*
X254836Y517450D01*
X254204Y518224D01*
X253512Y518944D01*
X252765Y519606D01*
X251966Y520206D01*
X251122Y520740D01*
X250238Y521204D01*
X249319Y521596D01*
X248372Y521912D01*
X247402Y522151D01*
X246416Y522311D01*
X245421Y522392D01*
X244422D01*
X243426Y522311D01*
X242441Y522151D01*
X241471Y521912D01*
X240524Y521596D01*
X239605Y521204D01*
X238720Y520740D01*
X237876Y520206D01*
X237078Y519606D01*
X236330Y518944D01*
X235638Y518224D01*
X235007Y517450D01*
X234440Y516628D01*
X233940Y515763D01*
X233512Y514861D01*
X233158Y513927D01*
X232880Y512968D01*
X232680Y511989D01*
X232560Y510998D01*
X232520Y510000D01*
X232560Y509002D01*
X232680Y508011D01*
X232880Y507032D01*
X233158Y506073D01*
X233512Y505139D01*
X233940Y504237D01*
X234440Y503372D01*
X235007Y502550D01*
X235639Y501776D01*
X236330Y501056D01*
X237078Y500394D01*
X237876Y499794D01*
X238720Y499260D01*
X239605Y498796D01*
X240524Y498404D01*
X241471Y498088D01*
X242441Y497849D01*
X243426Y497689D01*
X244422Y497609D01*
X245421D01*
X246416Y497689D01*
X247402Y497849D01*
X248372Y498088D01*
X249319Y498404D01*
X250238Y498796D01*
X251122Y499260D01*
X251966Y499794D01*
X252765Y500394D01*
X253512Y501056D01*
X254204Y501776D01*
X254836Y502550D01*
X255403Y503372D01*
X255902Y504237D01*
X256330Y505139D01*
X256685Y506073D01*
X256962Y507032D01*
X257162Y508011D01*
X257283Y509002D01*
X257323Y510000D01*
X205612Y509205D02*
X204777Y509687D01*
Y508722D01*
X205612Y509205D01*
X363496Y208000D02*
X363480Y208999D01*
X363433Y209998D01*
X363353Y210994D01*
X363243Y211987D01*
X363100Y212976D01*
X362927Y213961D01*
X362722Y214939D01*
X362487Y215910D01*
X362220Y216874D01*
X361924Y217828D01*
X361597Y218772D01*
X361240Y219706D01*
X360854Y220628D01*
X360439Y221537D01*
X359995Y222432D01*
X359523Y223313D01*
X359023Y224179D01*
X358496Y225028D01*
X357943Y225860D01*
X357363Y226674D01*
X356758Y227470D01*
X356127Y228245D01*
X355473Y229001D01*
X354795Y229735D01*
X354094Y230447D01*
X353370Y231137D01*
X352625Y231803D01*
X351860Y232446D01*
X351074Y233063D01*
X350270Y233656D01*
X349446Y234223D01*
X348605Y234763D01*
X347748Y235276D01*
X346875Y235762D01*
X345986Y236220D01*
X345084Y236650D01*
X344168Y237051D01*
X343240Y237422D01*
X342301Y237764D01*
X341352Y238076D01*
X340393Y238357D01*
X339425Y238608D01*
X338451Y238828D01*
X337469Y239018D01*
X336482Y239176D01*
X335491Y239302D01*
X334496Y239397D01*
X333499Y239460D01*
X332500Y239492D01*
X331500D01*
X330501Y239460D01*
X329504Y239397D01*
X328509Y239302D01*
X327518Y239176D01*
X326531Y239018D01*
X325549Y238828D01*
X324574Y238608D01*
X323607Y238357D01*
X322648Y238076D01*
X321699Y237764D01*
X320760Y237422D01*
X319832Y237051D01*
X318916Y236650D01*
X318014Y236220D01*
X317125Y235762D01*
X316252Y235276D01*
X315394Y234763D01*
X314554Y234223D01*
X313731Y233656D01*
X312926Y233063D01*
X312140Y232446D01*
X311374Y231803D01*
X310630Y231137D01*
X309906Y230447D01*
X309205Y229735D01*
X308527Y229001D01*
X307873Y228245D01*
X307242Y227470D01*
X306637Y226674D01*
X306057Y225860D01*
X305504Y225028D01*
X304977Y224179D01*
X304477Y223313D01*
X304005Y222432D01*
X303561Y221537D01*
X303146Y220628D01*
X302760Y219706D01*
X302403Y218772D01*
X302077Y217828D01*
X301780Y216874D01*
X301513Y215910D01*
X301278Y214939D01*
X301073Y213961D01*
X300900Y212977D01*
X300757Y211987D01*
X300647Y210994D01*
X300567Y209998D01*
X300520Y208999D01*
X300504Y208000D01*
X300520Y207001D01*
X300567Y206002D01*
X300646Y205006D01*
X300757Y204013D01*
X300900Y203024D01*
X301073Y202039D01*
X301278Y201061D01*
X301513Y200090D01*
X301780Y199127D01*
X302077Y198172D01*
X302403Y197228D01*
X302760Y196294D01*
X303146Y195372D01*
X303561Y194463D01*
X304005Y193568D01*
X304477Y192687D01*
X304977Y191821D01*
X305504Y190972D01*
X306057Y190140D01*
X306637Y189326D01*
X307242Y188531D01*
X307873Y187755D01*
X308527Y186999D01*
X309205Y186265D01*
X309906Y185553D01*
X310630Y184863D01*
X311374Y184197D01*
X312140Y183554D01*
X312926Y182937D01*
X313730Y182344D01*
X314554Y181777D01*
X315394Y181237D01*
X316252Y180724D01*
X317125Y180238D01*
X318014Y179780D01*
X318916Y179350D01*
X319831Y178949D01*
X320759Y178578D01*
X321698Y178236D01*
X322648Y177924D01*
X323607Y177643D01*
X324574Y177392D01*
X325549Y177172D01*
X326531Y176982D01*
X327517Y176824D01*
X328509Y176698D01*
X329504Y176603D01*
X330501Y176540D01*
X331500Y176508D01*
X332500Y176508D01*
X333498Y176540D01*
X334496Y176603D01*
X335491Y176698D01*
X336482Y176824D01*
X337469Y176982D01*
X338450Y177172D01*
X339425Y177392D01*
X340393Y177643D01*
X341352Y177924D01*
X342301Y178236D01*
X343240Y178578D01*
X344168Y178949D01*
X345084Y179350D01*
X345986Y179780D01*
X346874Y180238D01*
X347748Y180724D01*
X348605Y181237D01*
X349446Y181777D01*
X350269Y182344D01*
X351074Y182937D01*
X351860Y183554D01*
X352625Y184197D01*
X353370Y184863D01*
X354094Y185553D01*
X354795Y186265D01*
X355473Y186999D01*
X356127Y187754D01*
X356757Y188530D01*
X357363Y189325D01*
X357942Y190140D01*
X358496Y190972D01*
X359023Y191821D01*
X359523Y192686D01*
X359995Y193567D01*
X360438Y194463D01*
X360854Y195372D01*
X361240Y196294D01*
X361596Y197227D01*
X361923Y198172D01*
X362220Y199126D01*
X362487Y200090D01*
X362722Y201061D01*
X362927Y202039D01*
X363100Y203023D01*
X363243Y204012D01*
X363353Y205006D01*
X363433Y206002D01*
X363480Y207000D01*
X363496Y208000D01*
X296996Y207736D02*
X296980Y208735D01*
X296933Y209734D01*
X296853Y210730D01*
X296743Y211723D01*
X296600Y212713D01*
X296427Y213697D01*
X296222Y214675D01*
X295987Y215646D01*
X295720Y216610D01*
X295424Y217564D01*
X295097Y218509D01*
X294740Y219442D01*
X294354Y220364D01*
X293939Y221273D01*
X293495Y222169D01*
X293023Y223049D01*
X292523Y223915D01*
X291996Y224764D01*
X291443Y225596D01*
X290863Y226411D01*
X290258Y227206D01*
X289627Y227981D01*
X288973Y228737D01*
X288295Y229471D01*
X287594Y230183D01*
X286870Y230873D01*
X286125Y231539D01*
X285360Y232182D01*
X284574Y232800D01*
X283769Y233392D01*
X282946Y233959D01*
X282105Y234499D01*
X281248Y235013D01*
X280375Y235498D01*
X279486Y235957D01*
X278584Y236386D01*
X277668Y236787D01*
X276741Y237158D01*
X275801Y237500D01*
X274852Y237812D01*
X273893Y238093D01*
X272925Y238345D01*
X271951Y238565D01*
X270969Y238754D01*
X269982Y238912D01*
X268991Y239038D01*
X267996Y239133D01*
X266999Y239197D01*
X266000Y239228D01*
X265000D01*
X264001Y239197D01*
X263004Y239133D01*
X262009Y239038D01*
X261018Y238912D01*
X260031Y238754D01*
X259049Y238565D01*
X258074Y238345D01*
X257107Y238093D01*
X256148Y237812D01*
X255199Y237500D01*
X254259Y237158D01*
X253332Y236787D01*
X252416Y236386D01*
X251514Y235957D01*
X250625Y235498D01*
X249752Y235013D01*
X248895Y234499D01*
X248054Y233959D01*
X247231Y233392D01*
X246426Y232800D01*
X245640Y232182D01*
X244875Y231539D01*
X244130Y230873D01*
X243406Y230183D01*
X242705Y229471D01*
X242027Y228737D01*
X241373Y227981D01*
X240742Y227206D01*
X240137Y226411D01*
X239557Y225596D01*
X239004Y224764D01*
X238477Y223915D01*
X237977Y223049D01*
X237505Y222169D01*
X237061Y221273D01*
X236646Y220364D01*
X236260Y219442D01*
X235903Y218509D01*
X235577Y217564D01*
X235280Y216610D01*
X235013Y215646D01*
X234778Y214675D01*
X234573Y213697D01*
X234400Y212713D01*
X234257Y211723D01*
X234147Y210730D01*
X234067Y209734D01*
X234020Y208736D01*
X234004Y207736D01*
X234020Y206737D01*
X234067Y205739D01*
X234146Y204742D01*
X234257Y203749D01*
X234400Y202760D01*
X234573Y201776D01*
X234778Y200797D01*
X235013Y199826D01*
X235280Y198863D01*
X235577Y197908D01*
X235903Y196964D01*
X236260Y196030D01*
X236646Y195109D01*
X237061Y194200D01*
X237505Y193304D01*
X237977Y192423D01*
X238477Y191558D01*
X239004Y190708D01*
X239557Y189876D01*
X240137Y189062D01*
X240742Y188267D01*
X241372Y187491D01*
X242027Y186736D01*
X242705Y186002D01*
X243406Y185289D01*
X244129Y184600D01*
X244874Y183933D01*
X245640Y183291D01*
X246426Y182673D01*
X247230Y182080D01*
X248054Y181514D01*
X248894Y180973D01*
X249752Y180460D01*
X250625Y179974D01*
X251514Y179516D01*
X252416Y179086D01*
X253331Y178686D01*
X254259Y178314D01*
X255199Y177972D01*
X256148Y177661D01*
X257107Y177379D01*
X258074Y177128D01*
X259049Y176908D01*
X260031Y176719D01*
X261017Y176561D01*
X262009Y176434D01*
X263004Y176339D01*
X264001Y176276D01*
X265000Y176244D01*
X266000Y176244D01*
X266998Y176276D01*
X267996Y176339D01*
X268991Y176434D01*
X269982Y176561D01*
X270969Y176719D01*
X271950Y176908D01*
X272925Y177128D01*
X273893Y177379D01*
X274852Y177661D01*
X275801Y177972D01*
X276740Y178314D01*
X277668Y178686D01*
X278584Y179086D01*
X279486Y179516D01*
X280374Y179974D01*
X281248Y180460D01*
X282105Y180973D01*
X282946Y181513D01*
X283769Y182080D01*
X284574Y182673D01*
X285360Y183291D01*
X286125Y183933D01*
X286870Y184599D01*
X287594Y185289D01*
X288295Y186001D01*
X288973Y186735D01*
X289627Y187491D01*
X290257Y188266D01*
X290863Y189062D01*
X291442Y189876D01*
X291996Y190708D01*
X292523Y191557D01*
X293023Y192423D01*
X293495Y193304D01*
X293938Y194199D01*
X294354Y195108D01*
X294740Y196030D01*
X295096Y196964D01*
X295423Y197908D01*
X295720Y198862D01*
X295987Y199826D01*
X296222Y200797D01*
X296427Y201775D01*
X296600Y202759D01*
X296743Y203749D01*
X296853Y204742D01*
X296933Y205738D01*
X296980Y206736D01*
X296996Y207736D01*
X181108Y509205D02*
X180273Y509687D01*
Y508722D01*
X181108Y509205D01*
X155360D02*
X154525Y509687D01*
Y508722D01*
X155360Y509205D01*
X234902Y477500D02*
X234861Y478498D01*
X234741Y479489D01*
X234541Y480468D01*
X234263Y481427D01*
X233909Y482361D01*
X233481Y483263D01*
X232982Y484128D01*
X232414Y484950D01*
X231783Y485724D01*
X231091Y486444D01*
X230343Y487106D01*
X229545Y487706D01*
X228701Y488240D01*
X227817Y488704D01*
X226898Y489096D01*
X225950Y489412D01*
X224981Y489651D01*
X223995Y489811D01*
X222999Y489891D01*
X222001D01*
X221005Y489811D01*
X220019Y489651D01*
X219050Y489412D01*
X218102Y489096D01*
X217183Y488704D01*
X216299Y488240D01*
X215455Y487706D01*
X214657Y487106D01*
X213909Y486444D01*
X213217Y485724D01*
X212586Y484950D01*
X212018Y484128D01*
X211519Y483263D01*
X211091Y482361D01*
X210737Y481427D01*
X210459Y480468D01*
X210259Y479489D01*
X210139Y478498D01*
X210098Y477500D01*
X210139Y476502D01*
X210259Y475511D01*
X210459Y474532D01*
X210737Y473573D01*
X211091Y472639D01*
X211519Y471737D01*
X212018Y470872D01*
X212586Y470050D01*
X213217Y469276D01*
X213909Y468556D01*
X214657Y467894D01*
X215455Y467294D01*
X216299Y466760D01*
X217184Y466296D01*
X218102Y465904D01*
X219050Y465588D01*
X220019Y465349D01*
X221005Y465189D01*
X222001Y465108D01*
X222999D01*
X223995Y465189D01*
X224981Y465349D01*
X225950Y465588D01*
X226898Y465904D01*
X227817Y466296D01*
X228701Y466760D01*
X229545Y467294D01*
X230343Y467894D01*
X231091Y468556D01*
X231783Y469276D01*
X232414Y470050D01*
X232982Y470872D01*
X233481Y471737D01*
X233909Y472639D01*
X234263Y473573D01*
X234541Y474532D01*
X234741Y475511D01*
X234861Y476502D01*
X234902Y477500D01*
X301402Y459079D02*
X301361Y460077D01*
X301241Y461068D01*
X301041Y462047D01*
X300763Y463006D01*
X300409Y463940D01*
X299981Y464842D01*
X299482Y465707D01*
X298914Y466529D01*
X298283Y467303D01*
X297591Y468023D01*
X296843Y468685D01*
X296045Y469285D01*
X295201Y469819D01*
X294317Y470283D01*
X293398Y470674D01*
X292450Y470991D01*
X291481Y471230D01*
X290495Y471390D01*
X289499Y471470D01*
X288501D01*
X287505Y471390D01*
X286519Y471230D01*
X285550Y470991D01*
X284602Y470674D01*
X283683Y470283D01*
X282799Y469819D01*
X281955Y469285D01*
X281157Y468685D01*
X280409Y468023D01*
X279717Y467303D01*
X279086Y466529D01*
X278518Y465707D01*
X278019Y464842D01*
X277591Y463940D01*
X277237Y463006D01*
X276959Y462047D01*
X276759Y461068D01*
X276639Y460077D01*
X276598Y459079D01*
X276639Y458081D01*
X276759Y457089D01*
X276959Y456111D01*
X277237Y455152D01*
X277591Y454218D01*
X278019Y453315D01*
X278518Y452451D01*
X279086Y451629D01*
X279717Y450855D01*
X280409Y450135D01*
X281157Y449472D01*
X281955Y448872D01*
X282799Y448339D01*
X283684Y447874D01*
X284602Y447483D01*
X285550Y447167D01*
X286519Y446928D01*
X287505Y446768D01*
X288501Y446687D01*
X289499D01*
X290495Y446768D01*
X291481Y446928D01*
X292450Y447167D01*
X293398Y447483D01*
X294317Y447874D01*
X295201Y448339D01*
X296045Y448873D01*
X296843Y449472D01*
X297591Y450135D01*
X298283Y450855D01*
X298914Y451629D01*
X299482Y452451D01*
X299981Y453315D01*
X300409Y454218D01*
X300763Y455152D01*
X301041Y456111D01*
X301241Y457089D01*
X301361Y458081D01*
X301402Y459079D01*
X303472Y262252D02*
Y291779D01*
X342843D01*
Y262252D02*
Y291779D01*
X303472Y262252D02*
X342843D01*
X263002Y339309D02*
Y356809D01*
X221998Y339309D02*
X263002D01*
X221998D02*
Y356809D01*
X263002D01*
X439232Y246882D02*
Y252000D01*
Y257118D01*
X412461D02*
X439232D01*
X412461Y252000D02*
Y257118D01*
Y246882D02*
Y252000D01*
Y246882D02*
X439232D01*
Y252000D02*
X443878D01*
X407815D02*
X412461D01*
X268500Y495996D02*
Y502886D01*
Y521114D02*
Y528004D01*
X263825Y502886D02*
Y521114D01*
X268500D01*
X273175D01*
Y502886D02*
Y521114D01*
X268500Y502886D02*
X273175D01*
X263825D02*
X268500D01*
X264000Y506000D02*
X273000D01*
X238256Y493748D02*
X256760D01*
X238256Y452252D02*
Y493748D01*
Y452252D02*
X256760D01*
Y493748D01*
X193626Y188921D02*
X209374D01*
X193626Y179079D02*
X209374D01*
Y187524D02*
Y188921D01*
X193626Y187524D02*
Y188921D01*
X209374Y179079D02*
Y180476D01*
X193626Y179079D02*
Y180476D01*
X386626Y241921D02*
X402374D01*
X386626Y232079D02*
X402374D01*
Y240524D02*
Y241921D01*
X386626Y240524D02*
Y241921D01*
X402374Y232079D02*
Y233476D01*
X386626Y232079D02*
Y233476D01*
X411941Y205870D02*
Y221618D01*
X392059Y205870D02*
Y221618D01*
X221831Y308712D02*
X263169D01*
Y326783D01*
X221831D02*
X263169D01*
X221831Y308712D02*
Y326783D01*
X185016Y507354D02*
X206984D01*
X185016Y540819D02*
X206984D01*
X185016Y507354D02*
Y540819D01*
X206984Y507354D02*
Y540819D01*
X160512Y507354D02*
X182480D01*
X160512Y540819D02*
X182480D01*
X160512Y507354D02*
Y540819D01*
X182480Y507354D02*
Y540819D01*
X134764Y507354D02*
X156732D01*
X134764Y540819D02*
X156732D01*
X134764Y507354D02*
Y540819D01*
X156732Y507354D02*
Y540819D01*
X148732Y278882D02*
Y284000D01*
Y289118D01*
X121961D02*
X148732D01*
X121961Y284000D02*
Y289118D01*
Y278882D02*
Y284000D01*
Y278882D02*
X148732D01*
Y284000D02*
X153378D01*
X117315D02*
X121961D01*
X161002Y339309D02*
Y356809D01*
X119998Y339309D02*
X161002D01*
X119998D02*
Y356809D01*
X161002D01*
X167126Y284326D02*
X182874D01*
X167126Y294169D02*
X182874D01*
X167126Y284326D02*
Y285724D01*
X182874Y284326D02*
Y285724D01*
X167126Y292771D02*
Y294169D01*
X182874Y292771D02*
Y294169D01*
X144268Y297248D02*
X151157D01*
X119150D02*
X126039D01*
Y292572D02*
X144268D01*
X126039D02*
Y297248D01*
Y301923D01*
X144268D01*
Y297248D02*
Y301923D01*
Y292572D02*
Y297248D01*
X141154Y292748D02*
Y301748D01*
X119831Y308712D02*
X161169D01*
Y326783D01*
X119831D02*
X161169D01*
X119831Y308712D02*
Y326783D01*
X147236Y428484D02*
X153311D01*
X147236D02*
Y456516D01*
X153311D01*
X220689D02*
X226764D01*
Y428484D02*
Y456516D01*
X220689Y428484D02*
X226764D01*
X126000Y397634D02*
X131118D01*
X120882D02*
X126000D01*
X120882Y370862D02*
Y397634D01*
Y370862D02*
X126000D01*
X131118D01*
Y397634D01*
X126000D02*
Y402279D01*
Y366216D02*
Y370862D01*
X140152Y397634D02*
X145270D01*
X135034D02*
X140152D01*
X135034Y370862D02*
Y397634D01*
Y370862D02*
X140152D01*
X145270D01*
Y397634D01*
X140152D02*
Y402279D01*
Y366216D02*
Y370862D01*
X154500Y368992D02*
Y374110D01*
Y394582D02*
Y399700D01*
Y374110D02*
X159815D01*
X149185D02*
X154500D01*
X149185Y394582D02*
X154500D01*
X159815D01*
X149185Y391334D02*
X159815D01*
X149185Y374110D02*
Y391334D01*
Y394582D01*
X159815Y391334D02*
Y394582D01*
Y374110D02*
Y391334D01*
X257500Y368992D02*
Y374110D01*
Y394582D02*
Y399700D01*
Y374110D02*
X262815D01*
X252185D02*
X257500D01*
X252185Y394582D02*
X257500D01*
X262815D01*
X252185Y391334D02*
X262815D01*
X252185Y374110D02*
Y391334D01*
Y394582D01*
X262815Y391334D02*
Y394582D01*
Y374110D02*
Y391334D01*
X229000Y397634D02*
X234118D01*
X223882D02*
X229000D01*
X223882Y370862D02*
Y397634D01*
Y370862D02*
X229000D01*
X234118D01*
Y397634D01*
X229000D02*
Y402279D01*
Y366216D02*
Y370862D01*
X243152Y397634D02*
X248270D01*
X238034D02*
X243152D01*
X238034Y370862D02*
Y397634D01*
Y370862D02*
X243152D01*
X248270D01*
Y397634D01*
X243152D02*
Y402279D01*
Y366216D02*
Y370862D01*
X255886Y276130D02*
Y281248D01*
Y286366D01*
X229114D02*
X255886D01*
X229114Y281248D02*
Y286366D01*
Y276130D02*
Y281248D01*
Y276130D02*
X255886D01*
Y281248D02*
X260531D01*
X224468D02*
X229114D01*
X251614Y297248D02*
X258504D01*
X226496D02*
X233386D01*
Y292572D02*
X251614D01*
X233386D02*
Y297248D01*
Y301923D01*
X251614D01*
Y297248D02*
Y301923D01*
Y292572D02*
Y297248D01*
X248500Y292748D02*
Y301748D01*
X274626Y284079D02*
X290374D01*
X274626Y293921D02*
X290374D01*
X274626Y284079D02*
Y285476D01*
X290374Y284079D02*
Y285476D01*
X274626Y292524D02*
Y293921D01*
X290374Y292524D02*
Y293921D01*
X109258Y428996D02*
Y435886D01*
Y454114D02*
Y461004D01*
X104583Y435886D02*
Y454114D01*
X109258D01*
X113933D01*
Y435886D02*
Y454114D01*
X109258Y435886D02*
X113933D01*
X104583D02*
X109258D01*
X104758Y439000D02*
X113758D01*
X117140Y431114D02*
X122258D01*
X127376D01*
Y457886D01*
X122258D02*
X127376D01*
X117140D02*
X122258D01*
X117140Y431114D02*
Y457886D01*
X122258Y426469D02*
Y431114D01*
Y457886D02*
Y462532D01*
X135258Y428996D02*
Y435886D01*
Y454114D02*
Y461004D01*
X130583Y435886D02*
Y454114D01*
X135258D01*
X139933D01*
Y435886D02*
Y454114D01*
X135258Y435886D02*
X139933D01*
X130583D02*
X135258D01*
X130758Y439000D02*
X139758D01*
X148126Y473421D02*
X163874D01*
X148126Y463579D02*
X163874D01*
Y472024D02*
Y473421D01*
X148126Y472024D02*
Y473421D01*
X163874Y463579D02*
Y464976D01*
X148126Y463579D02*
Y464976D01*
X268500Y467614D02*
Y474504D01*
Y442496D02*
Y449386D01*
X273175D02*
Y467614D01*
X268500Y449386D02*
X273175D01*
X263825D02*
X268500D01*
X263825D02*
Y467614D01*
X268500D01*
X273175D01*
X264000Y464500D02*
X273000D01*
X287315Y489252D02*
X326685D01*
X287315D02*
Y518780D01*
X326685D01*
Y489252D02*
Y518780D01*
X152114Y251000D02*
Y256118D01*
Y245882D02*
Y251000D01*
Y245882D02*
X178886D01*
Y251000D01*
Y256118D01*
X152114D02*
X178886D01*
X147468Y251000D02*
X152114D01*
X178886D02*
X183531D01*
X189059Y198626D02*
Y214374D01*
X208941Y198626D02*
Y214374D01*
D13*
X125000Y239468D02*
X127624D01*
X126312Y240780D02*
Y238156D01*
X131560Y237500D02*
X128936D01*
X131560Y240124D01*
Y240780D01*
X130904Y241436D01*
X129592D01*
X128936Y240780D01*
X134839Y237500D02*
Y241436D01*
X132871Y239468D01*
X135495D01*
X136807Y241436D02*
Y238812D01*
X138119Y237500D01*
X139431Y238812D01*
Y241436D01*
X134624Y164780D02*
X133968Y165436D01*
X132656D01*
X132000Y164780D01*
Y162156D01*
X132656Y161500D01*
X133968D01*
X134624Y162156D01*
Y163468D01*
X133312D01*
X135936Y161500D02*
Y165436D01*
X138560Y161500D01*
Y165436D01*
X139872D02*
Y161500D01*
X141839D01*
X142495Y162156D01*
Y164780D01*
X141839Y165436D01*
X139872D01*
X453124Y160280D02*
X452468Y160936D01*
X451156D01*
X450500Y160280D01*
Y157656D01*
X451156Y157000D01*
X452468D01*
X453124Y157656D01*
Y158968D01*
X451812D01*
X454436Y157000D02*
Y160936D01*
X457060Y157000D01*
Y160936D01*
X458371D02*
Y157000D01*
X460339D01*
X460995Y157656D01*
Y160280D01*
X460339Y160936D01*
X458371D01*
X437500Y242468D02*
X440124D01*
X438812Y243780D02*
Y241156D01*
X441436Y240500D02*
X442748D01*
X442092D01*
Y244436D01*
X441436Y243780D01*
X447339Y240500D02*
X444715D01*
X447339Y243124D01*
Y243780D01*
X446683Y244436D01*
X445371D01*
X444715Y243780D01*
X448651Y244436D02*
Y241812D01*
X449963Y240500D01*
X451275Y241812D01*
Y244436D01*
X117000Y206248D02*
Y202312D01*
X118968D01*
X119624Y202968D01*
Y203624D01*
X118968Y204280D01*
X117000D01*
X118968D01*
X119624Y204936D01*
Y205592D01*
X118968Y206248D01*
X117000D01*
X121592Y202312D02*
X122904D01*
X123560Y202968D01*
Y204280D01*
X122904Y204936D01*
X121592D01*
X120936Y204280D01*
Y202968D01*
X121592Y202312D01*
X125527D02*
X126839D01*
X127495Y202968D01*
Y204280D01*
X126839Y204936D01*
X125527D01*
X124872Y204280D01*
Y202968D01*
X125527Y202312D01*
X128807D02*
X130775D01*
X131431Y202968D01*
X130775Y203624D01*
X129463D01*
X128807Y204280D01*
X129463Y204936D01*
X131431D01*
X133399Y205592D02*
Y204936D01*
X132743D01*
X134055D01*
X133399D01*
Y202968D01*
X134055Y202312D01*
X141926Y206248D02*
X140614D01*
X139959Y205592D01*
Y202968D01*
X140614Y202312D01*
X141926D01*
X142582Y202968D01*
Y205592D01*
X141926Y206248D01*
X143894Y204936D02*
Y202968D01*
X144550Y202312D01*
X146518D01*
Y204936D01*
X148486Y205592D02*
Y204936D01*
X147830D01*
X149142D01*
X148486D01*
Y202968D01*
X149142Y202312D01*
X151110Y201000D02*
Y204936D01*
X153078D01*
X153734Y204280D01*
Y202968D01*
X153078Y202312D01*
X151110D01*
X155045Y204936D02*
Y202968D01*
X155701Y202312D01*
X157669D01*
Y204936D01*
X159637Y205592D02*
Y204936D01*
X158981D01*
X160293D01*
X159637D01*
Y202968D01*
X160293Y202312D01*
X436500Y206248D02*
Y202312D01*
X438468D01*
X439124Y202968D01*
Y203624D01*
X438468Y204280D01*
X436500D01*
X438468D01*
X439124Y204936D01*
Y205592D01*
X438468Y206248D01*
X436500D01*
X441092Y204936D02*
X442404D01*
X443060Y204280D01*
Y202312D01*
X441092D01*
X440436Y202968D01*
X441092Y203624D01*
X443060D01*
X445027Y205592D02*
Y204936D01*
X444372D01*
X445683D01*
X445027D01*
Y202968D01*
X445683Y202312D01*
X448307Y205592D02*
Y204936D01*
X447651D01*
X448963D01*
X448307D01*
Y202968D01*
X448963Y202312D01*
X452899D02*
X451587D01*
X450931Y202968D01*
Y204280D01*
X451587Y204936D01*
X452899D01*
X453555Y204280D01*
Y203624D01*
X450931D01*
X454867Y204936D02*
Y202312D01*
Y203624D01*
X455523Y204280D01*
X456179Y204936D01*
X456835D01*
X458803D02*
Y202968D01*
X459458Y202312D01*
X461426D01*
Y201656D01*
X460770Y201000D01*
X460114D01*
X461426Y202312D02*
Y204936D01*
X466674Y206248D02*
X467986D01*
X467330D01*
Y202312D01*
X466674D01*
X467986D01*
X469954D02*
Y206248D01*
X472578Y202312D01*
Y206248D01*
X324064Y308124D02*
Y305500D01*
X326032D01*
Y306812D01*
Y305500D01*
X328000D01*
Y309436D02*
X325376D01*
X324064Y310748D01*
X325376Y312060D01*
X328000D01*
X326032D01*
Y309436D01*
X328000Y313371D02*
X324064D01*
X328000Y315995D01*
X324064D01*
X328000Y323867D02*
Y321243D01*
X325376Y323867D01*
X324720D01*
X324064Y323211D01*
Y321899D01*
X324720Y321243D01*
X337124Y496936D02*
X334500D01*
Y494968D01*
X335812D01*
X334500D01*
Y493000D01*
X338436D02*
Y495624D01*
X339748Y496936D01*
X341060Y495624D01*
Y493000D01*
Y494968D01*
X338436D01*
X342372Y493000D02*
Y496936D01*
X344995Y493000D01*
Y496936D01*
X350243Y493000D02*
X351555D01*
X350899D01*
Y496936D01*
X350243Y496280D01*
X383220Y227468D02*
Y224188D01*
X383876Y223532D01*
X385188D01*
X385844Y224188D01*
Y227468D01*
X387156Y226812D02*
X387812Y227468D01*
X389124D01*
X389780Y226812D01*
Y226156D01*
X389124Y225500D01*
X388468D01*
X389124D01*
X389780Y224844D01*
Y224188D01*
X389124Y223532D01*
X387812D01*
X387156Y224188D01*
X189100Y231736D02*
Y228456D01*
X189756Y227800D01*
X191068D01*
X191724Y228456D01*
Y231736D01*
X195660Y227800D02*
X193036D01*
X195660Y230424D01*
Y231080D01*
X195004Y231736D01*
X193692D01*
X193036Y231080D01*
X190376Y466468D02*
Y463188D01*
X191032Y462532D01*
X192344D01*
X193000Y463188D01*
Y466468D01*
X194312Y462532D02*
X195624D01*
X194968D01*
Y466468D01*
X194312Y465812D01*
X141400Y260200D02*
Y264136D01*
X143368D01*
X144024Y263480D01*
Y262168D01*
X143368Y261512D01*
X141400D01*
X142712D02*
X144024Y260200D01*
X145336Y260856D02*
X145992Y260200D01*
X147304D01*
X147960Y260856D01*
Y263480D01*
X147304Y264136D01*
X145992D01*
X145336Y263480D01*
Y262824D01*
X145992Y262168D01*
X147960D01*
X404220Y257032D02*
Y260968D01*
X406188D01*
X406844Y260312D01*
Y259000D01*
X406188Y258344D01*
X404220D01*
X405532D02*
X406844Y257032D01*
X408156Y260312D02*
X408812Y260968D01*
X410124D01*
X410780Y260312D01*
Y259656D01*
X410124Y259000D01*
X410780Y258344D01*
Y257688D01*
X410124Y257032D01*
X408812D01*
X408156Y257688D01*
Y258344D01*
X408812Y259000D01*
X408156Y259656D01*
Y260312D01*
X408812Y259000D02*
X410124D01*
X236968Y399720D02*
X233032D01*
Y401688D01*
X233688Y402344D01*
X235000D01*
X235656Y401688D01*
Y399720D01*
Y401032D02*
X236968Y402344D01*
X233032Y403656D02*
Y406280D01*
X233688D01*
X236312Y403656D01*
X236968D01*
X251468Y399720D02*
X247532D01*
Y401688D01*
X248188Y402344D01*
X249500D01*
X250156Y401688D01*
Y399720D01*
Y401032D02*
X251468Y402344D01*
X247532Y406280D02*
X248188Y404968D01*
X249500Y403656D01*
X250812D01*
X251468Y404312D01*
Y405624D01*
X250812Y406280D01*
X250156D01*
X249500Y405624D01*
Y403656D01*
X211532Y284527D02*
X215468D01*
Y282559D01*
X214812Y281904D01*
X213500D01*
X212844Y282559D01*
Y284527D01*
Y283215D02*
X211532Y281904D01*
X215468Y277968D02*
Y280592D01*
X213500D01*
X214156Y279280D01*
Y278624D01*
X213500Y277968D01*
X212188D01*
X211532Y278624D01*
Y279936D01*
X212188Y280592D01*
X130032Y408527D02*
X133968D01*
Y406560D01*
X133312Y405904D01*
X132000D01*
X131344Y406560D01*
Y408527D01*
Y407215D02*
X130032Y405904D01*
Y402624D02*
X133968D01*
X132000Y404592D01*
Y401968D01*
X144532Y407871D02*
X148468D01*
Y405904D01*
X147812Y405248D01*
X146500D01*
X145844Y405904D01*
Y407871D01*
Y406560D02*
X144532Y405248D01*
X147812Y403936D02*
X148468Y403280D01*
Y401968D01*
X147812Y401312D01*
X147156D01*
X146500Y401968D01*
Y402624D01*
Y401968D01*
X145844Y401312D01*
X145188D01*
X144532Y401968D01*
Y403280D01*
X145188Y403936D01*
X104725Y287280D02*
X108661D01*
Y285312D01*
X108005Y284656D01*
X106693D01*
X106037Y285312D01*
Y287280D01*
Y285968D02*
X104725Y284656D01*
Y280720D02*
Y283344D01*
X107349Y280720D01*
X108005D01*
X108661Y281376D01*
Y282688D01*
X108005Y283344D01*
X120134Y471032D02*
Y474968D01*
X122102D01*
X122758Y474312D01*
Y473000D01*
X122102Y472344D01*
X120134D01*
X121446D02*
X122758Y471032D01*
X124070D02*
X125382D01*
X124726D01*
Y474968D01*
X124070Y474312D01*
X218812Y342844D02*
X216188D01*
X215532Y342188D01*
Y340876D01*
X216188Y340220D01*
X218812D01*
X219468Y340876D01*
Y342188D01*
X218156Y341532D02*
X219468Y342844D01*
Y342188D02*
X218812Y342844D01*
X216188Y344156D02*
X215532Y344812D01*
Y346124D01*
X216188Y346780D01*
X216844D01*
X217500Y346124D01*
Y345468D01*
Y346124D01*
X218156Y346780D01*
X218812D01*
X219468Y346124D01*
Y344812D01*
X218812Y344156D01*
X117312Y342844D02*
X114688D01*
X114032Y342188D01*
Y340876D01*
X114688Y340220D01*
X117312D01*
X117968Y340876D01*
Y342188D01*
X116656Y341532D02*
X117968Y342844D01*
Y342188D02*
X117312Y342844D01*
X117968Y346780D02*
Y344156D01*
X115344Y346780D01*
X114688D01*
X114032Y346124D01*
Y344812D01*
X114688Y344156D01*
X233188Y457000D02*
X235812D01*
X236468Y457656D01*
Y458968D01*
X235812Y459624D01*
X233188D01*
X232532Y458968D01*
Y457656D01*
X233844Y458312D02*
X232532Y457000D01*
Y457656D02*
X233188Y457000D01*
X232532Y455688D02*
Y454376D01*
Y455032D01*
X236468D01*
X235812Y455688D01*
X349032Y355220D02*
X352968D01*
Y357844D01*
X349032Y361780D02*
Y359156D01*
X351000D01*
X350344Y360468D01*
Y361124D01*
X351000Y361780D01*
X352312D01*
X352968Y361124D01*
Y359812D01*
X352312Y359156D01*
X400532Y354220D02*
X404468D01*
Y356844D01*
Y360124D02*
X400532D01*
X402500Y358156D01*
Y360780D01*
X451625Y375780D02*
X447690D01*
Y373156D01*
X450969Y371844D02*
X451625Y371188D01*
Y369876D01*
X450969Y369220D01*
X450314D01*
X449657Y369876D01*
Y370532D01*
Y369876D01*
X449002Y369220D01*
X448346D01*
X447690Y369876D01*
Y371188D01*
X448346Y371844D01*
X400625Y376280D02*
X396690D01*
Y373656D01*
Y369720D02*
Y372344D01*
X399313Y369720D01*
X399969D01*
X400625Y370376D01*
Y371688D01*
X399969Y372344D01*
X368124Y448162D02*
Y452098D01*
X365500D01*
X364188D02*
X362876D01*
X363532D01*
Y448162D01*
X364188Y448818D01*
X346844Y269468D02*
X345532D01*
X346188D01*
Y266188D01*
X345532Y265532D01*
X344876D01*
X344220Y266188D01*
X350780Y265532D02*
X348156D01*
X350780Y268156D01*
Y268812D01*
X350124Y269468D01*
X348812D01*
X348156Y268812D01*
X171344Y485968D02*
X170032D01*
X170688D01*
Y482688D01*
X170032Y482032D01*
X169376D01*
X168720Y482688D01*
X175280Y485968D02*
X173968Y485312D01*
X172656Y484000D01*
Y482688D01*
X173312Y482032D01*
X174624D01*
X175280Y482688D01*
Y483344D01*
X174624Y484000D01*
X172656D01*
X135844Y485968D02*
X134532D01*
X135188D01*
Y482688D01*
X134532Y482032D01*
X133876D01*
X133220Y482688D01*
X139780Y485968D02*
X137156D01*
Y484000D01*
X138468Y484656D01*
X139124D01*
X139780Y484000D01*
Y482688D01*
X139124Y482032D01*
X137812D01*
X137156Y482688D01*
X287776Y529636D02*
X289088D01*
X288432D01*
Y526356D01*
X289088Y525700D01*
X289744D01*
X290400Y526356D01*
X286464Y525700D02*
X285152D01*
X285808D01*
Y529636D01*
X286464Y528980D01*
X195344Y485968D02*
X194032D01*
X194688D01*
Y482688D01*
X194032Y482032D01*
X193376D01*
X192720Y482688D01*
X198624Y482032D02*
Y485968D01*
X196656Y484000D01*
X199280D01*
X117800Y266736D02*
Y262800D01*
X119768D01*
X120424Y263456D01*
Y266080D01*
X119768Y266736D01*
X117800D01*
X124360Y266080D02*
X123704Y266736D01*
X122392D01*
X121736Y266080D01*
Y265424D01*
X122392Y264768D01*
X123704D01*
X124360Y264112D01*
Y263456D01*
X123704Y262800D01*
X122392D01*
X121736Y263456D01*
X128295Y262800D02*
X125672D01*
X128295Y265424D01*
Y266080D01*
X127639Y266736D01*
X126327D01*
X125672Y266080D01*
X458908Y266468D02*
Y262532D01*
X460876D01*
X461532Y263188D01*
Y265812D01*
X460876Y266468D01*
X458908D01*
X465468Y265812D02*
X464812Y266468D01*
X463500D01*
X462844Y265812D01*
Y265156D01*
X463500Y264500D01*
X464812D01*
X465468Y263844D01*
Y263188D01*
X464812Y262532D01*
X463500D01*
X462844Y263188D01*
X466780Y262532D02*
X468092D01*
X467436D01*
Y266468D01*
X466780Y265812D01*
X208580Y323468D02*
Y319532D01*
X210548D01*
X211204Y320188D01*
Y322812D01*
X210548Y323468D01*
X208580D01*
X212516Y319532D02*
X213828D01*
X213172D01*
Y323468D01*
X212516Y322812D01*
X215796D02*
X216452Y323468D01*
X217764D01*
X218420Y322812D01*
Y320188D01*
X217764Y319532D01*
X216452D01*
X215796Y320188D01*
Y322812D01*
X215968Y300027D02*
X212032D01*
Y298060D01*
X212688Y297404D01*
X215312D01*
X215968Y298060D01*
Y300027D01*
X212688Y296092D02*
X212032Y295436D01*
Y294124D01*
X212688Y293468D01*
X215312D01*
X215968Y294124D01*
Y295436D01*
X215312Y296092D01*
X214656D01*
X214000Y295436D01*
Y293468D01*
X256032Y410720D02*
X259968D01*
Y412688D01*
X259312Y413344D01*
X256688D01*
X256032Y412688D01*
Y410720D01*
X256688Y414656D02*
X256032Y415312D01*
Y416624D01*
X256688Y417280D01*
X257344D01*
X258000Y416624D01*
X258656Y417280D01*
X259312D01*
X259968Y416624D01*
Y415312D01*
X259312Y414656D01*
X258656D01*
X258000Y415312D01*
X257344Y414656D01*
X256688D01*
X258000Y415312D02*
Y416624D01*
X152032Y411720D02*
X155968D01*
Y413688D01*
X155312Y414344D01*
X152688D01*
X152032Y413688D01*
Y411720D01*
Y415656D02*
Y418280D01*
X152688D01*
X155312Y415656D01*
X155968D01*
X168220Y311968D02*
Y308032D01*
X170188D01*
X170844Y308688D01*
Y311312D01*
X170188Y311968D01*
X168220D01*
X174780D02*
X173468Y311312D01*
X172156Y310000D01*
Y308688D01*
X172812Y308032D01*
X174124D01*
X174780Y308688D01*
Y309344D01*
X174124Y310000D01*
X172156D01*
X108468Y299527D02*
X104532D01*
Y297559D01*
X105188Y296904D01*
X107812D01*
X108468Y297559D01*
Y299527D01*
Y292968D02*
Y295592D01*
X106500D01*
X107156Y294280D01*
Y293624D01*
X106500Y292968D01*
X105188D01*
X104532Y293624D01*
Y294936D01*
X105188Y295592D01*
X132978Y474968D02*
Y471032D01*
X134946D01*
X135602Y471688D01*
Y474312D01*
X134946Y474968D01*
X132978D01*
X136914Y474312D02*
X137570Y474968D01*
X138882D01*
X139538Y474312D01*
Y473656D01*
X138882Y473000D01*
X138226D01*
X138882D01*
X139538Y472344D01*
Y471688D01*
X138882Y471032D01*
X137570D01*
X136914Y471688D01*
X277968Y500280D02*
X274032D01*
Y498312D01*
X274688Y497656D01*
X277312D01*
X277968Y498312D01*
Y500280D01*
X274032Y494376D02*
X277968D01*
X276000Y496344D01*
Y493720D01*
X107134Y474968D02*
Y471032D01*
X109102D01*
X109758Y471688D01*
Y474312D01*
X109102Y474968D01*
X107134D01*
X111070Y471032D02*
X112382D01*
X111726D01*
Y474968D01*
X111070Y474312D01*
X263700Y493636D02*
Y489700D01*
X265668D01*
X266324Y490356D01*
Y492980D01*
X265668Y493636D01*
X263700D01*
X270260Y489700D02*
X267636D01*
X270260Y492324D01*
Y492980D01*
X269604Y493636D01*
X268292D01*
X267636Y492980D01*
X236524Y246580D02*
X235868Y247236D01*
X234556D01*
X233900Y246580D01*
Y243956D01*
X234556Y243300D01*
X235868D01*
X236524Y243956D01*
X237836D02*
X238492Y243300D01*
X239804D01*
X240460Y243956D01*
Y246580D01*
X239804Y247236D01*
X238492D01*
X237836Y246580D01*
Y245924D01*
X238492Y245268D01*
X240460D01*
X308735Y171452D02*
X309391Y170796D01*
X310703D01*
X311358Y171452D01*
Y174076D01*
X310703Y174732D01*
X309391D01*
X308735Y174076D01*
X307423Y171452D02*
X306767Y170796D01*
X305455D01*
X304799Y171452D01*
Y172108D01*
X305455Y172764D01*
X304799Y173420D01*
Y174076D01*
X305455Y174732D01*
X306767D01*
X307423Y174076D01*
Y173420D01*
X306767Y172764D01*
X307423Y172108D01*
Y171452D01*
X306767Y172764D02*
X305455D01*
X301312Y290640D02*
X301968Y291296D01*
Y292608D01*
X301312Y293264D01*
X298688D01*
X298032Y292608D01*
Y291296D01*
X298688Y290640D01*
X298032Y289328D02*
Y288016D01*
Y288672D01*
X301968D01*
X301312Y289328D01*
X298032Y286048D02*
Y284736D01*
Y285392D01*
X301968D01*
X301312Y286048D01*
X412812Y238796D02*
X413468Y239452D01*
Y240764D01*
X412812Y241420D01*
X410188D01*
X409532Y240764D01*
Y239452D01*
X410188Y238796D01*
X409532Y237484D02*
Y236172D01*
Y236828D01*
X413468D01*
X412812Y237484D01*
Y234204D02*
X413468Y233548D01*
Y232236D01*
X412812Y231580D01*
X410188D01*
X409532Y232236D01*
Y233548D01*
X410188Y234204D01*
X412812D01*
X192812Y289904D02*
X193468Y290560D01*
Y291872D01*
X192812Y292527D01*
X190188D01*
X189532Y291872D01*
Y290560D01*
X190188Y289904D01*
X193468Y288592D02*
Y285968D01*
X192812D01*
X190188Y288592D01*
X189532D01*
X200344Y175812D02*
X199688Y176468D01*
X198376D01*
X197720Y175812D01*
Y173188D01*
X198376Y172532D01*
X199688D01*
X200344Y173188D01*
X204280Y176468D02*
X202968Y175812D01*
X201656Y174500D01*
Y173188D01*
X202312Y172532D01*
X203624D01*
X204280Y173188D01*
Y173844D01*
X203624Y174500D01*
X201656D01*
X154344Y478812D02*
X153688Y479468D01*
X152376D01*
X151720Y478812D01*
Y476188D01*
X152376Y475532D01*
X153688D01*
X154344Y476188D01*
X157624Y475532D02*
Y479468D01*
X155656Y477500D01*
X158280D01*
X279124Y481480D02*
X278468Y482136D01*
X277156D01*
X276500Y481480D01*
Y478856D01*
X277156Y478200D01*
X278468D01*
X279124Y478856D01*
X283060Y482136D02*
X280436D01*
Y480168D01*
X281748Y480824D01*
X282404D01*
X283060Y480168D01*
Y478856D01*
X282404Y478200D01*
X281092D01*
X280436Y478856D01*
X261344Y428812D02*
X260688Y429468D01*
X259376D01*
X258720Y428812D01*
Y426188D01*
X259376Y425532D01*
X260688D01*
X261344Y426188D01*
X262656Y428812D02*
X263312Y429468D01*
X264624D01*
X265280Y428812D01*
Y428156D01*
X264624Y427500D01*
X263968D01*
X264624D01*
X265280Y426844D01*
Y426188D01*
X264624Y425532D01*
X263312D01*
X262656Y426188D01*
X230812Y505156D02*
X231468Y505812D01*
Y507124D01*
X230812Y507780D01*
X228188D01*
X227532Y507124D01*
Y505812D01*
X228188Y505156D01*
X227532Y501220D02*
Y503844D01*
X230156Y501220D01*
X230812D01*
X231468Y501876D01*
Y503188D01*
X230812Y503844D01*
X214000Y492267D02*
X214656Y491611D01*
X215968D01*
X216624Y492267D01*
Y494891D01*
X215968Y495547D01*
X214656D01*
X214000Y494891D01*
X212688Y495547D02*
X211376D01*
X212032D01*
Y491611D01*
X212688Y492267D01*
M02*
