G04*
G04 #@! TF.GenerationSoftware,Altium Limited,Altium Designer,23.8.1 (32)*
G04*
G04 Layer_Color=16711935*
%FSLAX25Y25*%
%MOIN*%
G70*
G04*
G04 #@! TF.SameCoordinates,3D9757B1-BBEF-420C-9893-903EB812625C*
G04*
G04*
G04 #@! TF.FilePolarity,Positive*
G04*
G01*
G75*
%ADD11C,0.00787*%
%ADD12C,0.00500*%
%ADD73C,0.00394*%
D11*
X345598Y278000D02*
X344811D01*
X345598D01*
X266348Y351248D02*
X265561D01*
X266348D01*
X260669Y438000D02*
X259882D01*
X260669D01*
X268894Y484539D02*
X268106D01*
X268894D01*
X235894Y483000D02*
X235106D01*
X235894D01*
X260669Y510000D02*
X259882D01*
X260669D01*
X392531Y196244D02*
X391744D01*
X392531D01*
X219282Y315964D02*
X218494D01*
X219282D01*
X332394Y173551D02*
X331606D01*
X332394D01*
X265894Y173287D02*
X265106D01*
X265894D01*
X164348Y351248D02*
X163561D01*
X164348D01*
X163008Y297248D02*
X162221D01*
X163008D01*
X117281Y315964D02*
X116494D01*
X117281D01*
X157079Y421240D02*
X156291D01*
X157079D01*
X270354Y297248D02*
X269567D01*
X270354D01*
X109652Y417539D02*
X108864D01*
X109652D01*
X135652D02*
X134864D01*
X135652D01*
X222894Y462146D02*
X222106D01*
X222894D01*
X268894Y485961D02*
X268106D01*
X268894D01*
X289394Y474433D02*
X288606D01*
X289394D01*
X285347Y505000D02*
X284559D01*
X285347D01*
X209256Y224000D02*
X208469D01*
X209256D01*
D12*
X257323Y438000D02*
X257283Y438998D01*
X257162Y439989D01*
X256962Y440968D01*
X256685Y441927D01*
X256330Y442861D01*
X255902Y443763D01*
X255403Y444628D01*
X254836Y445450D01*
X254204Y446224D01*
X253512Y446944D01*
X252765Y447606D01*
X251966Y448206D01*
X251122Y448740D01*
X250238Y449204D01*
X249319Y449596D01*
X248372Y449912D01*
X247402Y450151D01*
X246416Y450311D01*
X245421Y450391D01*
X244422D01*
X243426Y450311D01*
X242441Y450151D01*
X241471Y449912D01*
X240524Y449596D01*
X239605Y449204D01*
X238720Y448740D01*
X237876Y448206D01*
X237078Y447606D01*
X236330Y446944D01*
X235638Y446224D01*
X235007Y445450D01*
X234440Y444628D01*
X233940Y443763D01*
X233512Y442861D01*
X233158Y441927D01*
X232880Y440968D01*
X232680Y439989D01*
X232560Y438998D01*
X232520Y438000D01*
X232560Y437002D01*
X232680Y436011D01*
X232880Y435032D01*
X233158Y434073D01*
X233512Y433139D01*
X233940Y432237D01*
X234440Y431372D01*
X235007Y430550D01*
X235639Y429776D01*
X236330Y429056D01*
X237078Y428394D01*
X237876Y427794D01*
X238720Y427260D01*
X239605Y426796D01*
X240524Y426404D01*
X241471Y426088D01*
X242441Y425849D01*
X243426Y425689D01*
X244422Y425608D01*
X245421D01*
X246416Y425689D01*
X247402Y425849D01*
X248372Y426088D01*
X249319Y426404D01*
X250238Y426796D01*
X251122Y427260D01*
X251966Y427794D01*
X252765Y428394D01*
X253512Y429056D01*
X254204Y429776D01*
X254836Y430550D01*
X255403Y431372D01*
X255902Y432237D01*
X256330Y433139D01*
X256685Y434073D01*
X256962Y435032D01*
X257162Y436011D01*
X257283Y437002D01*
X257323Y438000D01*
Y510000D02*
X257283Y510998D01*
X257162Y511989D01*
X256962Y512968D01*
X256685Y513927D01*
X256330Y514861D01*
X255902Y515763D01*
X255403Y516628D01*
X254836Y517450D01*
X254204Y518224D01*
X253512Y518944D01*
X252765Y519606D01*
X251966Y520206D01*
X251122Y520740D01*
X250238Y521204D01*
X249319Y521596D01*
X248372Y521912D01*
X247402Y522151D01*
X246416Y522311D01*
X245421Y522392D01*
X244422D01*
X243426Y522311D01*
X242441Y522151D01*
X241471Y521912D01*
X240524Y521596D01*
X239605Y521204D01*
X238720Y520740D01*
X237876Y520206D01*
X237078Y519606D01*
X236330Y518944D01*
X235638Y518224D01*
X235007Y517450D01*
X234440Y516628D01*
X233940Y515763D01*
X233512Y514861D01*
X233158Y513927D01*
X232880Y512968D01*
X232680Y511989D01*
X232560Y510998D01*
X232520Y510000D01*
X232560Y509002D01*
X232680Y508011D01*
X232880Y507032D01*
X233158Y506073D01*
X233512Y505139D01*
X233940Y504237D01*
X234440Y503372D01*
X235007Y502550D01*
X235639Y501776D01*
X236330Y501056D01*
X237078Y500394D01*
X237876Y499794D01*
X238720Y499260D01*
X239605Y498796D01*
X240524Y498404D01*
X241471Y498088D01*
X242441Y497849D01*
X243426Y497689D01*
X244422Y497609D01*
X245421D01*
X246416Y497689D01*
X247402Y497849D01*
X248372Y498088D01*
X249319Y498404D01*
X250238Y498796D01*
X251122Y499260D01*
X251966Y499794D01*
X252765Y500394D01*
X253512Y501056D01*
X254204Y501776D01*
X254836Y502550D01*
X255403Y503372D01*
X255902Y504237D01*
X256330Y505139D01*
X256685Y506073D01*
X256962Y507032D01*
X257162Y508011D01*
X257283Y509002D01*
X257323Y510000D01*
X363496Y208000D02*
X363480Y208999D01*
X363433Y209998D01*
X363353Y210994D01*
X363243Y211987D01*
X363100Y212976D01*
X362927Y213961D01*
X362722Y214939D01*
X362487Y215910D01*
X362220Y216874D01*
X361924Y217828D01*
X361597Y218772D01*
X361240Y219706D01*
X360854Y220628D01*
X360439Y221537D01*
X359995Y222432D01*
X359523Y223313D01*
X359023Y224179D01*
X358496Y225028D01*
X357943Y225860D01*
X357363Y226674D01*
X356758Y227470D01*
X356127Y228245D01*
X355473Y229001D01*
X354795Y229735D01*
X354094Y230447D01*
X353370Y231137D01*
X352625Y231803D01*
X351860Y232446D01*
X351074Y233063D01*
X350270Y233656D01*
X349446Y234223D01*
X348605Y234763D01*
X347748Y235276D01*
X346875Y235762D01*
X345986Y236220D01*
X345084Y236650D01*
X344168Y237051D01*
X343240Y237422D01*
X342301Y237764D01*
X341352Y238076D01*
X340393Y238357D01*
X339425Y238608D01*
X338451Y238828D01*
X337469Y239018D01*
X336482Y239176D01*
X335491Y239302D01*
X334496Y239397D01*
X333499Y239460D01*
X332500Y239492D01*
X331500D01*
X330501Y239460D01*
X329504Y239397D01*
X328509Y239302D01*
X327518Y239176D01*
X326531Y239018D01*
X325549Y238828D01*
X324574Y238608D01*
X323607Y238357D01*
X322648Y238076D01*
X321699Y237764D01*
X320760Y237422D01*
X319832Y237051D01*
X318916Y236650D01*
X318014Y236220D01*
X317125Y235762D01*
X316252Y235276D01*
X315394Y234763D01*
X314554Y234223D01*
X313731Y233656D01*
X312926Y233063D01*
X312140Y232446D01*
X311374Y231803D01*
X310630Y231137D01*
X309906Y230447D01*
X309205Y229735D01*
X308527Y229001D01*
X307873Y228245D01*
X307242Y227470D01*
X306637Y226674D01*
X306057Y225860D01*
X305504Y225028D01*
X304977Y224179D01*
X304477Y223313D01*
X304005Y222432D01*
X303561Y221537D01*
X303146Y220628D01*
X302760Y219706D01*
X302403Y218772D01*
X302077Y217828D01*
X301780Y216874D01*
X301513Y215910D01*
X301278Y214939D01*
X301073Y213961D01*
X300900Y212977D01*
X300757Y211987D01*
X300647Y210994D01*
X300567Y209998D01*
X300520Y208999D01*
X300504Y208000D01*
X300520Y207001D01*
X300567Y206002D01*
X300646Y205006D01*
X300757Y204013D01*
X300900Y203024D01*
X301073Y202039D01*
X301278Y201061D01*
X301513Y200090D01*
X301780Y199127D01*
X302077Y198172D01*
X302403Y197228D01*
X302760Y196294D01*
X303146Y195372D01*
X303561Y194463D01*
X304005Y193568D01*
X304477Y192687D01*
X304977Y191821D01*
X305504Y190972D01*
X306057Y190140D01*
X306637Y189326D01*
X307242Y188531D01*
X307873Y187755D01*
X308527Y186999D01*
X309205Y186265D01*
X309906Y185553D01*
X310630Y184863D01*
X311374Y184197D01*
X312140Y183554D01*
X312926Y182937D01*
X313730Y182344D01*
X314554Y181777D01*
X315394Y181237D01*
X316252Y180724D01*
X317125Y180238D01*
X318014Y179780D01*
X318916Y179350D01*
X319831Y178949D01*
X320759Y178578D01*
X321698Y178236D01*
X322648Y177924D01*
X323607Y177643D01*
X324574Y177392D01*
X325549Y177172D01*
X326531Y176982D01*
X327517Y176824D01*
X328509Y176698D01*
X329504Y176603D01*
X330501Y176540D01*
X331500Y176508D01*
X332500Y176508D01*
X333498Y176540D01*
X334496Y176603D01*
X335491Y176698D01*
X336482Y176824D01*
X337469Y176982D01*
X338450Y177172D01*
X339425Y177392D01*
X340393Y177643D01*
X341352Y177924D01*
X342301Y178236D01*
X343240Y178578D01*
X344168Y178949D01*
X345084Y179350D01*
X345986Y179780D01*
X346874Y180238D01*
X347748Y180724D01*
X348605Y181237D01*
X349446Y181777D01*
X350269Y182344D01*
X351074Y182937D01*
X351860Y183554D01*
X352625Y184197D01*
X353370Y184863D01*
X354094Y185553D01*
X354795Y186265D01*
X355473Y186999D01*
X356127Y187754D01*
X356757Y188530D01*
X357363Y189325D01*
X357942Y190140D01*
X358496Y190972D01*
X359023Y191821D01*
X359523Y192686D01*
X359995Y193567D01*
X360438Y194463D01*
X360854Y195372D01*
X361240Y196294D01*
X361596Y197227D01*
X361923Y198172D01*
X362220Y199126D01*
X362487Y200090D01*
X362722Y201061D01*
X362927Y202039D01*
X363100Y203023D01*
X363243Y204012D01*
X363353Y205006D01*
X363433Y206002D01*
X363480Y207000D01*
X363496Y208000D01*
X296996Y207736D02*
X296980Y208735D01*
X296933Y209734D01*
X296853Y210730D01*
X296743Y211723D01*
X296600Y212713D01*
X296427Y213697D01*
X296222Y214675D01*
X295987Y215646D01*
X295720Y216610D01*
X295424Y217564D01*
X295097Y218509D01*
X294740Y219442D01*
X294354Y220364D01*
X293939Y221273D01*
X293495Y222169D01*
X293023Y223049D01*
X292523Y223915D01*
X291996Y224764D01*
X291443Y225596D01*
X290863Y226411D01*
X290258Y227206D01*
X289627Y227981D01*
X288973Y228737D01*
X288295Y229471D01*
X287594Y230183D01*
X286870Y230873D01*
X286125Y231539D01*
X285360Y232182D01*
X284574Y232800D01*
X283769Y233392D01*
X282946Y233959D01*
X282105Y234499D01*
X281248Y235013D01*
X280375Y235498D01*
X279486Y235957D01*
X278584Y236386D01*
X277668Y236787D01*
X276741Y237158D01*
X275801Y237500D01*
X274852Y237812D01*
X273893Y238093D01*
X272925Y238345D01*
X271951Y238565D01*
X270969Y238754D01*
X269982Y238912D01*
X268991Y239038D01*
X267996Y239133D01*
X266999Y239197D01*
X266000Y239228D01*
X265000D01*
X264001Y239197D01*
X263004Y239133D01*
X262009Y239038D01*
X261018Y238912D01*
X260031Y238754D01*
X259049Y238565D01*
X258074Y238345D01*
X257107Y238093D01*
X256148Y237812D01*
X255199Y237500D01*
X254259Y237158D01*
X253332Y236787D01*
X252416Y236386D01*
X251514Y235957D01*
X250625Y235498D01*
X249752Y235013D01*
X248895Y234499D01*
X248054Y233959D01*
X247231Y233392D01*
X246426Y232800D01*
X245640Y232182D01*
X244875Y231539D01*
X244130Y230873D01*
X243406Y230183D01*
X242705Y229471D01*
X242027Y228737D01*
X241373Y227981D01*
X240742Y227206D01*
X240137Y226411D01*
X239557Y225596D01*
X239004Y224764D01*
X238477Y223915D01*
X237977Y223049D01*
X237505Y222169D01*
X237061Y221273D01*
X236646Y220364D01*
X236260Y219442D01*
X235903Y218509D01*
X235577Y217564D01*
X235280Y216610D01*
X235013Y215646D01*
X234778Y214675D01*
X234573Y213697D01*
X234400Y212713D01*
X234257Y211723D01*
X234147Y210730D01*
X234067Y209734D01*
X234020Y208736D01*
X234004Y207736D01*
X234020Y206737D01*
X234067Y205739D01*
X234146Y204742D01*
X234257Y203749D01*
X234400Y202760D01*
X234573Y201776D01*
X234778Y200797D01*
X235013Y199826D01*
X235280Y198863D01*
X235577Y197908D01*
X235903Y196964D01*
X236260Y196030D01*
X236646Y195109D01*
X237061Y194200D01*
X237505Y193304D01*
X237977Y192423D01*
X238477Y191558D01*
X239004Y190708D01*
X239557Y189876D01*
X240137Y189062D01*
X240742Y188267D01*
X241372Y187491D01*
X242027Y186736D01*
X242705Y186002D01*
X243406Y185289D01*
X244129Y184600D01*
X244874Y183933D01*
X245640Y183291D01*
X246426Y182673D01*
X247230Y182080D01*
X248054Y181514D01*
X248894Y180973D01*
X249752Y180460D01*
X250625Y179974D01*
X251514Y179516D01*
X252416Y179086D01*
X253331Y178686D01*
X254259Y178314D01*
X255199Y177972D01*
X256148Y177661D01*
X257107Y177379D01*
X258074Y177128D01*
X259049Y176908D01*
X260031Y176719D01*
X261017Y176561D01*
X262009Y176434D01*
X263004Y176339D01*
X264001Y176276D01*
X265000Y176244D01*
X266000Y176244D01*
X266998Y176276D01*
X267996Y176339D01*
X268991Y176434D01*
X269982Y176561D01*
X270969Y176719D01*
X271950Y176908D01*
X272925Y177128D01*
X273893Y177379D01*
X274852Y177661D01*
X275801Y177972D01*
X276740Y178314D01*
X277668Y178686D01*
X278584Y179086D01*
X279486Y179516D01*
X280374Y179974D01*
X281248Y180460D01*
X282105Y180973D01*
X282946Y181513D01*
X283769Y182080D01*
X284574Y182673D01*
X285360Y183291D01*
X286125Y183933D01*
X286870Y184599D01*
X287594Y185289D01*
X288295Y186001D01*
X288973Y186735D01*
X289627Y187491D01*
X290257Y188266D01*
X290863Y189062D01*
X291442Y189876D01*
X291996Y190708D01*
X292523Y191557D01*
X293023Y192423D01*
X293495Y193304D01*
X293938Y194199D01*
X294354Y195108D01*
X294740Y196030D01*
X295096Y196964D01*
X295423Y197908D01*
X295720Y198862D01*
X295987Y199826D01*
X296222Y200797D01*
X296427Y201775D01*
X296600Y202759D01*
X296743Y203749D01*
X296853Y204742D01*
X296933Y205738D01*
X296980Y206736D01*
X296996Y207736D01*
X234902Y477500D02*
X234861Y478498D01*
X234741Y479489D01*
X234541Y480468D01*
X234263Y481427D01*
X233909Y482361D01*
X233481Y483263D01*
X232982Y484128D01*
X232414Y484950D01*
X231783Y485724D01*
X231091Y486444D01*
X230343Y487106D01*
X229545Y487706D01*
X228701Y488240D01*
X227817Y488704D01*
X226898Y489096D01*
X225950Y489412D01*
X224981Y489651D01*
X223995Y489811D01*
X222999Y489891D01*
X222001D01*
X221005Y489811D01*
X220019Y489651D01*
X219050Y489412D01*
X218102Y489096D01*
X217183Y488704D01*
X216299Y488240D01*
X215455Y487706D01*
X214657Y487106D01*
X213909Y486444D01*
X213217Y485724D01*
X212586Y484950D01*
X212018Y484128D01*
X211519Y483263D01*
X211091Y482361D01*
X210737Y481427D01*
X210459Y480468D01*
X210259Y479489D01*
X210139Y478498D01*
X210098Y477500D01*
X210139Y476502D01*
X210259Y475511D01*
X210459Y474532D01*
X210737Y473573D01*
X211091Y472639D01*
X211519Y471737D01*
X212018Y470872D01*
X212586Y470050D01*
X213217Y469276D01*
X213909Y468556D01*
X214657Y467894D01*
X215455Y467294D01*
X216299Y466760D01*
X217184Y466296D01*
X218102Y465904D01*
X219050Y465588D01*
X220019Y465349D01*
X221005Y465189D01*
X222001Y465108D01*
X222999D01*
X223995Y465189D01*
X224981Y465349D01*
X225950Y465588D01*
X226898Y465904D01*
X227817Y466296D01*
X228701Y466760D01*
X229545Y467294D01*
X230343Y467894D01*
X231091Y468556D01*
X231783Y469276D01*
X232414Y470050D01*
X232982Y470872D01*
X233481Y471737D01*
X233909Y472639D01*
X234263Y473573D01*
X234541Y474532D01*
X234741Y475511D01*
X234861Y476502D01*
X234902Y477500D01*
X301402Y459079D02*
X301361Y460077D01*
X301241Y461068D01*
X301041Y462047D01*
X300763Y463006D01*
X300409Y463940D01*
X299981Y464842D01*
X299482Y465707D01*
X298914Y466529D01*
X298283Y467303D01*
X297591Y468023D01*
X296843Y468685D01*
X296045Y469285D01*
X295201Y469819D01*
X294317Y470283D01*
X293398Y470674D01*
X292450Y470991D01*
X291481Y471230D01*
X290495Y471390D01*
X289499Y471470D01*
X288501D01*
X287505Y471390D01*
X286519Y471230D01*
X285550Y470991D01*
X284602Y470674D01*
X283683Y470283D01*
X282799Y469819D01*
X281955Y469285D01*
X281157Y468685D01*
X280409Y468023D01*
X279717Y467303D01*
X279086Y466529D01*
X278518Y465707D01*
X278019Y464842D01*
X277591Y463940D01*
X277237Y463006D01*
X276959Y462047D01*
X276759Y461068D01*
X276639Y460077D01*
X276598Y459079D01*
X276639Y458081D01*
X276759Y457089D01*
X276959Y456111D01*
X277237Y455152D01*
X277591Y454218D01*
X278019Y453315D01*
X278518Y452451D01*
X279086Y451629D01*
X279717Y450855D01*
X280409Y450135D01*
X281157Y449472D01*
X281955Y448872D01*
X282799Y448339D01*
X283684Y447874D01*
X284602Y447483D01*
X285550Y447167D01*
X286519Y446928D01*
X287505Y446768D01*
X288501Y446687D01*
X289499D01*
X290495Y446768D01*
X291481Y446928D01*
X292450Y447167D01*
X293398Y447483D01*
X294317Y447874D01*
X295201Y448339D01*
X296045Y448873D01*
X296843Y449472D01*
X297591Y450135D01*
X298283Y450855D01*
X298914Y451629D01*
X299482Y452451D01*
X299981Y453315D01*
X300409Y454218D01*
X300763Y455152D01*
X301041Y456111D01*
X301241Y457089D01*
X301361Y458081D01*
X301402Y459079D01*
X342843Y262252D02*
Y291779D01*
X303472D02*
X342843D01*
X303472Y262252D02*
Y291779D01*
Y262252D02*
X342843D01*
X263002Y339309D02*
Y356809D01*
X221998Y339309D02*
X263002D01*
X221998D02*
Y356809D01*
X263002D01*
X439232Y246882D02*
Y252000D01*
Y257118D01*
X412461D02*
X439232D01*
X412461Y252000D02*
Y257118D01*
Y246882D02*
Y252000D01*
Y246882D02*
X439232D01*
Y252000D02*
X445138D01*
X406555D02*
X412461D01*
X263825Y502886D02*
Y521114D01*
X268500D01*
X273175D01*
Y502886D02*
Y521114D01*
X268500Y502886D02*
X273175D01*
X263825D02*
X268500D01*
Y491606D02*
Y502886D01*
Y521114D02*
Y532394D01*
X238256Y493748D02*
X256760D01*
X238256Y452252D02*
Y493748D01*
Y452252D02*
X256760D01*
Y493748D01*
X193626Y188921D02*
X209374D01*
Y179079D02*
Y188921D01*
X193626Y179079D02*
Y188921D01*
Y179079D02*
X209374D01*
X386626Y241921D02*
X402374D01*
Y232079D02*
Y241921D01*
X386626Y232079D02*
Y241921D01*
Y232079D02*
X402374D01*
X392158Y221618D02*
X411842D01*
X392158Y205870D02*
X411842D01*
Y221618D01*
X392158Y205870D02*
Y221618D01*
X221831Y308712D02*
X263169D01*
Y326783D01*
X221831D02*
X263169D01*
X221831Y308712D02*
Y326783D01*
X148732Y278882D02*
Y284000D01*
Y289118D01*
X121961D02*
X148732D01*
X121961Y284000D02*
Y289118D01*
Y278882D02*
Y284000D01*
Y278882D02*
X148732D01*
Y284000D02*
X154638D01*
X116055D02*
X121961D01*
X161002Y339309D02*
Y356809D01*
X119998Y339309D02*
X161002D01*
X119998D02*
Y356809D01*
X161002D01*
X167126Y284326D02*
X182874D01*
X167126D02*
Y294169D01*
X182874Y284326D02*
Y294169D01*
X167126D02*
X182874D01*
X126039Y292572D02*
X144268D01*
X126039D02*
Y297248D01*
Y301923D01*
X144268D01*
Y297248D02*
Y301923D01*
Y292572D02*
Y297248D01*
X155547D01*
X114760D02*
X126039D01*
X119831Y308712D02*
X161169D01*
Y326783D01*
X119831D02*
X161169D01*
X119831Y308712D02*
Y326783D01*
X147236Y428484D02*
X226764D01*
X147236D02*
Y456516D01*
X226764D01*
Y428484D02*
Y456516D01*
X126000Y397634D02*
X131118D01*
X120882D02*
X126000D01*
X120882Y370862D02*
Y397634D01*
Y370862D02*
X126000D01*
X131118D01*
Y397634D01*
X126000D02*
Y403539D01*
Y364956D02*
Y370862D01*
X140152Y397634D02*
X145270D01*
X135034D02*
X140152D01*
X135034Y370862D02*
Y397634D01*
Y370862D02*
X140152D01*
X145270D01*
Y397634D01*
X140152D02*
Y403539D01*
Y364956D02*
Y370862D01*
X154500Y368992D02*
Y374110D01*
Y394582D02*
Y399700D01*
Y374110D02*
X159815D01*
X149185D02*
X154500D01*
X149185Y394582D02*
X154500D01*
X159815D01*
X149185Y391334D02*
X159815D01*
X149185Y374110D02*
Y391334D01*
Y394582D01*
X159815Y391334D02*
Y394582D01*
Y374110D02*
Y391334D01*
X257500Y368992D02*
Y374110D01*
Y394582D02*
Y399700D01*
Y374110D02*
X262815D01*
X252185D02*
X257500D01*
X252185Y394582D02*
X257500D01*
X262815D01*
X252185Y391334D02*
X262815D01*
X252185Y374110D02*
Y391334D01*
Y394582D01*
X262815Y391334D02*
Y394582D01*
Y374110D02*
Y391334D01*
X229000Y397634D02*
X234118D01*
X223882D02*
X229000D01*
X223882Y370862D02*
Y397634D01*
Y370862D02*
X229000D01*
X234118D01*
Y397634D01*
X229000D02*
Y403539D01*
Y364956D02*
Y370862D01*
X243152Y397634D02*
X248270D01*
X238034D02*
X243152D01*
X238034Y370862D02*
Y397634D01*
Y370862D02*
X243152D01*
X248270D01*
Y397634D01*
X243152D02*
Y403539D01*
Y364956D02*
Y370862D01*
X255886Y276130D02*
Y281248D01*
Y286366D01*
X229114D02*
X255886D01*
X229114Y281248D02*
Y286366D01*
Y276130D02*
Y281248D01*
Y276130D02*
X255886D01*
Y281248D02*
X261791D01*
X223209D02*
X229114D01*
X233386Y292572D02*
X251614D01*
X233386D02*
Y297248D01*
Y301923D01*
X251614D01*
Y297248D02*
Y301923D01*
Y292572D02*
Y297248D01*
X262894D01*
X222106D02*
X233386D01*
X274626Y284079D02*
X290374D01*
X274626D02*
Y293921D01*
X290374Y284079D02*
Y293921D01*
X274626D02*
X290374D01*
X104583Y435886D02*
Y454114D01*
X109258D01*
X113933D01*
Y435886D02*
Y454114D01*
X109258Y435886D02*
X113933D01*
X104583D02*
X109258D01*
Y424606D02*
Y435886D01*
Y454114D02*
Y465394D01*
X117140Y431114D02*
X122258D01*
X127376D01*
Y457886D01*
X122258D02*
X127376D01*
X117140D02*
X122258D01*
X117140Y431114D02*
Y457886D01*
X122258Y425209D02*
Y431114D01*
Y457886D02*
Y463791D01*
X130583Y435886D02*
Y454114D01*
X135258D01*
X139933D01*
Y435886D02*
Y454114D01*
X135258Y435886D02*
X139933D01*
X130583D02*
X135258D01*
Y424606D02*
Y435886D01*
Y454114D02*
Y465394D01*
X148126Y473421D02*
X163874D01*
Y463579D02*
Y473421D01*
X148126Y463579D02*
Y473421D01*
Y463579D02*
X163874D01*
X273175Y449386D02*
Y467614D01*
X268500Y449386D02*
X273175D01*
X263825D02*
X268500D01*
X263825D02*
Y467614D01*
X268500D01*
X273175D01*
X268500D02*
Y478894D01*
Y438106D02*
Y449386D01*
X287315Y489252D02*
X326685D01*
Y518780D01*
X287315D02*
X326685D01*
X287315Y489252D02*
Y518780D01*
X152114Y251000D02*
Y256118D01*
Y245882D02*
Y251000D01*
Y245882D02*
X178886D01*
Y251000D01*
Y256118D01*
X152114D02*
X178886D01*
X146209Y251000D02*
X152114D01*
X178886D02*
X184791D01*
X189157Y198626D02*
X208842D01*
X189157Y214374D02*
X208842D01*
X189157Y198626D02*
Y214374D01*
X208842Y198626D02*
Y214374D01*
D73*
X470480Y252000D02*
X470414Y252997D01*
X470215Y253976D01*
X469887Y254920D01*
X469436Y255812D01*
X468870Y256636D01*
X468200Y257377D01*
X467437Y258022D01*
X466595Y258560D01*
X465689Y258980D01*
X464734Y259277D01*
X463749Y259443D01*
X462750Y259476D01*
X461756Y259376D01*
X460784Y259144D01*
X459851Y258785D01*
X458975Y258305D01*
X458171Y257712D01*
X457452Y257018D01*
X456833Y256234D01*
X456324Y255374D01*
X455934Y254454D01*
X455670Y253490D01*
X455536Y252500D01*
Y251500D01*
X455670Y250510D01*
X455934Y249546D01*
X456324Y248626D01*
X456833Y247766D01*
X457452Y246982D01*
X458171Y246288D01*
X458975Y245695D01*
X459851Y245215D01*
X460784Y244855D01*
X461756Y244624D01*
X462750Y244524D01*
X463749Y244557D01*
X464734Y244724D01*
X465689Y245020D01*
X466595Y245440D01*
X467437Y245978D01*
X468200Y246623D01*
X468871Y247364D01*
X469436Y248188D01*
X469887Y249080D01*
X470215Y250024D01*
X470414Y251003D01*
X470480Y252000D01*
X469102D02*
X469019Y253004D01*
X468772Y253981D01*
X468367Y254904D01*
X467816Y255748D01*
X467133Y256490D01*
X466338Y257109D01*
X465451Y257588D01*
X464498Y257916D01*
X463504Y258082D01*
X462496D01*
X461502Y257916D01*
X460549Y257588D01*
X459662Y257109D01*
X458867Y256490D01*
X458184Y255748D01*
X457633Y254904D01*
X457228Y253981D01*
X456981Y253004D01*
X456898Y252000D01*
X456981Y250996D01*
X457228Y250019D01*
X457633Y249096D01*
X458184Y248252D01*
X458867Y247510D01*
X459662Y246891D01*
X460549Y246412D01*
X461502Y246084D01*
X462496Y245918D01*
X463504D01*
X464498Y246084D01*
X465451Y246412D01*
X466338Y246891D01*
X467133Y247510D01*
X467816Y248252D01*
X468367Y249096D01*
X468772Y250019D01*
X469019Y250996D01*
X469102Y252000D01*
X469890Y252000D02*
X469817Y253004D01*
X469598Y253985D01*
X469239Y254925D01*
X468746Y255802D01*
X468132Y256598D01*
X467408Y257296D01*
X466589Y257881D01*
X465695Y258341D01*
X464743Y258666D01*
X463754Y258849D01*
X462749Y258886D01*
X461749Y258775D01*
X460776Y258521D01*
X459850Y258128D01*
X458991Y257604D01*
X458218Y256960D01*
X457547Y256211D01*
X456992Y255372D01*
X456565Y254462D01*
X456275Y253498D01*
X456129Y252503D01*
Y251497D01*
X456275Y250502D01*
X456565Y249539D01*
X456992Y248628D01*
X457547Y247790D01*
X458218Y247040D01*
X458991Y246397D01*
X459850Y245873D01*
X460776Y245480D01*
X461749Y245225D01*
X462749Y245115D01*
X463754Y245152D01*
X464743Y245335D01*
X465695Y245659D01*
X466589Y246119D01*
X467408Y246705D01*
X468132Y247403D01*
X468746Y248199D01*
X469239Y249076D01*
X469598Y250015D01*
X469817Y250997D01*
X469890Y252000D01*
X135980Y251000D02*
X135914Y251997D01*
X135714Y252976D01*
X135387Y253920D01*
X134936Y254812D01*
X134371Y255636D01*
X133700Y256377D01*
X132937Y257022D01*
X132095Y257560D01*
X131188Y257980D01*
X130234Y258277D01*
X129249Y258443D01*
X128250Y258476D01*
X127256Y258376D01*
X126284Y258144D01*
X125351Y257785D01*
X124475Y257305D01*
X123670Y256712D01*
X122952Y256018D01*
X122333Y255234D01*
X121824Y254374D01*
X121434Y253454D01*
X121170Y252490D01*
X121036Y251500D01*
Y250500D01*
X121170Y249510D01*
X121434Y248546D01*
X121824Y247626D01*
X122333Y246766D01*
X122952Y245982D01*
X123670Y245288D01*
X124475Y244695D01*
X125351Y244215D01*
X126284Y243856D01*
X127256Y243624D01*
X128250Y243524D01*
X129249Y243557D01*
X130234Y243724D01*
X131188Y244020D01*
X132095Y244440D01*
X132937Y244978D01*
X133700Y245623D01*
X134371Y246364D01*
X134936Y247188D01*
X135387Y248080D01*
X135714Y249024D01*
X135914Y250003D01*
X135980Y251000D01*
X134602D02*
X134519Y252004D01*
X134272Y252981D01*
X133867Y253904D01*
X133316Y254748D01*
X132633Y255490D01*
X131838Y256109D01*
X130951Y256588D01*
X129998Y256916D01*
X129004Y257082D01*
X127996D01*
X127002Y256916D01*
X126049Y256588D01*
X125162Y256109D01*
X124367Y255490D01*
X123684Y254748D01*
X123133Y253904D01*
X122728Y252981D01*
X122481Y252004D01*
X122398Y251000D01*
X122481Y249996D01*
X122728Y249019D01*
X123133Y248096D01*
X123684Y247252D01*
X124367Y246510D01*
X125162Y245891D01*
X126049Y245412D01*
X127002Y245084D01*
X127996Y244918D01*
X129004D01*
X129998Y245084D01*
X130951Y245412D01*
X131838Y245891D01*
X132633Y246510D01*
X133316Y247252D01*
X133867Y248096D01*
X134272Y249019D01*
X134519Y249996D01*
X134602Y251000D01*
X135389Y251000D02*
X135316Y252003D01*
X135097Y252985D01*
X134738Y253924D01*
X134246Y254801D01*
X133631Y255597D01*
X132907Y256295D01*
X132089Y256881D01*
X131194Y257341D01*
X130242Y257665D01*
X129253Y257848D01*
X128248Y257885D01*
X127248Y257775D01*
X126275Y257520D01*
X125349Y257127D01*
X124491Y256603D01*
X123718Y255960D01*
X123047Y255210D01*
X122492Y254372D01*
X122064Y253461D01*
X121775Y252498D01*
X121628Y251503D01*
Y250497D01*
X121775Y249502D01*
X122064Y248538D01*
X122492Y247628D01*
X123047Y246789D01*
X123718Y246040D01*
X124491Y245396D01*
X125349Y244872D01*
X126275Y244479D01*
X127248Y244225D01*
X128248Y244114D01*
X129253Y244151D01*
X130242Y244334D01*
X131194Y244659D01*
X132089Y245119D01*
X132907Y245704D01*
X133631Y246402D01*
X134246Y247198D01*
X134738Y248075D01*
X135097Y249015D01*
X135316Y249996D01*
X135389Y251000D01*
M02*
