G04*
G04 #@! TF.GenerationSoftware,Altium Limited,Altium Designer,23.8.1 (32)*
G04*
G04 Layer_Color=32896*
%FSLAX25Y25*%
%MOIN*%
G70*
G04*
G04 #@! TF.SameCoordinates,330DCB93-C80B-4371-A5EC-CE9DA49BF17F*
G04*
G04*
G04 #@! TF.FilePolarity,Positive*
G04*
G01*
G75*
%ADD13C,0.01000*%
D13*
X204818Y502000D02*
X204688Y502988D01*
X204306Y503909D01*
X203700Y504700D01*
X202909Y505306D01*
X201988Y505688D01*
X201000Y505818D01*
X200012Y505688D01*
X199091Y505306D01*
X198300Y504700D01*
X197694Y503909D01*
X197312Y502988D01*
X197182Y502000D01*
X197312Y501012D01*
X197694Y500091D01*
X198300Y499300D01*
X199091Y498694D01*
X200012Y498312D01*
X201000Y498182D01*
X201988Y498312D01*
X202909Y498694D01*
X203700Y499300D01*
X204306Y500091D01*
X204688Y501012D01*
X204818Y502000D01*
X194818D02*
X194688Y502988D01*
X194306Y503909D01*
X193700Y504700D01*
X192909Y505306D01*
X191988Y505688D01*
X191000Y505818D01*
X190012Y505688D01*
X189091Y505306D01*
X188300Y504700D01*
X187694Y503909D01*
X187312Y502988D01*
X187182Y502000D01*
X187312Y501012D01*
X187694Y500091D01*
X188300Y499300D01*
X189091Y498694D01*
X190012Y498312D01*
X191000Y498182D01*
X191988Y498312D01*
X192909Y498694D01*
X193700Y499300D01*
X194306Y500091D01*
X194688Y501012D01*
X194818Y502000D01*
X170314D02*
X170184Y502988D01*
X169802Y503909D01*
X169196Y504700D01*
X168405Y505306D01*
X167484Y505688D01*
X166496Y505818D01*
X165508Y505688D01*
X164587Y505306D01*
X163796Y504700D01*
X163190Y503909D01*
X162808Y502988D01*
X162678Y502000D01*
X162808Y501012D01*
X163190Y500091D01*
X163796Y499300D01*
X164587Y498694D01*
X165508Y498312D01*
X166496Y498182D01*
X167484Y498312D01*
X168405Y498694D01*
X169196Y499300D01*
X169802Y500091D01*
X170184Y501012D01*
X170314Y502000D01*
X180314D02*
X180184Y502988D01*
X179802Y503909D01*
X179196Y504700D01*
X178405Y505306D01*
X177484Y505688D01*
X176496Y505818D01*
X175508Y505688D01*
X174587Y505306D01*
X173796Y504700D01*
X173190Y503909D01*
X172808Y502988D01*
X172678Y502000D01*
X172808Y501012D01*
X173190Y500091D01*
X173796Y499300D01*
X174587Y498694D01*
X175508Y498312D01*
X176496Y498182D01*
X177484Y498312D01*
X178405Y498694D01*
X179196Y499300D01*
X179802Y500091D01*
X180184Y501012D01*
X180314Y502000D01*
X204818Y492000D02*
X204688Y492988D01*
X204306Y493909D01*
X203700Y494700D01*
X202909Y495306D01*
X201988Y495688D01*
X201000Y495818D01*
X200012Y495688D01*
X199091Y495306D01*
X198300Y494700D01*
X197694Y493909D01*
X197312Y492988D01*
X197182Y492000D01*
X197312Y491012D01*
X197694Y490091D01*
X198300Y489300D01*
X199091Y488694D01*
X200012Y488312D01*
X201000Y488182D01*
X201988Y488312D01*
X202909Y488694D01*
X203700Y489300D01*
X204306Y490091D01*
X204688Y491012D01*
X204818Y492000D01*
X194818D02*
X194688Y492988D01*
X194306Y493909D01*
X193700Y494700D01*
X192909Y495306D01*
X191988Y495688D01*
X191000Y495818D01*
X190012Y495688D01*
X189091Y495306D01*
X188300Y494700D01*
X187694Y493909D01*
X187312Y492988D01*
X187182Y492000D01*
X187312Y491012D01*
X187694Y490091D01*
X188300Y489300D01*
X189091Y488694D01*
X190012Y488312D01*
X191000Y488182D01*
X191988Y488312D01*
X192909Y488694D01*
X193700Y489300D01*
X194306Y490091D01*
X194688Y491012D01*
X194818Y492000D01*
X180314D02*
X180184Y492988D01*
X179802Y493909D01*
X179196Y494700D01*
X178405Y495306D01*
X177484Y495688D01*
X176496Y495818D01*
X175508Y495688D01*
X174587Y495306D01*
X173796Y494700D01*
X173190Y493909D01*
X172808Y492988D01*
X172678Y492000D01*
X172808Y491012D01*
X173190Y490091D01*
X173796Y489300D01*
X174587Y488694D01*
X175508Y488312D01*
X176496Y488182D01*
X177484Y488312D01*
X178405Y488694D01*
X179196Y489300D01*
X179802Y490091D01*
X180184Y491012D01*
X180314Y492000D01*
X170314D02*
X170184Y492988D01*
X169802Y493909D01*
X169196Y494700D01*
X168405Y495306D01*
X167484Y495688D01*
X166496Y495818D01*
X165508Y495688D01*
X164587Y495306D01*
X163796Y494700D01*
X163190Y493909D01*
X162808Y492988D01*
X162678Y492000D01*
X162808Y491012D01*
X163190Y490091D01*
X163796Y489300D01*
X164587Y488694D01*
X165508Y488312D01*
X166496Y488182D01*
X167484Y488312D01*
X168405Y488694D01*
X169196Y489300D01*
X169802Y490091D01*
X170184Y491012D01*
X170314Y492000D01*
X144566D02*
X144436Y492988D01*
X144054Y493909D01*
X143448Y494700D01*
X142657Y495306D01*
X141736Y495688D01*
X140748Y495818D01*
X139760Y495688D01*
X138839Y495306D01*
X138049Y494700D01*
X137442Y493909D01*
X137060Y492988D01*
X136930Y492000D01*
X137060Y491012D01*
X137442Y490091D01*
X138049Y489300D01*
X138839Y488694D01*
X139760Y488312D01*
X140748Y488182D01*
X141736Y488312D01*
X142657Y488694D01*
X143448Y489300D01*
X144054Y490091D01*
X144436Y491012D01*
X144566Y492000D01*
X154566D02*
X154436Y492988D01*
X154054Y493909D01*
X153448Y494700D01*
X152657Y495306D01*
X151736Y495688D01*
X150748Y495818D01*
X149760Y495688D01*
X148839Y495306D01*
X148048Y494700D01*
X147442Y493909D01*
X147060Y492988D01*
X146930Y492000D01*
X147060Y491012D01*
X147442Y490091D01*
X148048Y489300D01*
X148839Y488694D01*
X149760Y488312D01*
X150748Y488182D01*
X151736Y488312D01*
X152657Y488694D01*
X153448Y489300D01*
X154054Y490091D01*
X154436Y491012D01*
X154566Y492000D01*
Y502000D02*
X154436Y502988D01*
X154054Y503909D01*
X153448Y504700D01*
X152657Y505306D01*
X151736Y505688D01*
X150748Y505818D01*
X149760Y505688D01*
X148839Y505306D01*
X148048Y504700D01*
X147442Y503909D01*
X147060Y502988D01*
X146930Y502000D01*
X147060Y501012D01*
X147442Y500091D01*
X148048Y499300D01*
X148839Y498694D01*
X149760Y498312D01*
X150748Y498182D01*
X151736Y498312D01*
X152657Y498694D01*
X153448Y499300D01*
X154054Y500091D01*
X154436Y501012D01*
X154566Y502000D01*
X144566D02*
X144436Y502988D01*
X144054Y503909D01*
X143448Y504700D01*
X142657Y505306D01*
X141736Y505688D01*
X140748Y505818D01*
X139760Y505688D01*
X138839Y505306D01*
X138049Y504700D01*
X137442Y503909D01*
X137060Y502988D01*
X136930Y502000D01*
X137060Y501012D01*
X137442Y500091D01*
X138049Y499300D01*
X138839Y498694D01*
X139760Y498312D01*
X140748Y498182D01*
X141736Y498312D01*
X142657Y498694D01*
X143448Y499300D01*
X144054Y500091D01*
X144436Y501012D01*
X144566Y502000D01*
X194500Y503500D02*
X197248Y506248D01*
X200000Y509000D01*
X203000Y505500D02*
Y508248D01*
X201000Y517000D02*
X203000D01*
Y508248D02*
Y510936D01*
X180000Y517000D02*
X201000D01*
X203000Y510936D02*
Y517000D01*
X178500Y509000D02*
X200000D01*
X157248D02*
X166496D01*
Y506248D02*
Y509000D01*
X176496Y506248D02*
Y517000D01*
X159248D02*
X176496D01*
X191000Y470500D02*
Y488000D01*
X201000Y467500D02*
Y488000D01*
X166496Y476000D02*
Y488000D01*
X176496Y470500D02*
Y488000D01*
X150748Y467500D02*
Y488000D01*
X125500Y501000D02*
X126500Y502000D01*
X113500Y497500D02*
X118500D01*
X113500Y450500D02*
Y497500D01*
X118500D02*
X133500Y512500D01*
X150000D01*
X140748Y476000D02*
Y488000D01*
X150000Y512500D02*
X150748Y511752D01*
Y506248D02*
Y511752D01*
X126500Y502000D02*
X136500D01*
X125500Y459500D02*
Y501000D01*
X203000Y520968D02*
X200376D01*
X201688Y522280D02*
Y519656D01*
X196440Y519000D02*
X199064D01*
X196440Y521624D01*
Y522280D01*
X197096Y522936D01*
X198408D01*
X199064Y522280D01*
X193161Y519000D02*
Y522936D01*
X195129Y520968D01*
X192505D01*
X191193Y522936D02*
Y520312D01*
X189881Y519000D01*
X188569Y520312D01*
Y522936D01*
X180698Y522280D02*
X181353Y522936D01*
X182665D01*
X183321Y522280D01*
Y521624D01*
X182665Y520968D01*
X181353D01*
X180698Y520312D01*
Y519656D01*
X181353Y519000D01*
X182665D01*
X183321Y519656D01*
X200500Y512468D02*
X197876D01*
X199188Y513780D02*
Y511156D01*
X193940Y510500D02*
X196564D01*
X193940Y513124D01*
Y513780D01*
X194596Y514436D01*
X195908D01*
X196564Y513780D01*
X190661Y510500D02*
Y514436D01*
X192629Y512468D01*
X190005D01*
X182133Y513780D02*
X182789Y514436D01*
X184101D01*
X184757Y513780D01*
Y511156D01*
X184101Y510500D01*
X182789D01*
X182133Y511156D01*
X178198Y513780D02*
X178853Y514436D01*
X180165D01*
X180821Y513780D01*
Y513124D01*
X180165Y512468D01*
X178853D01*
X178198Y511812D01*
Y511156D01*
X178853Y510500D01*
X180165D01*
X180821Y511156D01*
X204468Y461500D02*
Y464124D01*
X205780Y462812D02*
X203156D01*
X202500Y465436D02*
Y466748D01*
Y466092D01*
X206436D01*
X205780Y465436D01*
X202500Y471339D02*
Y468715D01*
X205124Y471339D01*
X205780D01*
X206436Y470683D01*
Y469372D01*
X205780Y468715D01*
X206436Y472651D02*
X203812D01*
X202500Y473963D01*
X203812Y475275D01*
X206436D01*
X205780Y483147D02*
X206436Y482491D01*
Y481179D01*
X205780Y480523D01*
X203156D01*
X202500Y481179D01*
Y482491D01*
X203156Y483147D01*
X205780Y487082D02*
X206436Y486426D01*
Y485114D01*
X205780Y484458D01*
X205124D01*
X204468Y485114D01*
Y486426D01*
X203812Y487082D01*
X203156D01*
X202500Y486426D01*
Y485114D01*
X203156Y484458D01*
X194468Y464500D02*
Y467124D01*
X195780Y465812D02*
X193156D01*
X192500Y468436D02*
Y469748D01*
Y469092D01*
X196436D01*
X195780Y468436D01*
X192500Y474339D02*
Y471715D01*
X195124Y474339D01*
X195780D01*
X196436Y473683D01*
Y472371D01*
X195780Y471715D01*
X196436Y475651D02*
X193812D01*
X192500Y476963D01*
X193812Y478275D01*
X196436D01*
X195780Y486147D02*
X196436Y485491D01*
Y484179D01*
X195780Y483523D01*
X195124D01*
X194468Y484179D01*
Y485491D01*
X193812Y486147D01*
X193156D01*
X192500Y485491D01*
Y484179D01*
X193156Y483523D01*
X164500Y510500D02*
Y514436D01*
X161876Y510500D01*
Y514436D01*
X157940Y513780D02*
X158596Y514436D01*
X159908D01*
X160564Y513780D01*
Y511156D01*
X159908Y510500D01*
X158596D01*
X157940Y511156D01*
X174500Y520968D02*
X171876D01*
X173188Y522280D02*
Y519656D01*
X167940Y522936D02*
X170564D01*
Y520968D01*
X169252Y521624D01*
X168596D01*
X167940Y520968D01*
Y519656D01*
X168596Y519000D01*
X169908D01*
X170564Y519656D01*
X166629Y522936D02*
Y520312D01*
X165317Y519000D01*
X164005Y520312D01*
Y522936D01*
X171528Y478624D02*
X172184Y477968D01*
Y476656D01*
X171528Y476000D01*
X168904D01*
X168248Y476656D01*
Y477968D01*
X168904Y478624D01*
X170216D01*
Y477312D01*
X168248Y479936D02*
X172184D01*
X168248Y482560D01*
X172184D01*
Y483872D02*
X168248D01*
Y485839D01*
X168904Y486495D01*
X171528D01*
X172184Y485839D01*
Y483872D01*
X179968Y471000D02*
Y473624D01*
X181280Y472312D02*
X178656D01*
X178000Y477560D02*
Y474936D01*
X180624Y477560D01*
X181280D01*
X181936Y476904D01*
Y475592D01*
X181280Y474936D01*
X178000Y480839D02*
X181936D01*
X179968Y478871D01*
Y481495D01*
X181936Y482807D02*
X179312D01*
X178000Y484119D01*
X179312Y485431D01*
X181936D01*
X154468Y468000D02*
Y470624D01*
X155780Y469312D02*
X153156D01*
X155780Y471936D02*
X156436Y472592D01*
Y473904D01*
X155780Y474560D01*
X155124D01*
X154468Y473904D01*
Y473248D01*
Y473904D01*
X153812Y474560D01*
X153156D01*
X152500Y473904D01*
Y472592D01*
X153156Y471936D01*
X152500Y475872D02*
X153156D01*
Y476527D01*
X152500D01*
Y475872D01*
X155780Y479151D02*
X156436Y479807D01*
Y481119D01*
X155780Y481775D01*
X155124D01*
X154468Y481119D01*
Y480463D01*
Y481119D01*
X153812Y481775D01*
X153156D01*
X152500Y481119D01*
Y479807D01*
X153156Y479151D01*
X156436Y483087D02*
X153812D01*
X152500Y484399D01*
X153812Y485711D01*
X156436D01*
X131592Y459000D02*
X127656D01*
Y460968D01*
X128312Y461624D01*
X128968D01*
X129624Y460968D01*
Y459000D01*
Y460968D01*
X130280Y461624D01*
X130936D01*
X131592Y460968D01*
Y459000D01*
Y462936D02*
X128312D01*
X127656Y463592D01*
Y464904D01*
X128312Y465560D01*
X131592D01*
X130936Y469495D02*
X131592Y468839D01*
Y467527D01*
X130936Y466872D01*
X128312D01*
X127656Y467527D01*
Y468839D01*
X128312Y469495D01*
X131592Y470807D02*
X127656D01*
X128968D01*
X131592Y473431D01*
X129624Y471463D01*
X127656Y473431D01*
X127000Y474743D02*
Y477367D01*
X127656Y478679D02*
X131592D01*
Y480647D01*
X130936Y481302D01*
X129624D01*
X128968Y480647D01*
Y478679D01*
X131592Y482614D02*
X127656D01*
X128968Y483926D01*
X127656Y485238D01*
X131592D01*
X127656Y486550D02*
X131592D01*
X130280Y487862D01*
X131592Y489174D01*
X127656D01*
X127000Y490486D02*
Y493110D01*
X131592Y494422D02*
Y495734D01*
Y495078D01*
X127656D01*
Y494422D01*
Y495734D01*
Y497701D02*
X131592D01*
X127656Y500325D01*
X131592D01*
X119592Y450500D02*
X115656D01*
Y452468D01*
X116312Y453124D01*
X116968D01*
X117624Y452468D01*
Y450500D01*
Y452468D01*
X118280Y453124D01*
X118936D01*
X119592Y452468D01*
Y450500D01*
Y456404D02*
Y455092D01*
X118936Y454436D01*
X116312D01*
X115656Y455092D01*
Y456404D01*
X116312Y457060D01*
X118936D01*
X119592Y456404D01*
Y460339D02*
Y459027D01*
X118936Y458371D01*
X116312D01*
X115656Y459027D01*
Y460339D01*
X116312Y460995D01*
X118936D01*
X119592Y460339D01*
X118936Y464931D02*
X119592Y464275D01*
Y462963D01*
X118936Y462307D01*
X118280D01*
X117624Y462963D01*
Y464275D01*
X116968Y464931D01*
X116312D01*
X115656Y464275D01*
Y462963D01*
X116312Y462307D01*
X119592Y466243D02*
Y468867D01*
Y467555D01*
X115656D01*
X115000Y470179D02*
Y472802D01*
X115656Y474114D02*
X119592D01*
Y476082D01*
X118936Y476738D01*
X117624D01*
X116968Y476082D01*
Y474114D01*
X119592Y478050D02*
X115656D01*
X116968Y479362D01*
X115656Y480674D01*
X119592D01*
X115656Y481986D02*
X119592D01*
X118280Y483298D01*
X119592Y484610D01*
X115656D01*
X115000Y485922D02*
Y488546D01*
X119592Y489857D02*
Y491169D01*
Y490513D01*
X115656D01*
Y489857D01*
Y491169D01*
Y493137D02*
X119592D01*
X115656Y495761D01*
X119592D01*
X145780Y478624D02*
X146436Y477968D01*
Y476656D01*
X145780Y476000D01*
X143156D01*
X142500Y476656D01*
Y477968D01*
X143156Y478624D01*
X144468D01*
Y477312D01*
X142500Y479936D02*
X146436D01*
X142500Y482560D01*
X146436D01*
Y483872D02*
X142500D01*
Y485839D01*
X143156Y486495D01*
X145780D01*
X146436Y485839D01*
Y483872D01*
M02*
