G04*
G04 #@! TF.GenerationSoftware,Altium Limited,Altium Designer,23.8.1 (32)*
G04*
G04 Layer_Physical_Order=2*
G04 Layer_Color=16711680*
%FSLAX25Y25*%
%MOIN*%
G70*
G04*
G04 #@! TF.SameCoordinates,826F1502-A096-44AE-8D0B-28D4DE97D3ED*
G04*
G04*
G04 #@! TF.FilePolarity,Positive*
G04*
G01*
G75*
%ADD43C,0.03937*%
%ADD44C,0.19685*%
%ADD46C,0.17717*%
%ADD47C,0.08268*%
%ADD48R,0.08268X0.08268*%
%ADD49R,0.07264X0.07264*%
%ADD50C,0.07264*%
%ADD51R,0.04331X0.04331*%
%ADD52C,0.04331*%
%ADD53C,0.09843*%
%ADD54R,0.05512X0.05512*%
%ADD55C,0.05512*%
%ADD56C,0.04724*%
%ADD57R,0.06260X0.06260*%
%ADD58C,0.06260*%
%ADD59R,0.07323X0.07323*%
%ADD60C,0.07323*%
%ADD61C,0.04528*%
%ADD62C,0.07638*%
%ADD63R,0.07638X0.07638*%
%ADD64C,0.06083*%
%ADD65R,0.05512X0.05512*%
%ADD66R,0.06260X0.06260*%
%ADD67R,0.04921X0.04921*%
%ADD68C,0.04921*%
%ADD69R,0.06496X0.06496*%
%ADD70C,0.06496*%
%ADD71R,0.04331X0.04331*%
%ADD72C,0.05000*%
G36*
X480700Y538975D02*
X481959Y538593D01*
X483120Y537973D01*
X484138Y537138D01*
X484973Y536120D01*
X485593Y534959D01*
X485975Y533700D01*
X486103Y532406D01*
X486100Y532390D01*
Y158374D01*
X486103Y158358D01*
X485975Y157064D01*
X485593Y155804D01*
X484973Y154644D01*
X484138Y153626D01*
X483120Y152791D01*
X481959Y152171D01*
X480700Y151788D01*
X479406Y151661D01*
X479390Y151664D01*
X105374D01*
X105358Y151661D01*
X104064Y151788D01*
X102804Y152171D01*
X101644Y152791D01*
X100626Y153626D01*
X99791Y154644D01*
X99171Y155804D01*
X98788Y157064D01*
X98661Y158358D01*
X98664Y158374D01*
Y532390D01*
X98661Y532406D01*
X98788Y533700D01*
X99171Y534959D01*
X99791Y536120D01*
X100626Y537138D01*
X101644Y537973D01*
X102804Y538593D01*
X104064Y538975D01*
X105358Y539103D01*
X105374Y539100D01*
X479390D01*
X479406Y539103D01*
X480700Y538975D01*
D02*
G37*
%LPC*%
G36*
X269016Y536311D02*
X267984D01*
X266988Y536044D01*
X266095Y535528D01*
X265365Y534799D01*
X264850Y533906D01*
X264583Y532909D01*
Y531878D01*
X264850Y530882D01*
X265365Y529988D01*
X265720Y529634D01*
Y521651D01*
X253295Y509226D01*
X252795Y509433D01*
Y512953D01*
X250821D01*
X246887Y516887D01*
X246311Y517329D01*
X245641Y517606D01*
X244921Y517701D01*
X213921D01*
X213202Y517606D01*
X212531Y517329D01*
X211956Y516887D01*
X200898Y505829D01*
X200496D01*
X199522Y505568D01*
X198649Y505064D01*
X197936Y504351D01*
X197432Y503478D01*
X197171Y502504D01*
Y501496D01*
X197432Y500522D01*
X197936Y499649D01*
X198649Y498936D01*
X199522Y498432D01*
X200496Y498171D01*
X201504D01*
X202478Y498432D01*
X203351Y498936D01*
X204064Y499649D01*
X204568Y500522D01*
X204829Y501496D01*
Y501898D01*
X215073Y512142D01*
X243770D01*
X246890Y509022D01*
Y507047D01*
X250409D01*
X250616Y506547D01*
X233849Y489780D01*
X225856D01*
X225258Y490028D01*
X224538Y490122D01*
X204914D01*
X204748Y490315D01*
X204595Y490622D01*
X204829Y491496D01*
Y492504D01*
X204568Y493478D01*
X204064Y494351D01*
X203351Y495064D01*
X202478Y495568D01*
X201504Y495829D01*
X200496D01*
X199522Y495568D01*
X198649Y495064D01*
X197936Y494351D01*
X197432Y493478D01*
X197171Y492504D01*
Y491496D01*
X197335Y490883D01*
X196887Y490625D01*
X194763Y492748D01*
X194568Y493478D01*
X194064Y494351D01*
X193351Y495064D01*
X192478Y495568D01*
X191504Y495829D01*
X190496D01*
X189522Y495568D01*
X188649Y495064D01*
X187936Y494351D01*
X187432Y493478D01*
X187171Y492504D01*
Y491496D01*
X187432Y490522D01*
X187936Y489649D01*
X188649Y488936D01*
X189522Y488432D01*
X190496Y488171D01*
X191478D01*
X195412Y484237D01*
X195988Y483795D01*
X196658Y483518D01*
X197378Y483423D01*
X203401D01*
X204121Y483518D01*
X204791Y483795D01*
X205367Y484237D01*
X205692Y484563D01*
X223563D01*
X224162Y484315D01*
X224881Y484220D01*
X235000D01*
X235719Y484315D01*
X236390Y484593D01*
X236965Y485035D01*
X254811Y502880D01*
X255115Y503113D01*
X256729Y504728D01*
X256962Y505031D01*
X270465Y518535D01*
X270907Y519110D01*
X271185Y519781D01*
X271280Y520500D01*
Y529634D01*
X271635Y529988D01*
X272150Y530882D01*
X272417Y531878D01*
Y532909D01*
X272150Y533906D01*
X271635Y534799D01*
X270905Y535528D01*
X270012Y536044D01*
X269016Y536311D01*
D02*
G37*
G36*
X462950Y527146D02*
X461050D01*
X459187Y526775D01*
X457431Y526048D01*
X455851Y524992D01*
X454508Y523649D01*
X453452Y522069D01*
X452725Y520314D01*
X452354Y518450D01*
Y516550D01*
X452725Y514686D01*
X453452Y512931D01*
X454508Y511351D01*
X455851Y510008D01*
X457431Y508952D01*
X459187Y508225D01*
X461050Y507854D01*
X462950D01*
X464814Y508225D01*
X466569Y508952D01*
X468149Y510008D01*
X469492Y511351D01*
X470548Y512931D01*
X471275Y514686D01*
X471646Y516550D01*
Y518450D01*
X471275Y520314D01*
X470548Y522069D01*
X469492Y523649D01*
X468149Y524992D01*
X466569Y526048D01*
X464814Y526775D01*
X462950Y527146D01*
D02*
G37*
G36*
X302079Y509921D02*
X292236D01*
Y500079D01*
X302079D01*
Y509921D01*
D02*
G37*
G36*
X167886Y527894D02*
X114189D01*
X113470Y527799D01*
X112799Y527522D01*
X112224Y527080D01*
X101407Y516262D01*
X100965Y515687D01*
X100687Y515016D01*
X100592Y514297D01*
Y202934D01*
X100687Y202215D01*
X100965Y201544D01*
X101407Y200969D01*
X107341Y195035D01*
X107916Y194593D01*
X108587Y194315D01*
X109306Y194220D01*
X190349D01*
X198290Y186279D01*
X198437Y185731D01*
X198869Y184982D01*
X199481Y184369D01*
X200231Y183937D01*
X201067Y183713D01*
X201933D01*
X202769Y183937D01*
X203519Y184369D01*
X204131Y184982D01*
X204563Y185731D01*
X204787Y186567D01*
Y187433D01*
X204563Y188269D01*
X204131Y189018D01*
X203519Y189631D01*
X202769Y190063D01*
X202221Y190210D01*
X198673Y193758D01*
X198864Y194220D01*
X214240D01*
X214731Y193937D01*
X215279Y193790D01*
X225034Y184035D01*
X225610Y183593D01*
X226281Y183315D01*
X227000Y183220D01*
X350500D01*
X351219Y183315D01*
X351890Y183593D01*
X352466Y184035D01*
X383721Y215290D01*
X384269Y215437D01*
X385018Y215869D01*
X385631Y216481D01*
X386063Y217231D01*
X386287Y218067D01*
Y218933D01*
X386063Y219769D01*
X385631Y220518D01*
X385018Y221131D01*
X384269Y221563D01*
X383433Y221787D01*
X382567D01*
X381731Y221563D01*
X380981Y221131D01*
X380369Y220518D01*
X379937Y219769D01*
X379790Y219221D01*
X349349Y188780D01*
X228151D01*
X219210Y197721D01*
X219063Y198269D01*
X218631Y199019D01*
X218019Y199631D01*
X217269Y200063D01*
X216433Y200287D01*
X215567D01*
X214731Y200063D01*
X214240Y199780D01*
X199333D01*
X195422Y203690D01*
X194847Y204132D01*
X194176Y204409D01*
X193457Y204504D01*
X112651D01*
X111354Y205801D01*
Y281248D01*
X111855Y281425D01*
X112477Y281065D01*
X113278Y280850D01*
X114108D01*
X114909Y281065D01*
X115627Y281480D01*
X116213Y282066D01*
X116628Y282784D01*
X116842Y283585D01*
Y284415D01*
X116628Y285216D01*
X116473Y285485D01*
Y293713D01*
X117165Y294113D01*
X117894Y294842D01*
X118410Y295736D01*
X118677Y296732D01*
Y297234D01*
X123892Y302449D01*
X124334Y303025D01*
X124612Y303695D01*
X124707Y304415D01*
Y306240D01*
X129825Y311358D01*
X135106D01*
Y318393D01*
X135568Y318584D01*
X140004Y314149D01*
X140359Y312669D01*
X140999Y311123D01*
X141874Y309697D01*
X142960Y308424D01*
X144233Y307338D01*
X145659Y306464D01*
X147205Y305823D01*
X148832Y305433D01*
X150500Y305301D01*
X164858D01*
X181966Y288193D01*
X181999Y288070D01*
X182401Y287374D01*
X182969Y286806D01*
X183665Y286404D01*
X184441Y286196D01*
X185244D01*
X186020Y286404D01*
X186716Y286806D01*
X187284Y287374D01*
X187686Y288070D01*
X187894Y288846D01*
Y289649D01*
X187686Y290425D01*
X187284Y291121D01*
X186716Y291689D01*
X186020Y292091D01*
X185897Y292124D01*
X173182Y304839D01*
X173373Y305301D01*
X225576D01*
X225767Y304839D01*
X222093Y301165D01*
X221591D01*
X220594Y300898D01*
X219701Y300382D01*
X218972Y299653D01*
X218456Y298760D01*
X218189Y297763D01*
Y296732D01*
X218456Y295736D01*
X218972Y294842D01*
X219327Y294487D01*
Y284007D01*
X218913Y283768D01*
X218326Y283182D01*
X217912Y282463D01*
X217697Y281662D01*
Y280833D01*
X217912Y280032D01*
X218326Y279314D01*
X218913Y278727D01*
X219631Y278313D01*
X220432Y278098D01*
X221261D01*
X222062Y278313D01*
X222780Y278727D01*
X223367Y279314D01*
X223781Y280032D01*
X223940Y280623D01*
X224072Y280755D01*
X224514Y281331D01*
X224791Y282001D01*
X224886Y282721D01*
Y294487D01*
X225241Y294842D01*
X225757Y295736D01*
X226024Y296732D01*
Y297234D01*
X234240Y305450D01*
X235795Y305823D01*
X237341Y306464D01*
X238767Y307338D01*
X240040Y308424D01*
X241126Y309697D01*
X242001Y311123D01*
X242641Y312669D01*
X243032Y314296D01*
X243163Y315964D01*
Y321083D01*
X248540Y326460D01*
X249626Y327733D01*
X250501Y329159D01*
X251141Y330705D01*
X251532Y332332D01*
X251663Y334000D01*
X251532Y335668D01*
X251141Y337295D01*
X250501Y338841D01*
X249626Y340267D01*
X248540Y341540D01*
X247267Y342626D01*
X245841Y343501D01*
X244295Y344141D01*
X242668Y344531D01*
X241000Y344663D01*
X239332Y344531D01*
X237705Y344141D01*
X236159Y343501D01*
X234733Y342626D01*
X233460Y341540D01*
X224960Y333040D01*
X223874Y331767D01*
X222999Y330341D01*
X222359Y328795D01*
X221969Y327168D01*
X221926Y326627D01*
X157685D01*
X138496Y345815D01*
X138243Y346870D01*
X138679Y347196D01*
X138794Y347130D01*
X139918Y346828D01*
X141082D01*
X142206Y347130D01*
X143213Y347711D01*
X144036Y348534D01*
X144618Y349542D01*
X144919Y350666D01*
Y351830D01*
X144618Y352953D01*
X144036Y353961D01*
X143213Y354784D01*
X142206Y355366D01*
X141082Y355667D01*
X139918D01*
X138794Y355366D01*
X137786Y354784D01*
X136964Y353961D01*
X136382Y352953D01*
X136081Y351830D01*
Y351629D01*
X135612Y351456D01*
X135540Y351540D01*
X134836Y352141D01*
X134618Y352953D01*
X134036Y353961D01*
X133213Y354784D01*
X132206Y355366D01*
X131082Y355667D01*
X130912D01*
X128930Y357649D01*
Y361370D01*
X128935Y361378D01*
X129150Y362179D01*
Y363009D01*
X128935Y363810D01*
X128520Y364528D01*
X127934Y365114D01*
X127216Y365529D01*
X126415Y365744D01*
X125585D01*
X124784Y365529D01*
X124066Y365114D01*
X123480Y364528D01*
X123065Y363810D01*
X122850Y363009D01*
Y362179D01*
X123065Y361378D01*
X123371Y360848D01*
Y356497D01*
X123466Y355778D01*
X123743Y355107D01*
X124185Y354532D01*
X124295Y354421D01*
X124198Y353931D01*
X123159Y353501D01*
X121733Y352626D01*
X120460Y351540D01*
X119374Y350267D01*
X118499Y348841D01*
X117859Y347295D01*
X117469Y345668D01*
X117337Y344000D01*
Y341232D01*
X117469Y339564D01*
X117859Y337937D01*
X118499Y336391D01*
X119374Y334965D01*
X120460Y333692D01*
X133120Y321032D01*
X132929Y320570D01*
X125894D01*
Y315289D01*
X119961Y309357D01*
X119520Y308781D01*
X119242Y308111D01*
X119147Y307391D01*
Y305566D01*
X114746Y301165D01*
X114244D01*
X113248Y300898D01*
X112355Y300382D01*
X111855Y299882D01*
X111354Y300089D01*
Y410923D01*
X118827Y418397D01*
X119327Y418189D01*
Y415760D01*
X114534Y410967D01*
X114093Y410391D01*
X113815Y409721D01*
X113720Y409001D01*
Y400306D01*
X113815Y399587D01*
X114093Y398916D01*
X114534Y398341D01*
X116841Y396035D01*
X117416Y395593D01*
X118087Y395315D01*
X118806Y395220D01*
X177500D01*
X178219Y395315D01*
X178890Y395593D01*
X179465Y396035D01*
X207776Y424345D01*
X208254Y424473D01*
X208994Y424901D01*
X209599Y425506D01*
X210027Y426246D01*
X210248Y427072D01*
Y427928D01*
X210027Y428754D01*
X209599Y429494D01*
X208994Y430099D01*
X208254Y430527D01*
X207428Y430748D01*
X206572D01*
X205746Y430527D01*
X205006Y430099D01*
X204401Y429494D01*
X203973Y428754D01*
X203846Y428276D01*
X176349Y400780D01*
X158784D01*
X158535Y401177D01*
X158535Y401280D01*
Y409248D01*
X157280D01*
Y423849D01*
X157683Y424252D01*
X160248D01*
Y430748D01*
X153752D01*
Y428183D01*
X152534Y426966D01*
X152093Y426390D01*
X151815Y425719D01*
X151720Y425000D01*
Y409248D01*
X150465D01*
Y407992D01*
X142515D01*
X142086Y408422D01*
X141367Y408836D01*
X140566Y409051D01*
X139737D01*
X138936Y408836D01*
X138218Y408422D01*
X137788Y407992D01*
X128364D01*
X127934Y408422D01*
X127216Y408836D01*
X126415Y409051D01*
X125585D01*
X124784Y408836D01*
X124066Y408422D01*
X123480Y407835D01*
X123065Y407117D01*
X122850Y406316D01*
Y405486D01*
X123065Y404685D01*
X123480Y403967D01*
X124066Y403381D01*
X124784Y402966D01*
X125585Y402752D01*
X125641D01*
X126183Y402527D01*
X126902Y402432D01*
X150465D01*
Y401280D01*
X150465Y401177D01*
X150216Y400780D01*
X119958D01*
X119280Y401458D01*
Y407850D01*
X124073Y412643D01*
X124514Y413219D01*
X124792Y413889D01*
X124887Y414609D01*
Y421101D01*
X125193Y421631D01*
X125245Y421827D01*
X131341D01*
Y420689D01*
X139175D01*
Y428524D01*
X135272D01*
X132152Y431643D01*
Y462307D01*
X132614Y462498D01*
X132853Y462259D01*
X133746Y461743D01*
X134742Y461476D01*
X135244D01*
X152367Y444353D01*
X152943Y443912D01*
X153613Y443634D01*
X154333Y443539D01*
X177030D01*
X193845Y426723D01*
X193973Y426246D01*
X194401Y425506D01*
X195006Y424901D01*
X195746Y424473D01*
X196572Y424252D01*
X197428D01*
X198254Y424473D01*
X198994Y424901D01*
X199599Y425506D01*
X200027Y426246D01*
X200248Y427072D01*
Y427928D01*
X200027Y428754D01*
X199599Y429494D01*
X198994Y430099D01*
X198254Y430527D01*
X197776Y430654D01*
X180147Y448284D01*
X179571Y448726D01*
X178901Y449004D01*
X178181Y449098D01*
X155484D01*
X141986Y462597D01*
X142177Y463059D01*
X143336D01*
X144055Y463153D01*
X144726Y463431D01*
X145301Y463873D01*
X146994Y465565D01*
X147335Y465657D01*
X148031Y466058D01*
X148599Y466627D01*
X149001Y467322D01*
X149209Y468098D01*
Y468902D01*
X149001Y469678D01*
X148676Y470240D01*
X148880Y470740D01*
X151219D01*
X155425Y466535D01*
X156000Y466093D01*
X156671Y465815D01*
X157390Y465720D01*
X164555D01*
X164665Y465657D01*
X165441Y465449D01*
X166244D01*
X167020Y465657D01*
X167716Y466058D01*
X168284Y466627D01*
X168686Y467322D01*
X168894Y468098D01*
Y468902D01*
X168686Y469678D01*
X168284Y470373D01*
X167716Y470942D01*
X167020Y471343D01*
X166244Y471551D01*
X165441D01*
X164665Y471343D01*
X164555Y471280D01*
X158542D01*
X154336Y475485D01*
X153761Y475927D01*
X153090Y476205D01*
X152371Y476299D01*
X135060D01*
X134341Y476205D01*
X133670Y475927D01*
X133095Y475485D01*
X127407Y469797D01*
X126965Y469221D01*
X126687Y468551D01*
X126592Y467832D01*
Y430492D01*
X126687Y429773D01*
X126965Y429102D01*
X127407Y428527D01*
X128085Y427848D01*
X127894Y427386D01*
X124231D01*
X123511Y427291D01*
X122841Y427014D01*
X122265Y426572D01*
X121824Y425996D01*
X121821Y425990D01*
X121042Y425781D01*
X120420Y425422D01*
X119920Y425598D01*
Y463402D01*
X120420Y463578D01*
X121042Y463219D01*
X121843Y463004D01*
X122672D01*
X123474Y463219D01*
X124192Y463633D01*
X124778Y464220D01*
X125193Y464938D01*
X125408Y465739D01*
Y466568D01*
X125193Y467369D01*
X124778Y468087D01*
X124192Y468674D01*
X123474Y469089D01*
X122672Y469303D01*
X121843D01*
X121042Y469089D01*
X120420Y468729D01*
X119920Y468905D01*
Y491878D01*
X145651Y517610D01*
X156955D01*
X169029Y505536D01*
X168722Y505136D01*
X167974Y505568D01*
X167000Y505829D01*
X165992D01*
X165018Y505568D01*
X164145Y505064D01*
X163432Y504351D01*
X162928Y503478D01*
X162667Y502504D01*
Y501496D01*
X162928Y500522D01*
X163432Y499649D01*
X164145Y498936D01*
X165018Y498432D01*
X165992Y498171D01*
X167000D01*
X167974Y498432D01*
X168847Y498936D01*
X169560Y499649D01*
X170064Y500522D01*
X170325Y501496D01*
Y502504D01*
X170064Y503478D01*
X169632Y504226D01*
X170032Y504533D01*
X172667Y501898D01*
Y501496D01*
X172928Y500522D01*
X173432Y499649D01*
X174145Y498936D01*
X175018Y498432D01*
X175992Y498171D01*
X177000D01*
X177974Y498432D01*
X178847Y498936D01*
X179560Y499649D01*
X180064Y500522D01*
X180325Y501496D01*
Y502504D01*
X180064Y503478D01*
X179560Y504351D01*
X178847Y505064D01*
X177974Y505568D01*
X177000Y505829D01*
X176598D01*
X160555Y521873D01*
X160746Y522334D01*
X166734D01*
X187171Y501898D01*
Y501496D01*
X187432Y500522D01*
X187936Y499649D01*
X188649Y498936D01*
X189522Y498432D01*
X190496Y498171D01*
X191504D01*
X192478Y498432D01*
X193351Y498936D01*
X194064Y499649D01*
X194568Y500522D01*
X194829Y501496D01*
Y502504D01*
X194568Y503478D01*
X194064Y504351D01*
X193351Y505064D01*
X192478Y505568D01*
X191504Y505829D01*
X191102D01*
X169851Y527080D01*
X169276Y527522D01*
X168605Y527799D01*
X167886Y527894D01*
D02*
G37*
G36*
X151252Y505829D02*
X150244D01*
X149270Y505568D01*
X148397Y505064D01*
X147684Y504351D01*
X147180Y503478D01*
X146919Y502504D01*
Y501496D01*
X147180Y500522D01*
X147684Y499649D01*
X148397Y498936D01*
X149270Y498432D01*
X150244Y498171D01*
X151252D01*
X152226Y498432D01*
X153099Y498936D01*
X153812Y499649D01*
X154316Y500522D01*
X154577Y501496D01*
Y502504D01*
X154316Y503478D01*
X153812Y504351D01*
X153099Y505064D01*
X152226Y505568D01*
X151252Y505829D01*
D02*
G37*
G36*
X141252D02*
X140244D01*
X139270Y505568D01*
X138397Y505064D01*
X137684Y504351D01*
X137180Y503478D01*
X136919Y502504D01*
Y501496D01*
X137180Y500522D01*
X137684Y499649D01*
X138397Y498936D01*
X139270Y498432D01*
X140244Y498171D01*
X141252D01*
X142226Y498432D01*
X143099Y498936D01*
X143812Y499649D01*
X144316Y500522D01*
X144577Y501496D01*
Y502504D01*
X144316Y503478D01*
X143812Y504351D01*
X143099Y505064D01*
X142226Y505568D01*
X141252Y505829D01*
D02*
G37*
G36*
X177000Y495829D02*
X175992D01*
X175018Y495568D01*
X174145Y495064D01*
X173432Y494351D01*
X172928Y493478D01*
X172667Y492504D01*
Y491496D01*
X172928Y490522D01*
X173432Y489649D01*
X174145Y488936D01*
X175018Y488432D01*
X175992Y488171D01*
X177000D01*
X177974Y488432D01*
X178847Y488936D01*
X179560Y489649D01*
X180064Y490522D01*
X180325Y491496D01*
Y492504D01*
X180064Y493478D01*
X179560Y494351D01*
X178847Y495064D01*
X177974Y495568D01*
X177000Y495829D01*
D02*
G37*
G36*
X399752Y499209D02*
X398248D01*
X396796Y498820D01*
X395495Y498068D01*
X394432Y497005D01*
X393680Y495704D01*
X393291Y494252D01*
Y492748D01*
X393680Y491296D01*
X394432Y489995D01*
X395495Y488932D01*
X396796Y488180D01*
X398248Y487791D01*
X399752D01*
X401203Y488180D01*
X402505Y488932D01*
X403568Y489995D01*
X404320Y491296D01*
X404709Y492748D01*
Y494252D01*
X404320Y495704D01*
X403568Y497005D01*
X402505Y498068D01*
X401203Y498820D01*
X399752Y499209D01*
D02*
G37*
G36*
X272417Y495524D02*
X264583D01*
Y487689D01*
X272417D01*
Y495524D01*
D02*
G37*
G36*
X249949Y487449D02*
X241051D01*
Y478551D01*
X249949D01*
Y487449D01*
D02*
G37*
G36*
X272417Y482811D02*
X264583D01*
Y474976D01*
X272417D01*
Y482811D01*
D02*
G37*
G36*
X291953Y466953D02*
X286047D01*
Y461047D01*
X291953D01*
Y466953D01*
D02*
G37*
G36*
X326950Y477146D02*
X325050D01*
X323186Y476775D01*
X321431Y476048D01*
X319851Y474992D01*
X318508Y473649D01*
X317452Y472069D01*
X316725Y470314D01*
X316354Y468450D01*
Y466550D01*
X316725Y464686D01*
X317452Y462931D01*
X318508Y461351D01*
X319851Y460008D01*
X321431Y458952D01*
X323186Y458225D01*
X325050Y457854D01*
X326950D01*
X328814Y458225D01*
X330569Y458952D01*
X332149Y460008D01*
X333492Y461351D01*
X334548Y462931D01*
X335275Y464686D01*
X335646Y466550D01*
Y468450D01*
X335275Y470314D01*
X334548Y472069D01*
X333492Y473649D01*
X332149Y474992D01*
X330569Y476048D01*
X328814Y476775D01*
X326950Y477146D01*
D02*
G37*
G36*
X217428Y460748D02*
X216572D01*
X215746Y460527D01*
X215006Y460099D01*
X214401Y459494D01*
X213973Y458754D01*
X213752Y457928D01*
Y457072D01*
X213973Y456246D01*
X214401Y455506D01*
X215006Y454901D01*
X215746Y454473D01*
X216572Y454252D01*
X217428D01*
X218254Y454473D01*
X218994Y454901D01*
X219599Y455506D01*
X220027Y456246D01*
X220248Y457072D01*
Y457928D01*
X220027Y458754D01*
X219599Y459494D01*
X218994Y460099D01*
X218254Y460527D01*
X217428Y460748D01*
D02*
G37*
G36*
X151252Y495829D02*
X150244D01*
X149270Y495568D01*
X148397Y495064D01*
X147684Y494351D01*
X147180Y493478D01*
X146919Y492504D01*
Y491496D01*
X147180Y490522D01*
X147684Y489649D01*
X148397Y488936D01*
X149270Y488432D01*
X150244Y488171D01*
X150646D01*
X166144Y472673D01*
X166719Y472232D01*
X167390Y471954D01*
X168109Y471859D01*
X188710D01*
X203846Y456723D01*
X203973Y456246D01*
X204401Y455506D01*
X205006Y454901D01*
X205746Y454473D01*
X206572Y454252D01*
X207428D01*
X208254Y454473D01*
X208994Y454901D01*
X209599Y455506D01*
X210027Y456246D01*
X210155Y456723D01*
X215922Y462491D01*
X216413Y462694D01*
X216988Y463136D01*
X223478Y469626D01*
X225453D01*
Y475531D01*
X219547D01*
Y473557D01*
X213702Y467712D01*
X213212Y467509D01*
X212636Y467067D01*
X207000Y461431D01*
X191827Y476604D01*
X191251Y477046D01*
X190580Y477324D01*
X189861Y477419D01*
X169261D01*
X154577Y492102D01*
Y492504D01*
X154316Y493478D01*
X153812Y494351D01*
X153099Y495064D01*
X152226Y495568D01*
X151252Y495829D01*
D02*
G37*
G36*
X197428Y460748D02*
X196572D01*
X195746Y460527D01*
X195006Y460099D01*
X194401Y459494D01*
X193973Y458754D01*
X193752Y457928D01*
Y457072D01*
X193973Y456246D01*
X194401Y455506D01*
X195006Y454901D01*
X195746Y454473D01*
X196572Y454252D01*
X197428D01*
X198254Y454473D01*
X198994Y454901D01*
X199599Y455506D01*
X200027Y456246D01*
X200248Y457072D01*
Y457928D01*
X200027Y458754D01*
X199599Y459494D01*
X198994Y460099D01*
X198254Y460527D01*
X197428Y460748D01*
D02*
G37*
G36*
X177428D02*
X176572D01*
X175746Y460527D01*
X175006Y460099D01*
X174401Y459494D01*
X173973Y458754D01*
X173752Y457928D01*
Y457072D01*
X173973Y456246D01*
X174401Y455506D01*
X175006Y454901D01*
X175746Y454473D01*
X176572Y454252D01*
X177428D01*
X178254Y454473D01*
X178994Y454901D01*
X179599Y455506D01*
X180027Y456246D01*
X180248Y457072D01*
Y457928D01*
X180027Y458754D01*
X179599Y459494D01*
X178994Y460099D01*
X178254Y460527D01*
X177428Y460748D01*
D02*
G37*
G36*
X157428D02*
X156572D01*
X155746Y460527D01*
X155006Y460099D01*
X154401Y459494D01*
X153973Y458754D01*
X153752Y457928D01*
Y457072D01*
X153973Y456246D01*
X154401Y455506D01*
X155006Y454901D01*
X155746Y454473D01*
X156572Y454252D01*
X157428D01*
X158254Y454473D01*
X158994Y454901D01*
X159599Y455506D01*
X160027Y456246D01*
X160248Y457072D01*
Y457928D01*
X160027Y458754D01*
X159599Y459494D01*
X158994Y460099D01*
X158254Y460527D01*
X157428Y460748D01*
D02*
G37*
G36*
X399752Y459839D02*
X398248D01*
X396796Y459449D01*
X395495Y458698D01*
X394432Y457635D01*
X393680Y456333D01*
X393291Y454881D01*
Y453378D01*
X393680Y451927D01*
X394432Y450625D01*
X395495Y449562D01*
X396796Y448810D01*
X398248Y448421D01*
X399752D01*
X401203Y448810D01*
X402505Y449562D01*
X403568Y450625D01*
X404320Y451927D01*
X404709Y453378D01*
Y454881D01*
X404320Y456333D01*
X403568Y457635D01*
X402505Y458698D01*
X401203Y459449D01*
X399752Y459839D01*
D02*
G37*
G36*
X246086Y467449D02*
X244914D01*
X243783Y467146D01*
X242768Y466560D01*
X241940Y465732D01*
X241354Y464717D01*
X241051Y463586D01*
Y462414D01*
X241354Y461283D01*
X241940Y460268D01*
X242720Y459488D01*
Y442343D01*
X242815Y441623D01*
X243093Y440953D01*
X243534Y440377D01*
X246890Y437022D01*
Y435047D01*
X252795D01*
Y435274D01*
X265793D01*
X266095Y434972D01*
X266988Y434456D01*
X267984Y434189D01*
X269016D01*
X270012Y434456D01*
X270905Y434972D01*
X271635Y435701D01*
X272150Y436594D01*
X272417Y437591D01*
Y438622D01*
X272150Y439618D01*
X271635Y440512D01*
X270905Y441241D01*
X270012Y441757D01*
X269016Y442024D01*
X267984D01*
X266988Y441757D01*
X266095Y441241D01*
X265687Y440833D01*
X252795D01*
Y440953D01*
X250821D01*
X248280Y443494D01*
Y459488D01*
X249060Y460268D01*
X249646Y461283D01*
X249949Y462414D01*
Y463586D01*
X249646Y464717D01*
X249060Y465732D01*
X248232Y466560D01*
X247217Y467146D01*
X246086Y467449D01*
D02*
G37*
G36*
X187428Y430748D02*
X186572D01*
X185746Y430527D01*
X185006Y430099D01*
X184401Y429494D01*
X183973Y428754D01*
X183752Y427928D01*
Y427072D01*
X183973Y426246D01*
X184401Y425506D01*
X185006Y424901D01*
X185746Y424473D01*
X186572Y424252D01*
X187428D01*
X188254Y424473D01*
X188994Y424901D01*
X189599Y425506D01*
X190027Y426246D01*
X190248Y427072D01*
Y427928D01*
X190027Y428754D01*
X189599Y429494D01*
X188994Y430099D01*
X188254Y430527D01*
X187428Y430748D01*
D02*
G37*
G36*
X177428D02*
X176572D01*
X175746Y430527D01*
X175006Y430099D01*
X174401Y429494D01*
X173973Y428754D01*
X173752Y427928D01*
Y427072D01*
X173973Y426246D01*
X174401Y425506D01*
X175006Y424901D01*
X175746Y424473D01*
X176572Y424252D01*
X177428D01*
X178254Y424473D01*
X178994Y424901D01*
X179599Y425506D01*
X180027Y426246D01*
X180248Y427072D01*
Y427928D01*
X180027Y428754D01*
X179599Y429494D01*
X178994Y430099D01*
X178254Y430527D01*
X177428Y430748D01*
D02*
G37*
G36*
X446094Y413209D02*
X444591D01*
X443139Y412820D01*
X441837Y412068D01*
X440774Y411005D01*
X440023Y409703D01*
X439634Y408252D01*
Y406748D01*
X440023Y405297D01*
X440774Y403995D01*
X441837Y402932D01*
X443139Y402180D01*
X444591Y401791D01*
X446094D01*
X447546Y402180D01*
X448848Y402932D01*
X449911Y403995D01*
X450662Y405297D01*
X451051Y406748D01*
Y408252D01*
X450662Y409703D01*
X449911Y411005D01*
X448848Y412068D01*
X447546Y412820D01*
X446094Y413209D01*
D02*
G37*
G36*
X406724D02*
X405221D01*
X403769Y412820D01*
X402467Y412068D01*
X401404Y411005D01*
X400653Y409703D01*
X400264Y408252D01*
Y406748D01*
X400653Y405297D01*
X401404Y403995D01*
X402467Y402932D01*
X403769Y402180D01*
X405221Y401791D01*
X406724D01*
X408176Y402180D01*
X409478Y402932D01*
X410540Y403995D01*
X411292Y405297D01*
X411681Y406748D01*
Y408252D01*
X411292Y409703D01*
X410540Y411005D01*
X409478Y412068D01*
X408176Y412820D01*
X406724Y413209D01*
D02*
G37*
G36*
X394752D02*
X393249D01*
X391797Y412820D01*
X390495Y412068D01*
X389432Y411005D01*
X388680Y409703D01*
X388291Y408252D01*
Y406748D01*
X388680Y405297D01*
X389432Y403995D01*
X390495Y402932D01*
X391797Y402180D01*
X393249Y401791D01*
X394752D01*
X396203Y402180D01*
X397505Y402932D01*
X398568Y403995D01*
X399320Y405297D01*
X399709Y406748D01*
Y408252D01*
X399320Y409703D01*
X398568Y411005D01*
X397505Y412068D01*
X396203Y412820D01*
X394752Y413209D01*
D02*
G37*
G36*
X355381D02*
X353878D01*
X352427Y412820D01*
X351125Y412068D01*
X350062Y411005D01*
X349310Y409703D01*
X348921Y408252D01*
Y406748D01*
X349310Y405297D01*
X350062Y403995D01*
X351125Y402932D01*
X352427Y402180D01*
X353878Y401791D01*
X355381D01*
X356833Y402180D01*
X358135Y402932D01*
X359198Y403995D01*
X359950Y405297D01*
X360339Y406748D01*
Y408252D01*
X359950Y409703D01*
X359198Y411005D01*
X358135Y412068D01*
X356833Y412820D01*
X355381Y413209D01*
D02*
G37*
G36*
X217428Y430748D02*
X216572D01*
X215746Y430527D01*
X215006Y430099D01*
X214401Y429494D01*
X213973Y428754D01*
X213752Y427928D01*
Y427072D01*
X213973Y426246D01*
X214401Y425506D01*
X215006Y424901D01*
X215746Y424473D01*
X216224Y424345D01*
X226220Y414349D01*
Y407386D01*
X226065Y407117D01*
X225850Y406316D01*
Y405486D01*
X226065Y404685D01*
X226480Y403967D01*
X227066Y403381D01*
X227784Y402966D01*
X228585Y402752D01*
X228641D01*
X229183Y402527D01*
X229902Y402432D01*
X253465D01*
Y401177D01*
X261535D01*
Y409248D01*
X253465D01*
Y407992D01*
X245515D01*
X245086Y408422D01*
X244367Y408836D01*
X243566Y409051D01*
X242737D01*
X241936Y408836D01*
X241218Y408422D01*
X240788Y407992D01*
X231780D01*
Y415500D01*
X231685Y416219D01*
X231407Y416890D01*
X230965Y417465D01*
X220155Y428276D01*
X220027Y428754D01*
X219599Y429494D01*
X218994Y430099D01*
X218254Y430527D01*
X217428Y430748D01*
D02*
G37*
G36*
X192450Y388646D02*
X190550D01*
X188687Y388275D01*
X186931Y387548D01*
X185351Y386492D01*
X184008Y385149D01*
X182952Y383569D01*
X182225Y381814D01*
X181854Y379950D01*
Y378050D01*
X182225Y376186D01*
X182952Y374431D01*
X184008Y372851D01*
X185351Y371508D01*
X186931Y370452D01*
X188687Y369725D01*
X190550Y369354D01*
X192450D01*
X194314Y369725D01*
X196069Y370452D01*
X197649Y371508D01*
X198992Y372851D01*
X200048Y374431D01*
X200775Y376186D01*
X201146Y378050D01*
Y379950D01*
X200775Y381814D01*
X200048Y383569D01*
X198992Y385149D01*
X197649Y386492D01*
X196069Y387548D01*
X194314Y388275D01*
X192450Y388646D01*
D02*
G37*
G36*
X155031Y367515D02*
X153969D01*
X152942Y367240D01*
X152022Y366709D01*
X151271Y365958D01*
X150934Y365374D01*
X141636D01*
X141367Y365529D01*
X140566Y365744D01*
X139737D01*
X138936Y365529D01*
X138218Y365114D01*
X137631Y364528D01*
X137217Y363810D01*
X137002Y363009D01*
Y362179D01*
X137217Y361378D01*
X137631Y360660D01*
X138218Y360074D01*
X138936Y359659D01*
X139737Y359444D01*
X140566D01*
X141367Y359659D01*
X141636Y359814D01*
X147427D01*
X147720Y359480D01*
Y355667D01*
X146081D01*
Y346828D01*
X154919D01*
Y355667D01*
X153280D01*
Y358329D01*
X154396Y359444D01*
X155031D01*
X156058Y359719D01*
X156978Y360251D01*
X157729Y361002D01*
X158260Y361922D01*
X158535Y362949D01*
Y364011D01*
X158260Y365038D01*
X157729Y365958D01*
X156978Y366709D01*
X156058Y367240D01*
X155031Y367515D01*
D02*
G37*
G36*
X258031D02*
X256969D01*
X255942Y367240D01*
X255022Y366709D01*
X254573Y366260D01*
X244250D01*
X243531Y366165D01*
X242861Y365887D01*
X242640Y365718D01*
X241936Y365529D01*
X241218Y365114D01*
X240631Y364528D01*
X240217Y363810D01*
X240002Y363009D01*
Y362179D01*
X240217Y361378D01*
X240631Y360660D01*
X241218Y360074D01*
X241936Y359659D01*
X242737Y359444D01*
X243566D01*
X244367Y359659D01*
X245086Y360074D01*
X245672Y360660D01*
X245695Y360700D01*
X250100D01*
X250346Y360200D01*
X250093Y359870D01*
X249815Y359199D01*
X249720Y358480D01*
Y355667D01*
X248081D01*
Y346828D01*
X256919D01*
Y355667D01*
X255280D01*
Y357329D01*
X257396Y359444D01*
X258031D01*
X259058Y359719D01*
X259978Y360251D01*
X260729Y361002D01*
X261260Y361922D01*
X261535Y362949D01*
Y364011D01*
X261260Y365038D01*
X260729Y365958D01*
X259978Y366709D01*
X259058Y367240D01*
X258031Y367515D01*
D02*
G37*
G36*
X243082Y355667D02*
X241918D01*
X240794Y355366D01*
X239787Y354784D01*
X238964Y353961D01*
X238382Y352953D01*
X238081Y351830D01*
Y350666D01*
X238382Y349542D01*
X238964Y348534D01*
X239787Y347711D01*
X240794Y347130D01*
X241918Y346828D01*
X243082D01*
X244206Y347130D01*
X245214Y347711D01*
X246036Y348534D01*
X246618Y349542D01*
X246919Y350666D01*
Y351830D01*
X246618Y352953D01*
X246036Y353961D01*
X245214Y354784D01*
X244206Y355366D01*
X243082Y355667D01*
D02*
G37*
G36*
X446094Y329209D02*
X444591D01*
X443139Y328820D01*
X441837Y328068D01*
X440774Y327005D01*
X440023Y325704D01*
X439634Y324252D01*
Y322748D01*
X440023Y321297D01*
X440774Y319995D01*
X441837Y318932D01*
X443139Y318180D01*
X444591Y317791D01*
X446094D01*
X447546Y318180D01*
X448848Y318932D01*
X449911Y319995D01*
X450662Y321297D01*
X451051Y322748D01*
Y324252D01*
X450662Y325704D01*
X449911Y327005D01*
X448848Y328068D01*
X447546Y328820D01*
X446094Y329209D01*
D02*
G37*
G36*
X406724D02*
X405221D01*
X403769Y328820D01*
X402467Y328068D01*
X401404Y327005D01*
X400653Y325704D01*
X400264Y324252D01*
Y322748D01*
X400653Y321297D01*
X401404Y319995D01*
X402467Y318932D01*
X403769Y318180D01*
X405221Y317791D01*
X406724D01*
X408176Y318180D01*
X409478Y318932D01*
X410540Y319995D01*
X411292Y321297D01*
X411681Y322748D01*
Y324252D01*
X411292Y325704D01*
X410540Y327005D01*
X409478Y328068D01*
X408176Y328820D01*
X406724Y329209D01*
D02*
G37*
G36*
X394752D02*
X393249D01*
X391797Y328820D01*
X390495Y328068D01*
X389432Y327005D01*
X388680Y325704D01*
X388291Y324252D01*
Y322748D01*
X388680Y321297D01*
X389432Y319995D01*
X390495Y318932D01*
X391797Y318180D01*
X393249Y317791D01*
X394752D01*
X396203Y318180D01*
X397505Y318932D01*
X398568Y319995D01*
X399320Y321297D01*
X399709Y322748D01*
Y324252D01*
X399320Y325704D01*
X398568Y327005D01*
X397505Y328068D01*
X396203Y328820D01*
X394752Y329209D01*
D02*
G37*
G36*
X355381D02*
X353878D01*
X352427Y328820D01*
X351125Y328068D01*
X350062Y327005D01*
X349310Y325704D01*
X348921Y324252D01*
Y322748D01*
X349310Y321297D01*
X350062Y319995D01*
X351125Y318932D01*
X352427Y318180D01*
X353878Y317791D01*
X355381D01*
X356833Y318180D01*
X358135Y318932D01*
X359198Y319995D01*
X359950Y321297D01*
X360339Y322748D01*
Y324252D01*
X359950Y325704D01*
X359198Y327005D01*
X358135Y328068D01*
X356833Y328820D01*
X355381Y329209D01*
D02*
G37*
G36*
X159465Y301165D02*
X151630D01*
Y293330D01*
X155534D01*
X160341Y288522D01*
X158749Y286930D01*
X158224D01*
X158216Y286935D01*
X157415Y287150D01*
X156585D01*
X155784Y286935D01*
X155066Y286520D01*
X154480Y285934D01*
X154065Y285216D01*
X153850Y284415D01*
Y283585D01*
X154065Y282784D01*
X154480Y282066D01*
X155066Y281480D01*
X155784Y281065D01*
X156585Y280850D01*
X157415D01*
X158216Y281065D01*
X158746Y281371D01*
X159901D01*
X160620Y281466D01*
X161291Y281743D01*
X161866Y282185D01*
X165994Y286313D01*
X166335Y286404D01*
X167031Y286806D01*
X167599Y287374D01*
X168001Y288070D01*
X168209Y288846D01*
Y289649D01*
X168001Y290425D01*
X167599Y291121D01*
X167031Y291689D01*
X166335Y292091D01*
X165559Y292299D01*
X164756D01*
X164497Y292229D01*
X159465Y297261D01*
Y301165D01*
D02*
G37*
G36*
X266811D02*
X258976D01*
Y293330D01*
X262880D01*
X267593Y288618D01*
X263238Y284263D01*
X262938Y284183D01*
X262220Y283768D01*
X261633Y283182D01*
X261219Y282463D01*
X261004Y281662D01*
Y280833D01*
X261219Y280032D01*
X261633Y279314D01*
X262220Y278727D01*
X262938Y278313D01*
X263739Y278098D01*
X264568D01*
X265369Y278313D01*
X266087Y278727D01*
X266674Y279314D01*
X267089Y280032D01*
X267169Y280332D01*
X272786Y285949D01*
X273059D01*
X273835Y286157D01*
X274531Y286558D01*
X275099Y287126D01*
X275501Y287822D01*
X275709Y288598D01*
Y289402D01*
X275501Y290178D01*
X275099Y290874D01*
X274531Y291442D01*
X273835Y291843D01*
X273494Y291935D01*
X272945Y292484D01*
X272369Y292926D01*
X271699Y293203D01*
X270979Y293298D01*
X270774D01*
X266811Y297261D01*
Y301165D01*
D02*
G37*
G36*
X337921Y282921D02*
X328079D01*
Y273079D01*
X337921D01*
Y282921D01*
D02*
G37*
G36*
X447915Y255150D02*
X447085D01*
X446284Y254935D01*
X445566Y254520D01*
X444980Y253934D01*
X444565Y253216D01*
X444350Y252415D01*
Y251585D01*
X444565Y250784D01*
X444980Y250066D01*
X445566Y249480D01*
X446284Y249065D01*
X447085Y248850D01*
X447915D01*
X448716Y249065D01*
X449434Y249480D01*
X450020Y250066D01*
X450435Y250784D01*
X450650Y251585D01*
Y252415D01*
X450435Y253216D01*
X450020Y253934D01*
X449434Y254520D01*
X448716Y254935D01*
X447915Y255150D01*
D02*
G37*
G36*
X471543Y255543D02*
X464457D01*
Y248457D01*
X471543D01*
Y255543D01*
D02*
G37*
G36*
X458466D02*
X457534D01*
X456632Y255302D01*
X455824Y254835D01*
X455165Y254176D01*
X454698Y253368D01*
X454457Y252467D01*
Y251534D01*
X454698Y250632D01*
X455165Y249824D01*
X455824Y249165D01*
X456632Y248698D01*
X457534Y248457D01*
X458466D01*
X459368Y248698D01*
X460176Y249165D01*
X460835Y249824D01*
X461302Y250632D01*
X461543Y251534D01*
Y252467D01*
X461302Y253368D01*
X460835Y254176D01*
X460176Y254835D01*
X459368Y255302D01*
X458466Y255543D01*
D02*
G37*
G36*
X144261Y254150D02*
X143432D01*
X142631Y253935D01*
X141913Y253520D01*
X141326Y252934D01*
X140911Y252216D01*
X140697Y251415D01*
Y250585D01*
X140911Y249784D01*
X141326Y249066D01*
X141913Y248480D01*
X142631Y248065D01*
X143432Y247850D01*
X144261D01*
X145062Y248065D01*
X145780Y248480D01*
X146367Y249066D01*
X146781Y249784D01*
X146996Y250585D01*
Y251415D01*
X146781Y252216D01*
X146367Y252934D01*
X145780Y253520D01*
X145062Y253935D01*
X144261Y254150D01*
D02*
G37*
G36*
X133967Y254543D02*
X133034D01*
X132132Y254302D01*
X131324Y253835D01*
X130665Y253176D01*
X130198Y252368D01*
X129957Y251466D01*
Y250534D01*
X130198Y249632D01*
X130665Y248824D01*
X131324Y248165D01*
X132132Y247698D01*
X133034Y247457D01*
X133967D01*
X134868Y247698D01*
X135676Y248165D01*
X136335Y248824D01*
X136802Y249632D01*
X137043Y250534D01*
Y251466D01*
X136802Y252368D01*
X136335Y253176D01*
X135676Y253835D01*
X134868Y254302D01*
X133967Y254543D01*
D02*
G37*
G36*
X127043D02*
X119957D01*
Y247457D01*
X127043D01*
Y254543D01*
D02*
G37*
G36*
X371450Y261646D02*
X369550D01*
X367687Y261275D01*
X365931Y260548D01*
X364351Y259492D01*
X363008Y258149D01*
X361952Y256569D01*
X361225Y254814D01*
X360854Y252950D01*
Y251050D01*
X361225Y249186D01*
X361952Y247431D01*
X363008Y245851D01*
X364351Y244508D01*
X365931Y243452D01*
X367687Y242725D01*
X369550Y242354D01*
X371450D01*
X373313Y242725D01*
X375069Y243452D01*
X376649Y244508D01*
X377992Y245851D01*
X379048Y247431D01*
X379775Y249186D01*
X380146Y251050D01*
Y252950D01*
X379775Y254814D01*
X379048Y256569D01*
X377992Y258149D01*
X376649Y259492D01*
X375069Y260548D01*
X373313Y261275D01*
X371450Y261646D01*
D02*
G37*
G36*
X404744Y240051D02*
X403941D01*
X403165Y239843D01*
X402469Y239442D01*
X401901Y238874D01*
X401499Y238178D01*
X401291Y237402D01*
Y236598D01*
X401499Y235822D01*
X401901Y235126D01*
X402469Y234558D01*
X403165Y234157D01*
X403941Y233949D01*
X404744D01*
X405520Y234157D01*
X406216Y234558D01*
X406784Y235126D01*
X407186Y235822D01*
X407394Y236598D01*
Y237402D01*
X407186Y238178D01*
X406784Y238874D01*
X406216Y239442D01*
X405520Y239843D01*
X404744Y240051D01*
D02*
G37*
G36*
X469072Y232646D02*
X467172D01*
X465309Y232275D01*
X463553Y231548D01*
X461973Y230492D01*
X460630Y229149D01*
X459574Y227569D01*
X458847Y225814D01*
X458476Y223950D01*
Y222050D01*
X458847Y220186D01*
X459574Y218431D01*
X460630Y216851D01*
X461973Y215508D01*
X463553Y214452D01*
X465309Y213725D01*
X467172Y213354D01*
X469072D01*
X470936Y213725D01*
X472691Y214452D01*
X474271Y215508D01*
X475614Y216851D01*
X476670Y218431D01*
X477397Y220186D01*
X477768Y222050D01*
Y223950D01*
X477397Y225814D01*
X476670Y227569D01*
X475614Y229149D01*
X474271Y230492D01*
X472691Y231548D01*
X470936Y232275D01*
X469072Y232646D01*
D02*
G37*
G36*
X445450D02*
X443550D01*
X441686Y232275D01*
X439931Y231548D01*
X438351Y230492D01*
X437008Y229149D01*
X435952Y227569D01*
X435225Y225814D01*
X434854Y223950D01*
Y222050D01*
X435225Y220186D01*
X435952Y218431D01*
X437008Y216851D01*
X438351Y215508D01*
X439931Y214452D01*
X441686Y213725D01*
X443550Y213354D01*
X445450D01*
X447313Y213725D01*
X449069Y214452D01*
X450649Y215508D01*
X451992Y216851D01*
X453048Y218431D01*
X453775Y220186D01*
X454146Y222050D01*
Y223950D01*
X453775Y225814D01*
X453048Y227569D01*
X451992Y229149D01*
X450649Y230492D01*
X449069Y231548D01*
X447313Y232275D01*
X445450Y232646D01*
D02*
G37*
G36*
X148072D02*
X146172D01*
X144308Y232275D01*
X142553Y231548D01*
X140973Y230492D01*
X139630Y229149D01*
X138574Y227569D01*
X137847Y225814D01*
X137476Y223950D01*
Y222050D01*
X137847Y220186D01*
X138574Y218431D01*
X139630Y216851D01*
X140973Y215508D01*
X142553Y214452D01*
X144308Y213725D01*
X146172Y213354D01*
X148072D01*
X149936Y213725D01*
X151691Y214452D01*
X153271Y215508D01*
X154614Y216851D01*
X155670Y218431D01*
X156397Y220186D01*
X156768Y222050D01*
Y223950D01*
X156397Y225814D01*
X155670Y227569D01*
X154614Y229149D01*
X153271Y230492D01*
X151691Y231548D01*
X149936Y232275D01*
X148072Y232646D01*
D02*
G37*
G36*
X124450D02*
X122550D01*
X120686Y232275D01*
X118931Y231548D01*
X117351Y230492D01*
X116008Y229149D01*
X114952Y227569D01*
X114225Y225814D01*
X113854Y223950D01*
Y222050D01*
X114225Y220186D01*
X114952Y218431D01*
X116008Y216851D01*
X117351Y215508D01*
X118931Y214452D01*
X120686Y213725D01*
X122550Y213354D01*
X124450D01*
X126313Y213725D01*
X128069Y214452D01*
X129649Y215508D01*
X130992Y216851D01*
X132048Y218431D01*
X132775Y220186D01*
X133146Y222050D01*
Y223950D01*
X132775Y225814D01*
X132048Y227569D01*
X130992Y229149D01*
X129649Y230492D01*
X128069Y231548D01*
X126313Y232275D01*
X124450Y232646D01*
D02*
G37*
G36*
X335543Y196780D02*
X328457D01*
Y189693D01*
X335543D01*
Y196780D01*
D02*
G37*
G36*
X269043Y196516D02*
X261957D01*
Y189429D01*
X269043D01*
Y196516D01*
D02*
G37*
G36*
X211744Y187051D02*
X210941D01*
X210165Y186843D01*
X209469Y186442D01*
X208901Y185873D01*
X208499Y185178D01*
X208291Y184402D01*
Y183598D01*
X208499Y182822D01*
X208901Y182126D01*
X209469Y181558D01*
X210165Y181157D01*
X210941Y180949D01*
X211744D01*
X212520Y181157D01*
X213216Y181558D01*
X213784Y182126D01*
X214186Y182822D01*
X214394Y183598D01*
Y184402D01*
X214186Y185178D01*
X213784Y185873D01*
X213216Y186442D01*
X212520Y186843D01*
X211744Y187051D01*
D02*
G37*
%LPD*%
G36*
X242542Y343736D02*
X244046Y343375D01*
X245475Y342783D01*
X246794Y341975D01*
X247500Y341372D01*
Y335000D01*
X237500D01*
Y343187D01*
X237954Y343375D01*
X239458Y343736D01*
X241000Y343858D01*
X242542Y343736D01*
D02*
G37*
G36*
X243896Y354618D02*
X244721Y354141D01*
X245394Y353468D01*
X245870Y352644D01*
X246116Y351724D01*
Y350771D01*
X245870Y349852D01*
X245394Y349027D01*
X244721Y348354D01*
X243896Y347878D01*
X242976Y347631D01*
X242024D01*
X241104Y347878D01*
X240279Y348354D01*
X239606Y349027D01*
X239130Y349852D01*
X238883Y350771D01*
Y351724D01*
X239130Y352644D01*
X239606Y353468D01*
X240279Y354141D01*
X241104Y354618D01*
X242024Y354864D01*
X242976D01*
X243896Y354618D01*
D02*
G37*
D43*
X117140Y493029D02*
X144500Y520390D01*
X108575Y412075D02*
X117140Y420640D01*
Y493029D01*
X232500Y351248D02*
Y352148D01*
X229151Y355497D02*
X232500Y352148D01*
X108575Y204650D02*
Y412075D01*
X116500Y400306D02*
Y409001D01*
X118806Y398000D02*
X177500D01*
X207000Y427500D01*
X116500Y400306D02*
X118806Y398000D01*
X350500Y186000D02*
X383000Y218500D01*
X216000Y197000D02*
X227000Y186000D01*
X350500D01*
X122107Y414609D02*
Y422696D01*
X122258Y422847D01*
X116500Y409001D02*
X122107Y414609D01*
X244921Y514921D02*
X249843Y510000D01*
X213921Y514921D02*
X244921D01*
X201000Y502000D02*
X213921Y514921D01*
X204541Y487343D02*
X224538D01*
X235000Y487000D02*
X253079Y505079D01*
X224881Y487000D02*
X235000D01*
X224538Y487343D02*
X224881Y487000D01*
X203401Y486203D02*
X204541Y487343D01*
X197378Y486203D02*
X203401D01*
X191581Y492000D02*
X197378Y486203D01*
X254764Y506693D02*
Y506764D01*
X253149Y505079D02*
X254764Y506693D01*
Y506764D02*
X268500Y520500D01*
X253079Y505079D02*
X253149D01*
X268500Y520500D02*
Y532394D01*
X249896Y438053D02*
X268447D01*
X249843Y438000D02*
X249896Y438053D01*
X268447D02*
X268500Y438106D01*
X245500Y442343D02*
X249843Y438000D01*
X245500Y442343D02*
Y463000D01*
X191000Y492000D02*
X191581D01*
X124231Y424606D02*
X135258D01*
X129372Y430492D02*
X135258Y424606D01*
X129372Y430492D02*
Y467832D01*
X135060Y473520D01*
X152371D01*
X157390Y468500D01*
X165842D01*
X135702Y465838D02*
X143336D01*
X145998Y468500D01*
X135258Y465394D02*
X135702Y465838D01*
X145998Y468500D02*
X146158D01*
X135258Y465394D02*
X154333Y446319D01*
X178181D01*
X197000Y427500D01*
X229902Y405212D02*
X257500D01*
X229000Y405901D02*
X229213D01*
X229902Y405212D01*
X229000Y405901D02*
Y415500D01*
X217000Y427500D02*
X229000Y415500D01*
X243152Y362594D02*
X243365D01*
X244250Y363480D02*
X257500D01*
X243365Y362594D02*
X244250Y363480D01*
X252500Y358480D02*
X257500Y363480D01*
X252500Y351248D02*
Y358480D01*
X150500Y351248D02*
Y359480D01*
X154500Y363480D01*
X140152Y362594D02*
X152922D01*
X153807Y363480D01*
X154500D01*
X126151Y356497D02*
Y362443D01*
Y356497D02*
X130500Y352148D01*
Y351248D02*
Y352148D01*
X126000Y362594D02*
X126151Y362443D01*
X126902Y405212D02*
X154500D01*
X126213Y405901D02*
X126902Y405212D01*
X126000Y405901D02*
X126213D01*
X154500Y425000D02*
X157000Y427500D01*
X154500Y405212D02*
Y425000D01*
X207000Y457500D02*
X214602Y465102D01*
X215023D02*
X222500Y472579D01*
X214602Y465102D02*
X215023D01*
X189861Y474639D02*
X207000Y457500D01*
X168109Y474639D02*
X189861D01*
X150748Y492000D02*
X168109Y474639D01*
X121927Y304415D02*
Y307391D01*
X130500Y315964D01*
X114760Y297248D02*
X121927Y304415D01*
X113693Y295552D02*
X114760Y296619D01*
Y297248D01*
X113693Y284000D02*
Y295552D01*
X163434Y289361D02*
X165044D01*
X155547Y297248D02*
X163434Y289361D01*
X165044D02*
X165157Y289248D01*
X157151Y284151D02*
X159901D01*
X157000Y284000D02*
X157151Y284151D01*
X159901D02*
X164998Y289248D01*
X158834Y315256D02*
X184843Y289248D01*
X262894Y297248D02*
X269623Y290518D01*
X272498Y289000D02*
X272657D01*
X270979Y290518D02*
X272498Y289000D01*
X269623Y290518D02*
X270979D01*
X264154Y281248D02*
X271793Y288887D01*
X220847Y281248D02*
Y281461D01*
X222106Y282721D02*
Y297248D01*
X220847Y281461D02*
X222106Y282721D01*
X232500Y307641D02*
Y315964D01*
X222106Y297248D02*
X232500Y307641D01*
X144500Y520390D02*
X158106D01*
X176496Y502000D01*
X108575Y204650D02*
X111500Y201724D01*
X193457D01*
X198181Y197000D01*
X216000D01*
X103372Y202934D02*
X109306Y197000D01*
X103372Y202934D02*
Y514297D01*
X114189Y525114D01*
X167886D01*
X191000Y502000D01*
X109306Y197000D02*
X191500D01*
X201500Y187000D01*
D44*
X229000Y369969D02*
X240531Y381500D01*
X259106D01*
X229000Y362594D02*
Y369969D01*
X259106Y381500D02*
X271378Y369228D01*
Y334842D02*
Y369228D01*
X232500Y325500D02*
X241000Y334000D01*
X232500Y315964D02*
Y325500D01*
X150500Y315964D02*
X232500D01*
X128000Y341232D02*
Y344000D01*
X150500Y315964D02*
Y318732D01*
X128000Y341232D02*
X150500Y318732D01*
D46*
X191500Y379000D02*
D03*
X468122Y179500D02*
D03*
X444500D02*
D03*
Y223000D02*
D03*
X468122D02*
D03*
X370500Y252000D02*
D03*
X147122Y223000D02*
D03*
X462000Y517500D02*
D03*
X326000Y467500D02*
D03*
X119000Y513500D02*
D03*
X147122Y179500D02*
D03*
X123500D02*
D03*
Y223000D02*
D03*
D47*
X313315Y278000D02*
D03*
X316843Y505000D02*
D03*
D48*
X333000Y278000D02*
D03*
X297158Y505000D02*
D03*
D49*
X252500Y351248D02*
D03*
X150500D02*
D03*
D50*
X242500D02*
D03*
X232500D02*
D03*
X140500D02*
D03*
X130500D02*
D03*
D51*
X249843Y438000D02*
D03*
Y510000D02*
D03*
D52*
X240000Y438000D02*
D03*
Y510000D02*
D03*
X222500Y482421D02*
D03*
X289000Y454157D02*
D03*
D53*
X445343Y323500D02*
D03*
X405972D02*
D03*
Y407500D02*
D03*
X445343D02*
D03*
X394000Y323500D02*
D03*
X354630D02*
D03*
X399000Y493500D02*
D03*
Y454130D02*
D03*
X354630Y407500D02*
D03*
X394000D02*
D03*
D54*
X468000Y252000D02*
D03*
X123500Y251000D02*
D03*
D55*
X458000Y252000D02*
D03*
X332000Y222764D02*
D03*
X265500Y222500D02*
D03*
X133500Y251000D02*
D03*
D56*
X447500Y252000D02*
D03*
X404193D02*
D03*
X157000Y284000D02*
D03*
X113693D02*
D03*
X126000Y405901D02*
D03*
Y362594D02*
D03*
X140152Y405901D02*
D03*
Y362594D02*
D03*
X229000Y405901D02*
D03*
Y362594D02*
D03*
X243152Y405901D02*
D03*
Y362594D02*
D03*
X264154Y281248D02*
D03*
X220847D02*
D03*
X122258Y422847D02*
D03*
Y466153D02*
D03*
X143846Y251000D02*
D03*
X187153D02*
D03*
D57*
X268500Y491606D02*
D03*
X109258Y424606D02*
D03*
X135258D02*
D03*
X268500Y478894D02*
D03*
D58*
Y532394D02*
D03*
X114760Y297248D02*
D03*
X222106D02*
D03*
X109258Y465394D02*
D03*
X135258D02*
D03*
X268500Y438106D02*
D03*
D59*
X245500Y483000D02*
D03*
D60*
Y473000D02*
D03*
Y463000D02*
D03*
D61*
X191657Y184000D02*
D03*
X211343D02*
D03*
X384658Y237000D02*
D03*
X404343D02*
D03*
X184843Y289248D02*
D03*
X165157D02*
D03*
X292342Y289000D02*
D03*
X272657D02*
D03*
X146158Y468500D02*
D03*
X165842D02*
D03*
D62*
X252500Y315964D02*
D03*
X150500D02*
D03*
D63*
X232500D02*
D03*
X130500D02*
D03*
D64*
X201000Y502000D02*
D03*
Y492000D02*
D03*
X191000D02*
D03*
Y502000D02*
D03*
X176496D02*
D03*
Y492000D02*
D03*
X166496D02*
D03*
Y502000D02*
D03*
X150748D02*
D03*
Y492000D02*
D03*
X140748D02*
D03*
Y502000D02*
D03*
D65*
X332000Y193236D02*
D03*
X265500Y192972D02*
D03*
D66*
X155547Y297248D02*
D03*
X262894D02*
D03*
D67*
X157000Y427500D02*
D03*
D68*
X167000D02*
D03*
X177000D02*
D03*
X187000D02*
D03*
X197000D02*
D03*
X207000D02*
D03*
X217000D02*
D03*
Y457500D02*
D03*
X207000D02*
D03*
X197000D02*
D03*
X187000D02*
D03*
X177000D02*
D03*
X167000D02*
D03*
X157000D02*
D03*
D69*
X154500Y405212D02*
D03*
X257500D02*
D03*
D70*
X154500Y363480D02*
D03*
X257500D02*
D03*
D71*
X222500Y472579D02*
D03*
X289000Y464000D02*
D03*
D72*
X383000Y218500D02*
D03*
X216000Y197000D02*
D03*
X201500Y187000D02*
D03*
M02*
