G04*
G04 #@! TF.GenerationSoftware,Altium Limited,Altium Designer,23.8.1 (32)*
G04*
G04 Layer_Physical_Order=1*
G04 Layer_Color=255*
%FSLAX25Y25*%
%MOIN*%
G70*
G04*
G04 #@! TF.SameCoordinates,330DCB93-C80B-4371-A5EC-CE9DA49BF17F*
G04*
G04*
G04 #@! TF.FilePolarity,Positive*
G04*
G01*
G75*
G04:AMPARAMS|DCode=14|XSize=77.56mil|YSize=23.62mil|CornerRadius=2.95mil|HoleSize=0mil|Usage=FLASHONLY|Rotation=90.000|XOffset=0mil|YOffset=0mil|HoleType=Round|Shape=RoundedRectangle|*
%AMROUNDEDRECTD14*
21,1,0.07756,0.01772,0,0,90.0*
21,1,0.07165,0.02362,0,0,90.0*
1,1,0.00591,0.00886,0.03583*
1,1,0.00591,0.00886,-0.03583*
1,1,0.00591,-0.00886,-0.03583*
1,1,0.00591,-0.00886,0.03583*
%
%ADD14ROUNDEDRECTD14*%
%ADD43C,0.03937*%
%ADD44C,0.19685*%
%ADD45C,0.01968*%
%ADD46C,0.17717*%
%ADD47C,0.08268*%
%ADD48R,0.08268X0.08268*%
%ADD49R,0.07264X0.07264*%
%ADD50C,0.07264*%
%ADD51R,0.04331X0.04331*%
%ADD52C,0.04331*%
%ADD53C,0.09843*%
%ADD54R,0.05512X0.05512*%
%ADD55C,0.05512*%
%ADD56C,0.04724*%
%ADD57R,0.06260X0.06260*%
%ADD58C,0.06260*%
%ADD59R,0.07323X0.07323*%
%ADD60C,0.07323*%
%ADD61C,0.04528*%
%ADD62C,0.07638*%
%ADD63R,0.07638X0.07638*%
%ADD64C,0.06083*%
%ADD65R,0.05512X0.05512*%
%ADD66R,0.06260X0.06260*%
%ADD67R,0.04921X0.04921*%
%ADD68C,0.04921*%
%ADD69R,0.06496X0.06496*%
%ADD70C,0.06496*%
%ADD71R,0.04331X0.04331*%
%ADD72C,0.05000*%
G36*
X145000Y337000D02*
X136000D01*
Y357500D01*
X145000D01*
Y337000D01*
D02*
G37*
G36*
X247500Y335000D02*
X237500D01*
Y357000D01*
X247500D01*
Y335000D01*
D02*
G37*
D14*
X394500Y223488D02*
D03*
X399500D02*
D03*
X404500D02*
D03*
X409500D02*
D03*
Y204000D02*
D03*
X404500D02*
D03*
X399500D02*
D03*
X394500D02*
D03*
X206500Y196756D02*
D03*
X201500D02*
D03*
X196500D02*
D03*
X191500D02*
D03*
Y216244D02*
D03*
X196500D02*
D03*
X201500D02*
D03*
X206500D02*
D03*
D43*
X474724Y271849D02*
Y525276D01*
X466500Y533500D02*
X474724Y525276D01*
X329069Y533500D02*
X466500D01*
X324293Y528724D02*
X329069Y533500D01*
X298546Y528724D02*
X324293D01*
X239000Y524000D02*
X434500D01*
X470000Y488500D01*
X253842Y514000D02*
X292800D01*
X295106Y511694D01*
Y507052D02*
Y511694D01*
Y507052D02*
X297158Y505000D01*
X245500Y505657D02*
X249843Y510000D01*
X253842Y514000D01*
X188500Y215461D02*
X199961Y204000D01*
X244000Y273000D02*
X283441D01*
X224000Y253000D02*
X244000Y273000D01*
X283441D02*
X295331Y284890D01*
X219500Y204000D02*
X224000Y208500D01*
X215317Y204000D02*
X219500D01*
X204782Y203902D02*
X215218D01*
X199961Y204000D02*
X204683D01*
X204782Y203902D01*
X215218D02*
X215317Y204000D01*
X224000Y208500D02*
Y253000D01*
X404193Y251787D02*
X409500Y246480D01*
X404193Y251787D02*
Y252000D01*
X409500Y223488D02*
Y246480D01*
X133500Y251000D02*
X143846D01*
X191579Y184079D02*
Y196677D01*
Y184079D02*
X191657Y184000D01*
X191500Y196756D02*
X191579Y196677D01*
X188500Y215461D02*
Y216000D01*
X295331Y284890D02*
X318236D01*
X322961Y280165D01*
X330835D01*
X333000Y278000D01*
X470000Y273806D02*
Y488500D01*
X123500Y223000D02*
Y251000D01*
X103000Y243500D02*
X123500Y223000D01*
X103000Y243500D02*
Y467460D01*
X106820Y471279D01*
X116919D01*
X122045Y466153D01*
X122258D01*
X109258Y424606D02*
X135258D01*
X126000Y362594D02*
X158434Y395028D01*
X164528D01*
X197000Y427500D01*
X201411Y492411D02*
X207411D01*
X239000Y524000D01*
X201000Y492000D02*
X201411Y492411D01*
X251917Y462311D02*
X268500Y478894D01*
X251917Y460342D02*
Y462311D01*
X235591Y444015D02*
X251917Y460342D01*
X177000Y427500D02*
X193515Y444015D01*
X235591D01*
X245500Y483000D02*
Y505657D01*
X283197Y464197D02*
X288803D01*
X289000Y464000D01*
X268500Y478894D02*
X283197Y464197D01*
X268500Y478894D02*
Y491606D01*
X468122Y223000D02*
Y265247D01*
X294876Y532394D02*
X298546Y528724D01*
X268500Y532394D02*
X294876D01*
X468122Y265247D02*
X474724Y271849D01*
X138347Y507797D02*
X188599D01*
X194622D01*
X182753Y501951D02*
X188599Y507797D01*
X182753Y498396D02*
Y501951D01*
X176496Y492139D02*
X182753Y498396D01*
X176496Y492000D02*
Y492139D01*
X200419Y502000D02*
X201000D01*
X194622Y507797D02*
X200419Y502000D01*
X130226Y499677D02*
X138347Y507797D01*
X130226Y474122D02*
Y499677D01*
X122258Y466153D02*
X130226Y474122D01*
X158181Y446319D02*
X177000Y427500D01*
X109258Y465394D02*
X128333Y446319D01*
X158181D01*
X161069Y463480D02*
X171020D01*
X177000Y457500D01*
X134951Y489599D02*
X161069Y463480D01*
X134951Y495622D02*
X140748Y501419D01*
X134951Y489599D02*
Y495622D01*
X140748Y501419D02*
Y502000D01*
X179320Y475180D02*
X197000Y457500D01*
X175118Y475180D02*
X179320D01*
X157627Y492671D02*
X175118Y475180D01*
X157627Y492671D02*
Y495121D01*
X150748Y502000D02*
X157627Y495121D01*
X387988Y223488D02*
X393000D01*
X383000Y218500D02*
X387988Y223488D01*
X201500Y187000D02*
Y196756D01*
X467694Y271500D02*
X470000Y273806D01*
X410500Y271500D02*
X467694D01*
X392000Y253000D02*
X410500Y271500D01*
X392000Y242244D02*
Y253000D01*
Y242244D02*
X399500Y234744D01*
Y223488D02*
Y234744D01*
D44*
X232500Y322500D02*
X246000Y336000D01*
X232500Y315964D02*
Y322500D01*
X246000Y336000D02*
X267969D01*
X279500Y347531D02*
Y374000D01*
X267969Y336000D02*
X279500Y347531D01*
X130500Y327000D02*
X140500Y337000D01*
X130500Y315964D02*
Y327000D01*
X240140Y234640D02*
X262500Y257000D01*
X240140Y218332D02*
X265500Y192972D01*
X240140Y218332D02*
Y234640D01*
X265500Y192972D02*
X332000D01*
X262500Y257000D02*
X335301D01*
X354630Y276329D01*
Y323500D01*
X429500Y164500D02*
X444500Y179500D01*
X123500D02*
X165895D01*
X180895Y164500D01*
X429500D01*
X444500Y179500D02*
X468122D01*
X147122Y223000D02*
X181500D01*
X123500D02*
X147122D01*
X181500D02*
X188500Y216000D01*
X332000Y192972D02*
X379972D01*
X429000Y204000D02*
X448000Y223000D01*
X413000Y204000D02*
X429000D01*
X448000Y223000D02*
X468122D01*
X379972Y192972D02*
X391500Y204500D01*
X279500Y374000D02*
X399000Y493500D01*
X354630Y407500D02*
X399000Y451870D01*
Y454130D01*
X394000Y407500D02*
X405972D01*
X445343Y323500D02*
Y407500D01*
X394000Y323500D02*
X405972D01*
X210000Y216500D02*
Y251724D01*
X147776Y268255D02*
X193469D01*
X210000Y251724D01*
X135000Y281031D02*
X147776Y268255D01*
X135000Y281031D02*
Y311464D01*
X130500Y315964D02*
X135000Y311464D01*
D45*
X206697Y197000D02*
X216000D01*
X206500Y196756D02*
Y196803D01*
X206697Y197000D01*
X196500Y185959D02*
X199731Y182728D01*
X210650Y184000D02*
X211343D01*
X196500Y185959D02*
Y196756D01*
X199731Y182728D02*
X209378D01*
X210650Y184000D01*
X404421Y223567D02*
Y236921D01*
X404343Y237000D02*
X404421Y236921D01*
Y223567D02*
X404500Y223488D01*
X447500Y252000D02*
X458000D01*
D46*
X191500Y379000D02*
D03*
X468122Y179500D02*
D03*
X444500D02*
D03*
Y223000D02*
D03*
X468122D02*
D03*
X370500Y252000D02*
D03*
X147122Y223000D02*
D03*
X462000Y517500D02*
D03*
X326000Y467500D02*
D03*
X119000Y513500D02*
D03*
X147122Y179500D02*
D03*
X123500D02*
D03*
Y223000D02*
D03*
D47*
X313315Y278000D02*
D03*
X316843Y505000D02*
D03*
D48*
X333000Y278000D02*
D03*
X297158Y505000D02*
D03*
D49*
X252500Y351248D02*
D03*
X150500D02*
D03*
D50*
X242500D02*
D03*
X232500D02*
D03*
X140500D02*
D03*
X130500D02*
D03*
D51*
X249843Y438000D02*
D03*
Y510000D02*
D03*
D52*
X240000Y438000D02*
D03*
Y510000D02*
D03*
X222500Y482421D02*
D03*
X289000Y454157D02*
D03*
D53*
X445343Y323500D02*
D03*
X405972D02*
D03*
Y407500D02*
D03*
X445343D02*
D03*
X394000Y323500D02*
D03*
X354630D02*
D03*
X399000Y493500D02*
D03*
Y454130D02*
D03*
X354630Y407500D02*
D03*
X394000D02*
D03*
D54*
X468000Y252000D02*
D03*
X123500Y251000D02*
D03*
D55*
X458000Y252000D02*
D03*
X332000Y222764D02*
D03*
X265500Y222500D02*
D03*
X133500Y251000D02*
D03*
D56*
X447500Y252000D02*
D03*
X404193D02*
D03*
X157000Y284000D02*
D03*
X113693D02*
D03*
X126000Y405901D02*
D03*
Y362594D02*
D03*
X140152Y405901D02*
D03*
Y362594D02*
D03*
X229000Y405901D02*
D03*
Y362594D02*
D03*
X243152Y405901D02*
D03*
Y362594D02*
D03*
X264154Y281248D02*
D03*
X220847D02*
D03*
X122258Y422847D02*
D03*
Y466153D02*
D03*
X143846Y251000D02*
D03*
X187153D02*
D03*
D57*
X268500Y491606D02*
D03*
X109258Y424606D02*
D03*
X135258D02*
D03*
X268500Y478894D02*
D03*
D58*
Y532394D02*
D03*
X114760Y297248D02*
D03*
X222106D02*
D03*
X109258Y465394D02*
D03*
X135258D02*
D03*
X268500Y438106D02*
D03*
D59*
X245500Y483000D02*
D03*
D60*
Y473000D02*
D03*
Y463000D02*
D03*
D61*
X191657Y184000D02*
D03*
X211343D02*
D03*
X384658Y237000D02*
D03*
X404343D02*
D03*
X184843Y289248D02*
D03*
X165157D02*
D03*
X292342Y289000D02*
D03*
X272657D02*
D03*
X146158Y468500D02*
D03*
X165842D02*
D03*
D62*
X252500Y315964D02*
D03*
X150500D02*
D03*
D63*
X232500D02*
D03*
X130500D02*
D03*
D64*
X201000Y502000D02*
D03*
Y492000D02*
D03*
X191000D02*
D03*
Y502000D02*
D03*
X176496D02*
D03*
Y492000D02*
D03*
X166496D02*
D03*
Y502000D02*
D03*
X150748D02*
D03*
Y492000D02*
D03*
X140748D02*
D03*
Y502000D02*
D03*
D65*
X332000Y193236D02*
D03*
X265500Y192972D02*
D03*
D66*
X155547Y297248D02*
D03*
X262894D02*
D03*
D67*
X157000Y427500D02*
D03*
D68*
X167000D02*
D03*
X177000D02*
D03*
X187000D02*
D03*
X197000D02*
D03*
X207000D02*
D03*
X217000D02*
D03*
Y457500D02*
D03*
X207000D02*
D03*
X197000D02*
D03*
X187000D02*
D03*
X177000D02*
D03*
X167000D02*
D03*
X157000D02*
D03*
D69*
X154500Y405212D02*
D03*
X257500D02*
D03*
D70*
X154500Y363480D02*
D03*
X257500D02*
D03*
D71*
X222500Y472579D02*
D03*
X289000Y464000D02*
D03*
D72*
X383000Y218500D02*
D03*
X216000Y197000D02*
D03*
X201500Y187000D02*
D03*
M02*
