G04*
G04 #@! TF.GenerationSoftware,Altium Limited,Altium Designer,23.8.1 (32)*
G04*
G04 Layer_Color=128*
%FSLAX25Y25*%
%MOIN*%
G70*
G04*
G04 #@! TF.SameCoordinates,330DCB93-C80B-4371-A5EC-CE9DA49BF17F*
G04*
G04*
G04 #@! TF.FilePolarity,Positive*
G04*
G01*
G75*
%ADD12C,0.00500*%
D12*
X184610Y379000D02*
X198390D01*
X191500Y372110D02*
Y385890D01*
X310559Y278000D02*
X316071D01*
X313315Y275244D02*
Y280756D01*
X330244Y278000D02*
X335756D01*
X333000Y275244D02*
Y280756D01*
X250079Y351248D02*
X254921D01*
X252500Y348826D02*
Y353669D01*
X240079Y351248D02*
X244921D01*
X242500Y348826D02*
Y353669D01*
X230079Y351248D02*
X234921D01*
X232500Y348826D02*
Y353669D01*
X248366Y438000D02*
X251319D01*
X249843Y436524D02*
Y439476D01*
X238524Y438000D02*
X241476D01*
X240000Y436524D02*
Y439476D01*
X442980Y323500D02*
X447705D01*
X445343Y321138D02*
Y325862D01*
X403610Y323500D02*
X408335D01*
X405972Y321138D02*
Y325862D01*
X403610Y407500D02*
X408335D01*
X405972Y405138D02*
Y409862D01*
X442980Y407500D02*
X447705D01*
X445343Y405138D02*
Y409862D01*
X466228Y252000D02*
X469772D01*
X468000Y250228D02*
Y253772D01*
X456228Y252000D02*
X459772D01*
X458000Y250228D02*
Y253772D01*
X445925Y252000D02*
X449075D01*
X447500Y250425D02*
Y253575D01*
X402618Y252000D02*
X405768D01*
X404193Y250425D02*
Y253575D01*
X461232Y179500D02*
X475012D01*
X468122Y172610D02*
Y186390D01*
X437610Y179500D02*
X451390D01*
X444500Y172610D02*
Y186390D01*
X437610Y223000D02*
X451390D01*
X444500Y216110D02*
Y229890D01*
X461232Y223000D02*
X475012D01*
X468122Y216110D02*
Y229890D01*
X266413Y491606D02*
X270587D01*
X268500Y489520D02*
Y493693D01*
X266413Y532394D02*
X270587D01*
X268500Y530307D02*
Y534480D01*
X243059Y483000D02*
X247941D01*
X245500Y480559D02*
Y485441D01*
X243059Y473000D02*
X247941D01*
X245500Y470559D02*
Y475441D01*
X243059Y463000D02*
X247941D01*
X245500Y460559D02*
Y465441D01*
X248366Y510000D02*
X251319D01*
X249843Y508524D02*
Y511476D01*
X238524Y510000D02*
X241476D01*
X240000Y508524D02*
Y511476D01*
X190083Y184000D02*
X193232D01*
X191657Y182425D02*
Y185575D01*
X209768Y184000D02*
X212917D01*
X211343Y182425D02*
Y185575D01*
X383083Y237000D02*
X386232D01*
X384658Y235425D02*
Y238575D01*
X402768Y237000D02*
X405917D01*
X404343Y235425D02*
Y238575D01*
X249961Y315964D02*
X255039D01*
X252500Y313425D02*
Y318504D01*
X229961Y315964D02*
X235039D01*
X232500Y313425D02*
Y318504D01*
X198972Y502000D02*
X203028D01*
X201000Y499972D02*
Y504028D01*
X198972Y492000D02*
X203028D01*
X201000Y489972D02*
Y494028D01*
X188972Y492000D02*
X193028D01*
X191000Y489972D02*
Y494028D01*
X188972Y502000D02*
X193028D01*
X191000Y499972D02*
Y504028D01*
X329933Y222764D02*
X334067D01*
X332000Y220697D02*
Y224831D01*
X329933Y193236D02*
X334067D01*
X332000Y191169D02*
Y195303D01*
X263433Y222500D02*
X267567D01*
X265500Y220433D02*
Y224567D01*
X263433Y192972D02*
X267567D01*
X265500Y190905D02*
Y195039D01*
X174469Y502000D02*
X178524D01*
X176496Y499972D02*
Y504028D01*
X174469Y492000D02*
X178524D01*
X176496Y489972D02*
Y494028D01*
X164469Y492000D02*
X168524D01*
X166496Y489972D02*
Y494028D01*
X164469Y502000D02*
X168524D01*
X166496Y499972D02*
Y504028D01*
X148721Y502000D02*
X152776D01*
X150748Y499972D02*
Y504028D01*
X148721Y492000D02*
X152776D01*
X150748Y489972D02*
Y494028D01*
X138721Y492000D02*
X142776D01*
X140748Y489972D02*
Y494028D01*
X138721Y502000D02*
X142776D01*
X140748Y499972D02*
Y504028D01*
X155425Y284000D02*
X158575D01*
X157000Y282425D02*
Y285575D01*
X112118Y284000D02*
X115268D01*
X113693Y282425D02*
Y285575D01*
X148079Y351248D02*
X152921D01*
X150500Y348826D02*
Y353669D01*
X138079Y351248D02*
X142921D01*
X140500Y348826D02*
Y353669D01*
X128079Y351248D02*
X132921D01*
X130500Y348826D02*
Y353669D01*
X183268Y289248D02*
X186417D01*
X184843Y287673D02*
Y290822D01*
X163583Y289248D02*
X166732D01*
X165157Y287673D02*
Y290822D01*
X153461Y297248D02*
X157634D01*
X155547Y295161D02*
Y299334D01*
X112673Y297248D02*
X116847D01*
X114760Y295161D02*
Y299334D01*
X147961Y315964D02*
X153039D01*
X150500Y313425D02*
Y318504D01*
X127961Y315964D02*
X133039D01*
X130500Y313425D02*
Y318504D01*
X391638Y323500D02*
X396362D01*
X394000Y321138D02*
Y325862D01*
X352268Y323500D02*
X356992D01*
X354630Y321138D02*
Y325862D01*
X396638Y493500D02*
X401362D01*
X399000Y491138D02*
Y495862D01*
X396638Y454130D02*
X401362D01*
X399000Y451768D02*
Y456492D01*
X352268Y407500D02*
X356992D01*
X354630Y405138D02*
Y409862D01*
X391638Y407500D02*
X396362D01*
X394000Y405138D02*
Y409862D01*
X155366Y427500D02*
X158634D01*
X157000Y425866D02*
Y429134D01*
X165366Y427500D02*
X168634D01*
X167000Y425866D02*
Y429134D01*
X175366Y427500D02*
X178634D01*
X177000Y425866D02*
Y429134D01*
X185366Y427500D02*
X188634D01*
X187000Y425866D02*
Y429134D01*
X195366Y427500D02*
X198634D01*
X197000Y425866D02*
Y429134D01*
X205366Y427500D02*
X208634D01*
X207000Y425866D02*
Y429134D01*
X215366Y427500D02*
X218634D01*
X217000Y425866D02*
Y429134D01*
X215366Y457500D02*
X218634D01*
X217000Y455866D02*
Y459134D01*
X205366Y457500D02*
X208634D01*
X207000Y455866D02*
Y459134D01*
X195366Y457500D02*
X198634D01*
X197000Y455866D02*
Y459134D01*
X185366Y457500D02*
X188634D01*
X187000Y455866D02*
Y459134D01*
X175366Y457500D02*
X178634D01*
X177000Y455866D02*
Y459134D01*
X165366Y457500D02*
X168634D01*
X167000Y455866D02*
Y459134D01*
X155366Y457500D02*
X158634D01*
X157000Y455866D02*
Y459134D01*
X363610Y252000D02*
X377390D01*
X370500Y245110D02*
Y258890D01*
X140232Y223000D02*
X154012D01*
X147122Y216110D02*
Y229890D01*
X124425Y405901D02*
X127575D01*
X126000Y404326D02*
Y407476D01*
X124425Y362594D02*
X127575D01*
X126000Y361019D02*
Y364169D01*
X138577Y405901D02*
X141726D01*
X140152Y404326D02*
Y407476D01*
X138577Y362594D02*
X141726D01*
X140152Y361019D02*
Y364169D01*
X152335Y405212D02*
X156665D01*
X154500Y403047D02*
Y407378D01*
X152335Y363480D02*
X156665D01*
X154500Y361315D02*
Y365645D01*
X255335Y405212D02*
X259665D01*
X257500Y403047D02*
Y407378D01*
X255335Y363480D02*
X259665D01*
X257500Y361315D02*
Y365645D01*
X227425Y405901D02*
X230575D01*
X229000Y404326D02*
Y407476D01*
X227425Y362594D02*
X230575D01*
X229000Y361019D02*
Y364169D01*
X241577Y405901D02*
X244726D01*
X243152Y404326D02*
Y407476D01*
X241577Y362594D02*
X244726D01*
X243152Y361019D02*
Y364169D01*
X262579Y281248D02*
X265728D01*
X264154Y279673D02*
Y282822D01*
X219272Y281248D02*
X222421D01*
X220847Y279673D02*
Y282822D01*
X260807Y297248D02*
X264980D01*
X262894Y295161D02*
Y299334D01*
X220020Y297248D02*
X224193D01*
X222106Y295161D02*
Y299334D01*
X290768Y289000D02*
X293917D01*
X292342Y287425D02*
Y290575D01*
X271083Y289000D02*
X274232D01*
X272657Y287425D02*
Y290575D01*
X107171Y424606D02*
X111345D01*
X109258Y422520D02*
Y426693D01*
X107171Y465394D02*
X111345D01*
X109258Y463307D02*
Y467480D01*
X120683Y422847D02*
X123833D01*
X122258Y421272D02*
Y424421D01*
X120683Y466153D02*
X123833D01*
X122258Y464579D02*
Y467728D01*
X133171Y424606D02*
X137345D01*
X135258Y422520D02*
Y426693D01*
X133171Y465394D02*
X137345D01*
X135258Y463307D02*
Y467480D01*
X144583Y468500D02*
X147732D01*
X146158Y466925D02*
Y470075D01*
X164268Y468500D02*
X167417D01*
X165842Y466925D02*
Y470075D01*
X221024Y472579D02*
X223976D01*
X222500Y471102D02*
Y474055D01*
X221024Y482421D02*
X223976D01*
X222500Y480945D02*
Y483898D01*
X266413Y478894D02*
X270587D01*
X268500Y476807D02*
Y480980D01*
X266413Y438106D02*
X270587D01*
X268500Y436020D02*
Y440193D01*
X287524Y464000D02*
X290476D01*
X289000Y462524D02*
Y465476D01*
X287524Y454157D02*
X290476D01*
X289000Y452681D02*
Y455634D01*
X294402Y505000D02*
X299913D01*
X297158Y502244D02*
Y507756D01*
X314087Y505000D02*
X319598D01*
X316843Y502244D02*
Y507756D01*
X121728Y251000D02*
X125272D01*
X123500Y249228D02*
Y252772D01*
X131728Y251000D02*
X135272D01*
X133500Y249228D02*
Y252772D01*
X142272Y251000D02*
X145421D01*
X143846Y249425D02*
Y252575D01*
X185579Y251000D02*
X188728D01*
X187153Y249425D02*
Y252575D01*
X455110Y517500D02*
X468890D01*
X462000Y510610D02*
Y524390D01*
X319110Y467500D02*
X332890D01*
X326000Y460610D02*
Y474390D01*
X112110Y513500D02*
X125890D01*
X119000Y506610D02*
Y520390D01*
X140232Y179500D02*
X154012D01*
X147122Y172610D02*
Y186390D01*
X116610Y179500D02*
X130390D01*
X123500Y172610D02*
Y186390D01*
X116610Y223000D02*
X130390D01*
X123500Y216110D02*
Y229890D01*
X381600Y218500D02*
X384400D01*
X383000Y217100D02*
Y219900D01*
X214600Y197000D02*
X217400D01*
X216000Y195600D02*
Y198400D01*
X200100Y187000D02*
X202900D01*
X201500Y185600D02*
Y188400D01*
M02*
